  0
SECTION
  2
HEADER
  9
$ACADVER
  1
AC1009
  9
$FILLMODE
 70
0
  9
$EXTMIN
 10
-0.1549
 20
-0.1524
 30
0.0000
  9
$EXTMAX
 10
98.1524
 20
73.1784
 30
0.0000
  0
ENDSEC
  0
SECTION
  2
TABLES
  0
TABLE
  2
LTYPE
 70
1
  0
LTYPE
  2
CONTINUOUS
 70
64
  3
Solid line
 72
65
 73
0
 40
0
  0
ENDTAB
  0
TABLE
  2
LAYER
 70
255
  0
LAYER
  2
17
 70
64
 62
82
  6
CONTINUOUS
  0
LAYER
  2
18
 70
64
 62
82
  6
CONTINUOUS
  0
LAYER
  2
19
 70
64
 62
53
  6
CONTINUOUS
  0
LAYER
  2
20
 70
64
 62
7
  6
CONTINUOUS
  0
LAYER
  2
21
 70
64
 62
253
  6
CONTINUOUS
  0
ENDTAB
  0
ENDSEC
  0
SECTION
  2
BLOCKS
  0
BLOCK
  8
0
  2
RECT
 70
64
 10
0.0000
 20
0.0000
 30
0.0000
  3
RECT
  0
SOLID
  8
0
 10
-0.5000
 20
-0.5000
 30
0.0000
 11
0.5000
 21
-0.5000
 31
0.0000
 12
-0.5000
 22
0.5000
 32
0.0000
 13
0.5000
 23
0.5000
 33
0.0000
  0
ENDBLK
  8
0
  0
BLOCK
  8
0
  2
PIE
 70
64
 10
0.0000
 20
0.0000
 30
0.0000
  3
PIE
  0
CIRCLE
  8
0
 10
0.0000
 20
0.0000
 30
0.0000
 40
0.5000
  0
ENDBLK
  8
0
  0
BLOCK
  8
0
  2
OCTAGONP
 70
64
 10
0.0000
 20
0.0000
 30
0.0000
  3
OCTAGONP
  0
POLYLINE
  8
0
 66
1
 10
0.0000
 20
0.0000
 30
0.0000
 40
0.0000
 41
0.0000
 70
1
  0
VERTEX
  8
0
 10
-0.5000
 20
-0.2071
 30
0.0000
  0
VERTEX
  8
0
 10
-0.5000
 20
0.2071
 30
0.0000
  0
VERTEX
  8
0
 10
-0.2071
 20
0.5000
 30
0.0000
  0
VERTEX
  8
0
 10
0.2071
 20
0.5000
 30
0.0000
  0
VERTEX
  8
0
 10
0.5000
 20
0.2071
 30
0.0000
  0
VERTEX
  8
0
 10
0.5000
 20
-0.2071
 30
0.0000
  0
VERTEX
  8
0
 10
0.2071
 20
-0.5000
 30
0.0000
  0
VERTEX
  8
0
 10
-0.2071
 20
-0.5000
 30
0.0000
  0
SEQEND
  8
0
  0
ENDBLK
  8
0
  0
BLOCK
  8
0
  2
SQUAREP
 70
64
 10
0.0000
 20
0.0000
 30
0.0000
  3
SQUAREP
  0
SOLID
  8
0
 10
-0.5000
 20
-0.5000
 30
0.0000
 11
0.5000
 21
-0.5000
 31
0.0000
 12
-0.5000
 22
0.5000
 32
0.0000
 13
0.5000
 23
0.5000
 33
0.0000
  0
ENDBLK
  8
0
  0
BLOCK
  8
0
  2
ROUNDP
 70
64
 10
0.0000
 20
0.0000
 30
0.0000
  3
ROUNDP
  0
CIRCLE
  8
0
 10
0.0000
 20
0.0000
 30
0.0000
 40
0.5000
  0
ENDBLK
  8
0
  0
BLOCK
  8
0
  2
ANNULUSP
 70
64
 10
0.0000
 20
0.0000
 30
0.0000
  3
ANNULUSP
  0
CIRCLE
  8
0
 10
0.0000
 20
0.0000
 30
0.0000
 40
0.5000
  0
ENDBLK
  8
0
  0
BLOCK
  8
0
  2
THERMALP
 70
64
 10
0.0000
 20
0.0000
 30
0.0000
  3
THERMALP
  0
POLYLINE
  8
0
 66
1
 10
0.0000
 20
0.0000
 30
0.0000
 40
0.0000
 41
0.0000
 70
1
  0
VERTEX
  8
0
 10
-0.2379
 20
0.4000
 30
0.0000
  0
VERTEX
  8
0
 10
0.2379
 20
0.4000
 30
0.0000
 42
1.0000
  0
VERTEX
  8
0
 10
0.2379
 20
0.5000
 30
0.0000
  0
VERTEX
  8
0
 10
-0.2379
 20
0.5000
 30
0.0000
 42
1.0000
  0
SEQEND
  8
0
  0
POLYLINE
  8
0
 66
1
 10
0.0000
 20
0.0000
 30
0.0000
 40
0.0000
 41
0.0000
 70
1
  0
VERTEX
  8
0
 10
0.4000
 20
0.2379
 30
0.0000
  0
VERTEX
  8
0
 10
0.4000
 20
-0.2379
 30
0.0000
 42
1.0000
  0
VERTEX
  8
0
 10
0.5000
 20
-0.2379
 30
0.0000
  0
VERTEX
  8
0
 10
0.5000
 20
0.2379
 30
0.0000
 42
1.0000
  0
SEQEND
  8
0
  0
POLYLINE
  8
0
 66
1
 10
0.0000
 20
0.0000
 30
0.0000
 40
0.0000
 41
0.0000
 70
1
  0
VERTEX
  8
0
 10
0.2379
 20
-0.4000
 30
0.0000
  0
VERTEX
  8
0
 10
-0.2379
 20
-0.4000
 30
0.0000
 42
1.0000
  0
VERTEX
  8
0
 10
-0.2379
 20
-0.5000
 30
0.0000
  0
VERTEX
  8
0
 10
0.2379
 20
-0.5000
 30
0.0000
 42
1.0000
  0
SEQEND
  8
0
  0
POLYLINE
  8
0
 66
1
 10
0.0000
 20
0.0000
 30
0.0000
 40
0.0000
 41
0.0000
 70
1
  0
VERTEX
  8
0
 10
-0.4000
 20
-0.2379
 30
0.0000
  0
VERTEX
  8
0
 10
-0.4000
 20
0.2379
 30
0.0000
 42
1.0000
  0
VERTEX
  8
0
 10
-0.5000
 20
0.2379
 30
0.0000
  0
VERTEX
  8
0
 10
-0.5000
 20
-0.2379
 30
0.0000
 42
1.0000
  0
SEQEND
  8
0
  0
ENDBLK
  8
0
  0
BLOCK
  8
0
  2
OCTAGONV
 70
64
 10
0.0000
 20
0.0000
 30
0.0000
  3
OCTAGONV
  0
POLYLINE
  8
0
 66
1
 10
0.0000
 20
0.0000
 30
0.0000
 40
0.0000
 41
0.0000
 70
1
  0
VERTEX
  8
0
 10
-0.5000
 20
-0.2071
 30
0.0000
  0
VERTEX
  8
0
 10
-0.5000
 20
0.2071
 30
0.0000
  0
VERTEX
  8
0
 10
-0.2071
 20
0.5000
 30
0.0000
  0
VERTEX
  8
0
 10
0.2071
 20
0.5000
 30
0.0000
  0
VERTEX
  8
0
 10
0.5000
 20
0.2071
 30
0.0000
  0
VERTEX
  8
0
 10
0.5000
 20
-0.2071
 30
0.0000
  0
VERTEX
  8
0
 10
0.2071
 20
-0.5000
 30
0.0000
  0
VERTEX
  8
0
 10
-0.2071
 20
-0.5000
 30
0.0000
  0
SEQEND
  8
0
  0
ENDBLK
  8
0
  0
BLOCK
  8
0
  2
SQUAREV
 70
64
 10
0.0000
 20
0.0000
 30
0.0000
  3
SQUAREV
  0
SOLID
  8
0
 10
-0.5000
 20
-0.5000
 30
0.0000
 11
0.5000
 21
-0.5000
 31
0.0000
 12
-0.5000
 22
0.5000
 32
0.0000
 13
0.5000
 23
0.5000
 33
0.0000
  0
ENDBLK
  8
0
  0
BLOCK
  8
0
  2
ROUNDV
 70
64
 10
0.0000
 20
0.0000
 30
0.0000
  3
ROUNDV
  0
CIRCLE
  8
0
 10
0.0000
 20
0.0000
 30
0.0000
 40
0.5000
  0
ENDBLK
  8
0
  0
BLOCK
  8
0
  2
ANNULUSV
 70
64
 10
0.0000
 20
0.0000
 30
0.0000
  3
ANNULUSV
  0
CIRCLE
  8
0
 10
0.0000
 20
0.0000
 30
0.0000
 40
0.5000
  0
ENDBLK
  8
0
  0
BLOCK
  8
0
  2
THERMALV
 70
64
 10
0.0000
 20
0.0000
 30
0.0000
  3
THERMALV
  0
POLYLINE
  8
0
 66
1
 10
0.0000
 20
0.0000
 30
0.0000
 40
0.0000
 41
0.0000
 70
1
  0
VERTEX
  8
0
 10
-0.2379
 20
0.4000
 30
0.0000
  0
VERTEX
  8
0
 10
0.2379
 20
0.4000
 30
0.0000
 42
1.0000
  0
VERTEX
  8
0
 10
0.2379
 20
0.5000
 30
0.0000
  0
VERTEX
  8
0
 10
-0.2379
 20
0.5000
 30
0.0000
 42
1.0000
  0
SEQEND
  8
0
  0
POLYLINE
  8
0
 66
1
 10
0.0000
 20
0.0000
 30
0.0000
 40
0.0000
 41
0.0000
 70
1
  0
VERTEX
  8
0
 10
0.4000
 20
0.2379
 30
0.0000
  0
VERTEX
  8
0
 10
0.4000
 20
-0.2379
 30
0.0000
 42
1.0000
  0
VERTEX
  8
0
 10
0.5000
 20
-0.2379
 30
0.0000
  0
VERTEX
  8
0
 10
0.5000
 20
0.2379
 30
0.0000
 42
1.0000
  0
SEQEND
  8
0
  0
POLYLINE
  8
0
 66
1
 10
0.0000
 20
0.0000
 30
0.0000
 40
0.0000
 41
0.0000
 70
1
  0
VERTEX
  8
0
 10
0.2379
 20
-0.4000
 30
0.0000
  0
VERTEX
  8
0
 10
-0.2379
 20
-0.4000
 30
0.0000
 42
1.0000
  0
VERTEX
  8
0
 10
-0.2379
 20
-0.5000
 30
0.0000
  0
VERTEX
  8
0
 10
0.2379
 20
-0.5000
 30
0.0000
 42
1.0000
  0
SEQEND
  8
0
  0
POLYLINE
  8
0
 66
1
 10
0.0000
 20
0.0000
 30
0.0000
 40
0.0000
 41
0.0000
 70
1
  0
VERTEX
  8
0
 10
-0.4000
 20
-0.2379
 30
0.0000
  0
VERTEX
  8
0
 10
-0.4000
 20
0.2379
 30
0.0000
 42
1.0000
  0
VERTEX
  8
0
 10
-0.5000
 20
0.2379
 30
0.0000
  0
VERTEX
  8
0
 10
-0.5000
 20
-0.2379
 30
0.0000
 42
1.0000
  0
SEQEND
  8
0
  0
ENDBLK
  8
0
  0
BLOCK
  8
0
  2
OFFSETP100
 70
64
 10
0.0000
 20
0.0000
 30
0.0000
  3
OFFSETP100
  0
POLYLINE
  8
0
 66
1
 10
0.0000
 20
0.0000
 30
0.0000
 40
0.0000
 41
0.0000
 70
1
  0
VERTEX
  8
0
 10
0.0000
 20
-0.5000
 30
0.0000
  0
VERTEX
  8
0
 10
1.0000
 20
-0.5000
 30
0.0000
 42
1.0000
  0
VERTEX
  8
0
 10
1.0000
 20
0.5000
 30
0.0000
  0
VERTEX
  8
0
 10
0.0000
 20
0.5000
 30
0.0000
 42
1.0000
  0
SEQEND
  8
0
  0
ENDBLK
  8
0
  0
BLOCK
  8
0
  2
LONGP100
 70
64
 10
0.0000
 20
0.0000
 30
0.0000
  3
LONGP100
  0
POLYLINE
  8
0
 66
1
 10
0.0000
 20
0.0000
 30
0.0000
 40
0.0000
 41
0.0000
 70
1
  0
VERTEX
  8
0
 10
-0.5000
 20
-0.5000
 30
0.0000
  0
VERTEX
  8
0
 10
0.5000
 20
-0.5000
 30
0.0000
 42
1.0000
  0
VERTEX
  8
0
 10
0.5000
 20
0.5000
 30
0.0000
  0
VERTEX
  8
0
 10
-0.5000
 20
0.5000
 30
0.0000
 42
1.0000
  0
SEQEND
  8
0
  0
ENDBLK
  8
0
  0
ENDSEC
  0
SECTION
  2
ENTITIES
  0
POLYLINE
  8
20
 66
1
 10
0.0000
 20
0.0000
 30
0.0000
 40
0.0000
 41
0.0000
 70
1
  0
VERTEX
  8
20
 10
0.0000
 20
67.0476
 30
0.0000
  0
VERTEX
  8
20
 10
98.0000
 20
67.0476
 30
0.0000
 42
1.0000
  0
VERTEX
  8
20
 10
98.0000
 20
67.3524
 30
0.0000
  0
VERTEX
  8
20
 10
0.0000
 20
67.3524
 30
0.0000
 42
1.0000
  0
SEQEND
  8
0
  0
POLYLINE
  8
20
 66
1
 10
0.0000
 20
0.0000
 30
0.0000
 40
0.0000
 41
0.0000
 70
1
  0
VERTEX
  8
20
 10
97.8476
 20
67.2000
 30
0.0000
  0
VERTEX
  8
20
 10
97.8476
 20
6.2000
 30
0.0000
 42
1.0000
  0
VERTEX
  8
20
 10
98.1524
 20
6.2000
 30
0.0000
  0
VERTEX
  8
20
 10
98.1524
 20
67.2000
 30
0.0000
 42
1.0000
  0
SEQEND
  8
0
  0
POLYLINE
  8
20
 66
1
 10
0.0000
 20
0.0000
 30
0.0000
 40
0.0000
 41
0.0000
 70
1
  0
VERTEX
  8
20
 10
91.8000
 20
0.1524
 30
0.0000
 42
1.0000
  0
VERTEX
  8
20
 10
91.8000
 20
-0.1524
 30
0.0000
 42
0.4142
  0
VERTEX
  8
20
 10
98.1524
 20
6.2000
 30
0.0000
 42
1.0000
  0
VERTEX
  8
20
 10
97.8476
 20
6.2000
 30
0.0000
 42
-0.4142
  0
SEQEND
  8
0
  0
POLYLINE
  8
20
 66
1
 10
0.0000
 20
0.0000
 30
0.0000
 40
0.0000
 41
0.0000
 70
1
  0
VERTEX
  8
20
 10
0.1524
 20
6.2000
 30
0.0000
 42
1.0000
  0
VERTEX
  8
20
 10
-0.1524
 20
6.2000
 30
0.0000
 42
0.4142
  0
VERTEX
  8
20
 10
6.2000
 20
-0.1524
 30
0.0000
 42
1.0000
  0
VERTEX
  8
20
 10
6.2000
 20
0.1524
 30
0.0000
 42
-0.4142
  0
SEQEND
  8
0
  0
POLYLINE
  8
20
 66
1
 10
0.0000
 20
0.0000
 30
0.0000
 40
0.0000
 41
0.0000
 70
1
  0
VERTEX
  8
20
 10
6.2000
 20
-0.1524
 30
0.0000
  0
VERTEX
  8
20
 10
91.8000
 20
-0.1524
 30
0.0000
 42
1.0000
  0
VERTEX
  8
20
 10
91.8000
 20
0.1524
 30
0.0000
  0
VERTEX
  8
20
 10
6.2000
 20
0.1524
 30
0.0000
 42
1.0000
  0
SEQEND
  8
0
  0
POLYLINE
  8
20
 66
1
 10
0.0000
 20
0.0000
 30
0.0000
 40
0.0000
 41
0.0000
 70
1
  0
VERTEX
  8
20
 10
0.1524
 20
6.2000
 30
0.0000
  0
VERTEX
  8
20
 10
0.1524
 20
67.2000
 30
0.0000
 42
1.0000
  0
VERTEX
  8
20
 10
-0.1524
 20
67.2000
 30
0.0000
  0
VERTEX
  8
20
 10
-0.1524
 20
6.2000
 30
0.0000
 42
1.0000
  0
SEQEND
  8
0
  0
POLYLINE
  8
21
 66
1
 10
0.0000
 20
0.0000
 30
0.0000
 40
0.0000
 41
0.0000
 70
1
  0
VERTEX
  8
21
 10
66.0700
 20
14.8765
 30
0.0000
  0
VERTEX
  8
21
 10
69.7700
 20
14.8765
 30
0.0000
 42
1.0000
  0
VERTEX
  8
21
 10
69.7700
 20
15.0035
 30
0.0000
  0
VERTEX
  8
21
 10
66.0700
 20
15.0035
 30
0.0000
 42
1.0000
  0
SEQEND
  8
0
  0
POLYLINE
  8
21
 66
1
 10
0.0000
 20
0.0000
 30
0.0000
 40
0.0000
 41
0.0000
 70
1
  0
VERTEX
  8
21
 10
66.0065
 20
22.9400
 30
0.0000
  0
VERTEX
  8
21
 10
66.0065
 20
14.9400
 30
0.0000
 42
1.0000
  0
VERTEX
  8
21
 10
66.1335
 20
14.9400
 30
0.0000
  0
VERTEX
  8
21
 10
66.1335
 20
22.9400
 30
0.0000
 42
1.0000
  0
SEQEND
  8
0
  0
POLYLINE
  8
21
 66
1
 10
0.0000
 20
0.0000
 30
0.0000
 40
0.0000
 41
0.0000
 70
1
  0
VERTEX
  8
21
 10
66.0700
 20
22.8765
 30
0.0000
  0
VERTEX
  8
21
 10
69.7700
 20
22.8765
 30
0.0000
 42
1.0000
  0
VERTEX
  8
21
 10
69.7700
 20
23.0035
 30
0.0000
  0
VERTEX
  8
21
 10
66.0700
 20
23.0035
 30
0.0000
 42
1.0000
  0
SEQEND
  8
0
  0
POLYLINE
  8
21
 66
1
 10
0.0000
 20
0.0000
 30
0.0000
 40
0.0000
 41
0.0000
 70
1
  0
VERTEX
  8
21
 10
69.8293
 20
14.9627
 30
0.0000
 42
1.0000
  0
VERTEX
  8
21
 10
69.7107
 20
14.9173
 30
0.0000
 42
5.4004
  0
VERTEX
  8
21
 10
69.7107
 20
22.9627
 30
0.0000
 42
1.0000
  0
VERTEX
  8
21
 10
69.8293
 20
22.9173
 30
0.0000
 42
-5.4004
  0
SEQEND
  8
0
  0
INSERT
  8
17
  2
OFFSETP100
 10
67.5700
 20
18.9400
 30
0.0000
 41
1.5080
 42
1.5080
 43
1.0000
 50
0.0000
  0
INSERT
  8
17
  2
OFFSETP100
 10
67.5700
 20
18.9400
 30
0.0000
 41
1.5080
 42
1.5080
 43
1.0000
 50
0.0000
  0
INSERT
  8
17
  2
LONGP100
 10
88.5700
 20
18.9400
 30
0.0000
 41
1.5080
 42
1.5080
 43
1.0000
 50
0.0000
  0
INSERT
  8
17
  2
LONGP100
 10
88.5700
 20
18.9400
 30
0.0000
 41
1.5080
 42
1.5080
 43
1.0000
 50
0.0000
  0
POLYLINE
  8
21
 66
1
 10
0.0000
 20
0.0000
 30
0.0000
 40
0.0000
 41
0.0000
 70
1
  0
VERTEX
  8
21
 10
80.0550
 20
22.5216
 30
0.0000
  0
VERTEX
  8
21
 10
77.9950
 20
22.5216
 30
0.0000
 42
1.0000
  0
VERTEX
  8
21
 10
77.9950
 20
22.3184
 30
0.0000
  0
VERTEX
  8
21
 10
80.0550
 20
22.3184
 30
0.0000
 42
1.0000
  0
SEQEND
  8
0
  0
POLYLINE
  8
21
 66
1
 10
0.0000
 20
0.0000
 30
0.0000
 40
0.0000
 41
0.0000
 70
1
  0
VERTEX
  8
21
 10
77.9950
 20
24.9184
 30
0.0000
  0
VERTEX
  8
21
 10
80.0550
 20
24.9184
 30
0.0000
 42
1.0000
  0
VERTEX
  8
21
 10
80.0550
 20
25.1216
 30
0.0000
  0
VERTEX
  8
21
 10
77.9950
 20
25.1216
 30
0.0000
 42
1.0000
  0
SEQEND
  8
0
  0
INSERT
  8
21
  2
RECT
 10
79.7475
 20
23.7200
 30
0.0000
 41
0.6750
 42
2.4500
 43
1.0000
 50
180.0000
  0
POLYLINE
  8
21
 66
1
 10
0.0000
 20
0.0000
 30
0.0000
 40
0.0000
 41
0.0000
 70
1
  0
VERTEX
  8
21
 10
-0.0025
 20
7.0580
 30
0.0000
  0
VERTEX
  8
21
 10
97.9975
 20
7.0580
 30
0.0000
 42
1.0000
  0
VERTEX
  8
21
 10
97.9975
 20
7.1850
 30
0.0000
  0
VERTEX
  8
21
 10
-0.0025
 20
7.1850
 30
0.0000
 42
1.0000
  0
SEQEND
  8
0
  0
POLYLINE
  8
21
 66
1
 10
0.0000
 20
0.0000
 30
0.0000
 40
0.0000
 41
0.0000
 70
1
  0
VERTEX
  8
21
 10
98.0610
 20
7.1215
 30
0.0000
  0
VERTEX
  8
21
 10
98.0610
 20
67.1215
 30
0.0000
 42
1.0000
  0
VERTEX
  8
21
 10
97.9340
 20
67.1215
 30
0.0000
  0
VERTEX
  8
21
 10
97.9340
 20
7.1215
 30
0.0000
 42
1.0000
  0
SEQEND
  8
0
  0
POLYLINE
  8
21
 66
1
 10
0.0000
 20
0.0000
 30
0.0000
 40
0.0000
 41
0.0000
 70
1
  0
VERTEX
  8
21
 10
97.9975
 20
67.1850
 30
0.0000
  0
VERTEX
  8
21
 10
-0.0025
 20
67.1850
 30
0.0000
 42
1.0000
  0
VERTEX
  8
21
 10
-0.0025
 20
67.0580
 30
0.0000
  0
VERTEX
  8
21
 10
97.9975
 20
67.0580
 30
0.0000
 42
1.0000
  0
SEQEND
  8
0
  0
POLYLINE
  8
21
 66
1
 10
0.0000
 20
0.0000
 30
0.0000
 40
0.0000
 41
0.0000
 70
1
  0
VERTEX
  8
21
 10
-0.0660
 20
67.1215
 30
0.0000
  0
VERTEX
  8
21
 10
-0.0660
 20
7.1215
 30
0.0000
 42
1.0000
  0
VERTEX
  8
21
 10
0.0610
 20
7.1215
 30
0.0000
  0
VERTEX
  8
21
 10
0.0610
 20
67.1215
 30
0.0000
 42
1.0000
  0
SEQEND
  8
0
  0
POLYLINE
  8
21
 66
1
 10
0.0000
 20
0.0000
 30
0.0000
 40
0.0000
 41
0.0000
 70
1
  0
VERTEX
  8
21
 10
10.9975
 20
49.5580
 30
0.0000
  0
VERTEX
  8
21
 10
13.5764
 20
49.5580
 30
0.0000
 42
1.0000
  0
VERTEX
  8
21
 10
13.5764
 20
49.6850
 30
0.0000
  0
VERTEX
  8
21
 10
10.9975
 20
49.6850
 30
0.0000
 42
1.0000
  0
SEQEND
  8
0
  0
POLYLINE
  8
21
 66
1
 10
0.0000
 20
0.0000
 30
0.0000
 40
0.0000
 41
0.0000
 70
1
  0
VERTEX
  8
21
 10
14.2578
 20
49.5580
 30
0.0000
  0
VERTEX
  8
21
 10
14.3951
 20
49.5580
 30
0.0000
 42
1.0000
  0
VERTEX
  8
21
 10
14.3951
 20
49.6850
 30
0.0000
  0
VERTEX
  8
21
 10
14.2578
 20
49.6850
 30
0.0000
 42
1.0000
  0
SEQEND
  8
0
  0
POLYLINE
  8
21
 66
1
 10
0.0000
 20
0.0000
 30
0.0000
 40
0.0000
 41
0.0000
 70
1
  0
VERTEX
  8
21
 10
15.0764
 20
49.5580
 30
0.0000
  0
VERTEX
  8
21
 10
17.6554
 20
49.5580
 30
0.0000
 42
1.0000
  0
VERTEX
  8
21
 10
17.6554
 20
49.6850
 30
0.0000
  0
VERTEX
  8
21
 10
15.0764
 20
49.6850
 30
0.0000
 42
1.0000
  0
SEQEND
  8
0
  0
POLYLINE
  8
21
 66
1
 10
0.0000
 20
0.0000
 30
0.0000
 40
0.0000
 41
0.0000
 70
1
  0
VERTEX
  8
21
 10
18.3367
 20
49.5580
 30
0.0000
  0
VERTEX
  8
21
 10
18.4740
 20
49.5580
 30
0.0000
 42
1.0000
  0
VERTEX
  8
21
 10
18.4740
 20
49.6850
 30
0.0000
  0
VERTEX
  8
21
 10
18.3367
 20
49.6850
 30
0.0000
 42
1.0000
  0
SEQEND
  8
0
  0
POLYLINE
  8
21
 66
1
 10
0.0000
 20
0.0000
 30
0.0000
 40
0.0000
 41
0.0000
 70
1
  0
VERTEX
  8
21
 10
19.1554
 20
49.5580
 30
0.0000
  0
VERTEX
  8
21
 10
21.7343
 20
49.5580
 30
0.0000
 42
1.0000
  0
VERTEX
  8
21
 10
21.7343
 20
49.6850
 30
0.0000
  0
VERTEX
  8
21
 10
19.1554
 20
49.6850
 30
0.0000
 42
1.0000
  0
SEQEND
  8
0
  0
POLYLINE
  8
21
 66
1
 10
0.0000
 20
0.0000
 30
0.0000
 40
0.0000
 41
0.0000
 70
1
  0
VERTEX
  8
21
 10
22.4157
 20
49.5580
 30
0.0000
  0
VERTEX
  8
21
 10
22.5530
 20
49.5580
 30
0.0000
 42
1.0000
  0
VERTEX
  8
21
 10
22.5530
 20
49.6850
 30
0.0000
  0
VERTEX
  8
21
 10
22.4157
 20
49.6850
 30
0.0000
 42
1.0000
  0
SEQEND
  8
0
  0
POLYLINE
  8
21
 66
1
 10
0.0000
 20
0.0000
 30
0.0000
 40
0.0000
 41
0.0000
 70
1
  0
VERTEX
  8
21
 10
23.2343
 20
49.5580
 30
0.0000
  0
VERTEX
  8
21
 10
25.8133
 20
49.5580
 30
0.0000
 42
1.0000
  0
VERTEX
  8
21
 10
25.8133
 20
49.6850
 30
0.0000
  0
VERTEX
  8
21
 10
23.2343
 20
49.6850
 30
0.0000
 42
1.0000
  0
SEQEND
  8
0
  0
POLYLINE
  8
21
 66
1
 10
0.0000
 20
0.0000
 30
0.0000
 40
0.0000
 41
0.0000
 70
1
  0
VERTEX
  8
21
 10
26.4946
 20
49.5580
 30
0.0000
  0
VERTEX
  8
21
 10
26.6319
 20
49.5580
 30
0.0000
 42
1.0000
  0
VERTEX
  8
21
 10
26.6319
 20
49.6850
 30
0.0000
  0
VERTEX
  8
21
 10
26.4946
 20
49.6850
 30
0.0000
 42
1.0000
  0
SEQEND
  8
0
  0
POLYLINE
  8
21
 66
1
 10
0.0000
 20
0.0000
 30
0.0000
 40
0.0000
 41
0.0000
 70
1
  0
VERTEX
  8
21
 10
27.3133
 20
49.5580
 30
0.0000
  0
VERTEX
  8
21
 10
29.8922
 20
49.5580
 30
0.0000
 42
1.0000
  0
VERTEX
  8
21
 10
29.8922
 20
49.6850
 30
0.0000
  0
VERTEX
  8
21
 10
27.3133
 20
49.6850
 30
0.0000
 42
1.0000
  0
SEQEND
  8
0
  0
POLYLINE
  8
21
 66
1
 10
0.0000
 20
0.0000
 30
0.0000
 40
0.0000
 41
0.0000
 70
1
  0
VERTEX
  8
21
 10
30.5736
 20
49.5580
 30
0.0000
  0
VERTEX
  8
21
 10
30.7109
 20
49.5580
 30
0.0000
 42
1.0000
  0
VERTEX
  8
21
 10
30.7109
 20
49.6850
 30
0.0000
  0
VERTEX
  8
21
 10
30.5736
 20
49.6850
 30
0.0000
 42
1.0000
  0
SEQEND
  8
0
  0
POLYLINE
  8
21
 66
1
 10
0.0000
 20
0.0000
 30
0.0000
 40
0.0000
 41
0.0000
 70
1
  0
VERTEX
  8
21
 10
31.3922
 20
49.5580
 30
0.0000
  0
VERTEX
  8
21
 10
33.9712
 20
49.5580
 30
0.0000
 42
1.0000
  0
VERTEX
  8
21
 10
33.9712
 20
49.6850
 30
0.0000
  0
VERTEX
  8
21
 10
31.3922
 20
49.6850
 30
0.0000
 42
1.0000
  0
SEQEND
  8
0
  0
POLYLINE
  8
21
 66
1
 10
0.0000
 20
0.0000
 30
0.0000
 40
0.0000
 41
0.0000
 70
1
  0
VERTEX
  8
21
 10
34.6525
 20
49.5580
 30
0.0000
  0
VERTEX
  8
21
 10
34.7898
 20
49.5580
 30
0.0000
 42
1.0000
  0
VERTEX
  8
21
 10
34.7898
 20
49.6850
 30
0.0000
  0
VERTEX
  8
21
 10
34.6525
 20
49.6850
 30
0.0000
 42
1.0000
  0
SEQEND
  8
0
  0
POLYLINE
  8
21
 66
1
 10
0.0000
 20
0.0000
 30
0.0000
 40
0.0000
 41
0.0000
 70
1
  0
VERTEX
  8
21
 10
35.4712
 20
49.5580
 30
0.0000
  0
VERTEX
  8
21
 10
38.0501
 20
49.5580
 30
0.0000
 42
1.0000
  0
VERTEX
  8
21
 10
38.0501
 20
49.6850
 30
0.0000
  0
VERTEX
  8
21
 10
35.4712
 20
49.6850
 30
0.0000
 42
1.0000
  0
SEQEND
  8
0
  0
POLYLINE
  8
21
 66
1
 10
0.0000
 20
0.0000
 30
0.0000
 40
0.0000
 41
0.0000
 70
1
  0
VERTEX
  8
21
 10
38.7315
 20
49.5580
 30
0.0000
  0
VERTEX
  8
21
 10
38.8688
 20
49.5580
 30
0.0000
 42
1.0000
  0
VERTEX
  8
21
 10
38.8688
 20
49.6850
 30
0.0000
  0
VERTEX
  8
21
 10
38.7315
 20
49.6850
 30
0.0000
 42
1.0000
  0
SEQEND
  8
0
  0
POLYLINE
  8
21
 66
1
 10
0.0000
 20
0.0000
 30
0.0000
 40
0.0000
 41
0.0000
 70
1
  0
VERTEX
  8
21
 10
39.5501
 20
49.5580
 30
0.0000
  0
VERTEX
  8
21
 10
42.1291
 20
49.5580
 30
0.0000
 42
1.0000
  0
VERTEX
  8
21
 10
42.1291
 20
49.6850
 30
0.0000
  0
VERTEX
  8
21
 10
39.5501
 20
49.6850
 30
0.0000
 42
1.0000
  0
SEQEND
  8
0
  0
POLYLINE
  8
21
 66
1
 10
0.0000
 20
0.0000
 30
0.0000
 40
0.0000
 41
0.0000
 70
1
  0
VERTEX
  8
21
 10
42.8104
 20
49.5580
 30
0.0000
  0
VERTEX
  8
21
 10
42.9477
 20
49.5580
 30
0.0000
 42
1.0000
  0
VERTEX
  8
21
 10
42.9477
 20
49.6850
 30
0.0000
  0
VERTEX
  8
21
 10
42.8104
 20
49.6850
 30
0.0000
 42
1.0000
  0
SEQEND
  8
0
  0
POLYLINE
  8
21
 66
1
 10
0.0000
 20
0.0000
 30
0.0000
 40
0.0000
 41
0.0000
 70
1
  0
VERTEX
  8
21
 10
43.6291
 20
49.5580
 30
0.0000
  0
VERTEX
  8
21
 10
46.2080
 20
49.5580
 30
0.0000
 42
1.0000
  0
VERTEX
  8
21
 10
46.2080
 20
49.6850
 30
0.0000
  0
VERTEX
  8
21
 10
43.6291
 20
49.6850
 30
0.0000
 42
1.0000
  0
SEQEND
  8
0
  0
POLYLINE
  8
21
 66
1
 10
0.0000
 20
0.0000
 30
0.0000
 40
0.0000
 41
0.0000
 70
1
  0
VERTEX
  8
21
 10
46.8894
 20
49.5580
 30
0.0000
  0
VERTEX
  8
21
 10
47.0267
 20
49.5580
 30
0.0000
 42
1.0000
  0
VERTEX
  8
21
 10
47.0267
 20
49.6850
 30
0.0000
  0
VERTEX
  8
21
 10
46.8894
 20
49.6850
 30
0.0000
 42
1.0000
  0
SEQEND
  8
0
  0
POLYLINE
  8
21
 66
1
 10
0.0000
 20
0.0000
 30
0.0000
 40
0.0000
 41
0.0000
 70
1
  0
VERTEX
  8
21
 10
47.7080
 20
49.5580
 30
0.0000
  0
VERTEX
  8
21
 10
50.2870
 20
49.5580
 30
0.0000
 42
1.0000
  0
VERTEX
  8
21
 10
50.2870
 20
49.6850
 30
0.0000
  0
VERTEX
  8
21
 10
47.7080
 20
49.6850
 30
0.0000
 42
1.0000
  0
SEQEND
  8
0
  0
POLYLINE
  8
21
 66
1
 10
0.0000
 20
0.0000
 30
0.0000
 40
0.0000
 41
0.0000
 70
1
  0
VERTEX
  8
21
 10
50.9683
 20
49.5580
 30
0.0000
  0
VERTEX
  8
21
 10
51.1056
 20
49.5580
 30
0.0000
 42
1.0000
  0
VERTEX
  8
21
 10
51.1056
 20
49.6850
 30
0.0000
  0
VERTEX
  8
21
 10
50.9683
 20
49.6850
 30
0.0000
 42
1.0000
  0
SEQEND
  8
0
  0
POLYLINE
  8
21
 66
1
 10
0.0000
 20
0.0000
 30
0.0000
 40
0.0000
 41
0.0000
 70
1
  0
VERTEX
  8
21
 10
51.7870
 20
49.5580
 30
0.0000
  0
VERTEX
  8
21
 10
54.3659
 20
49.5580
 30
0.0000
 42
1.0000
  0
VERTEX
  8
21
 10
54.3659
 20
49.6850
 30
0.0000
  0
VERTEX
  8
21
 10
51.7870
 20
49.6850
 30
0.0000
 42
1.0000
  0
SEQEND
  8
0
  0
POLYLINE
  8
21
 66
1
 10
0.0000
 20
0.0000
 30
0.0000
 40
0.0000
 41
0.0000
 70
1
  0
VERTEX
  8
21
 10
55.0473
 20
49.5580
 30
0.0000
  0
VERTEX
  8
21
 10
55.1846
 20
49.5580
 30
0.0000
 42
1.0000
  0
VERTEX
  8
21
 10
55.1846
 20
49.6850
 30
0.0000
  0
VERTEX
  8
21
 10
55.0473
 20
49.6850
 30
0.0000
 42
1.0000
  0
SEQEND
  8
0
  0
POLYLINE
  8
21
 66
1
 10
0.0000
 20
0.0000
 30
0.0000
 40
0.0000
 41
0.0000
 70
1
  0
VERTEX
  8
21
 10
55.8659
 20
49.5580
 30
0.0000
  0
VERTEX
  8
21
 10
58.4449
 20
49.5580
 30
0.0000
 42
1.0000
  0
VERTEX
  8
21
 10
58.4449
 20
49.6850
 30
0.0000
  0
VERTEX
  8
21
 10
55.8659
 20
49.6850
 30
0.0000
 42
1.0000
  0
SEQEND
  8
0
  0
POLYLINE
  8
21
 66
1
 10
0.0000
 20
0.0000
 30
0.0000
 40
0.0000
 41
0.0000
 70
1
  0
VERTEX
  8
21
 10
59.1262
 20
49.5580
 30
0.0000
  0
VERTEX
  8
21
 10
59.2635
 20
49.5580
 30
0.0000
 42
1.0000
  0
VERTEX
  8
21
 10
59.2635
 20
49.6850
 30
0.0000
  0
VERTEX
  8
21
 10
59.1262
 20
49.6850
 30
0.0000
 42
1.0000
  0
SEQEND
  8
0
  0
POLYLINE
  8
21
 66
1
 10
0.0000
 20
0.0000
 30
0.0000
 40
0.0000
 41
0.0000
 70
1
  0
VERTEX
  8
21
 10
59.9449
 20
49.5580
 30
0.0000
  0
VERTEX
  8
21
 10
62.5238
 20
49.5580
 30
0.0000
 42
1.0000
  0
VERTEX
  8
21
 10
62.5238
 20
49.6850
 30
0.0000
  0
VERTEX
  8
21
 10
59.9449
 20
49.6850
 30
0.0000
 42
1.0000
  0
SEQEND
  8
0
  0
POLYLINE
  8
21
 66
1
 10
0.0000
 20
0.0000
 30
0.0000
 40
0.0000
 41
0.0000
 70
1
  0
VERTEX
  8
21
 10
63.2052
 20
49.5580
 30
0.0000
  0
VERTEX
  8
21
 10
63.3425
 20
49.5580
 30
0.0000
 42
1.0000
  0
VERTEX
  8
21
 10
63.3425
 20
49.6850
 30
0.0000
  0
VERTEX
  8
21
 10
63.2052
 20
49.6850
 30
0.0000
 42
1.0000
  0
SEQEND
  8
0
  0
POLYLINE
  8
21
 66
1
 10
0.0000
 20
0.0000
 30
0.0000
 40
0.0000
 41
0.0000
 70
1
  0
VERTEX
  8
21
 10
64.0238
 20
49.5580
 30
0.0000
  0
VERTEX
  8
21
 10
66.6028
 20
49.5580
 30
0.0000
 42
1.0000
  0
VERTEX
  8
21
 10
66.6028
 20
49.6850
 30
0.0000
  0
VERTEX
  8
21
 10
64.0238
 20
49.6850
 30
0.0000
 42
1.0000
  0
SEQEND
  8
0
  0
POLYLINE
  8
21
 66
1
 10
0.0000
 20
0.0000
 30
0.0000
 40
0.0000
 41
0.0000
 70
1
  0
VERTEX
  8
21
 10
67.2841
 20
49.5580
 30
0.0000
  0
VERTEX
  8
21
 10
67.4214
 20
49.5580
 30
0.0000
 42
1.0000
  0
VERTEX
  8
21
 10
67.4214
 20
49.6850
 30
0.0000
  0
VERTEX
  8
21
 10
67.2841
 20
49.6850
 30
0.0000
 42
1.0000
  0
SEQEND
  8
0
  0
POLYLINE
  8
21
 66
1
 10
0.0000
 20
0.0000
 30
0.0000
 40
0.0000
 41
0.0000
 70
1
  0
VERTEX
  8
21
 10
68.1028
 20
49.5580
 30
0.0000
  0
VERTEX
  8
21
 10
70.6817
 20
49.5580
 30
0.0000
 42
1.0000
  0
VERTEX
  8
21
 10
70.6817
 20
49.6850
 30
0.0000
  0
VERTEX
  8
21
 10
68.1028
 20
49.6850
 30
0.0000
 42
1.0000
  0
SEQEND
  8
0
  0
POLYLINE
  8
21
 66
1
 10
0.0000
 20
0.0000
 30
0.0000
 40
0.0000
 41
0.0000
 70
1
  0
VERTEX
  8
21
 10
71.3631
 20
49.5580
 30
0.0000
  0
VERTEX
  8
21
 10
71.5004
 20
49.5580
 30
0.0000
 42
1.0000
  0
VERTEX
  8
21
 10
71.5004
 20
49.6850
 30
0.0000
  0
VERTEX
  8
21
 10
71.3631
 20
49.6850
 30
0.0000
 42
1.0000
  0
SEQEND
  8
0
  0
POLYLINE
  8
21
 66
1
 10
0.0000
 20
0.0000
 30
0.0000
 40
0.0000
 41
0.0000
 70
1
  0
VERTEX
  8
21
 10
72.1817
 20
49.5580
 30
0.0000
  0
VERTEX
  8
21
 10
74.7607
 20
49.5580
 30
0.0000
 42
1.0000
  0
VERTEX
  8
21
 10
74.7607
 20
49.6850
 30
0.0000
  0
VERTEX
  8
21
 10
72.1817
 20
49.6850
 30
0.0000
 42
1.0000
  0
SEQEND
  8
0
  0
POLYLINE
  8
21
 66
1
 10
0.0000
 20
0.0000
 30
0.0000
 40
0.0000
 41
0.0000
 70
1
  0
VERTEX
  8
21
 10
75.4420
 20
49.5580
 30
0.0000
  0
VERTEX
  8
21
 10
75.5793
 20
49.5580
 30
0.0000
 42
1.0000
  0
VERTEX
  8
21
 10
75.5793
 20
49.6850
 30
0.0000
  0
VERTEX
  8
21
 10
75.4420
 20
49.6850
 30
0.0000
 42
1.0000
  0
SEQEND
  8
0
  0
POLYLINE
  8
21
 66
1
 10
0.0000
 20
0.0000
 30
0.0000
 40
0.0000
 41
0.0000
 70
1
  0
VERTEX
  8
21
 10
76.2607
 20
49.5580
 30
0.0000
  0
VERTEX
  8
21
 10
78.8396
 20
49.5580
 30
0.0000
 42
1.0000
  0
VERTEX
  8
21
 10
78.8396
 20
49.6850
 30
0.0000
  0
VERTEX
  8
21
 10
76.2607
 20
49.6850
 30
0.0000
 42
1.0000
  0
SEQEND
  8
0
  0
POLYLINE
  8
21
 66
1
 10
0.0000
 20
0.0000
 30
0.0000
 40
0.0000
 41
0.0000
 70
1
  0
VERTEX
  8
21
 10
79.5210
 20
49.5580
 30
0.0000
  0
VERTEX
  8
21
 10
79.6583
 20
49.5580
 30
0.0000
 42
1.0000
  0
VERTEX
  8
21
 10
79.6583
 20
49.6850
 30
0.0000
  0
VERTEX
  8
21
 10
79.5210
 20
49.6850
 30
0.0000
 42
1.0000
  0
SEQEND
  8
0
  0
POLYLINE
  8
21
 66
1
 10
0.0000
 20
0.0000
 30
0.0000
 40
0.0000
 41
0.0000
 70
1
  0
VERTEX
  8
21
 10
80.3396
 20
49.5580
 30
0.0000
  0
VERTEX
  8
21
 10
82.9186
 20
49.5580
 30
0.0000
 42
1.0000
  0
VERTEX
  8
21
 10
82.9186
 20
49.6850
 30
0.0000
  0
VERTEX
  8
21
 10
80.3396
 20
49.6850
 30
0.0000
 42
1.0000
  0
SEQEND
  8
0
  0
POLYLINE
  8
21
 66
1
 10
0.0000
 20
0.0000
 30
0.0000
 40
0.0000
 41
0.0000
 70
1
  0
VERTEX
  8
21
 10
83.5999
 20
49.5580
 30
0.0000
  0
VERTEX
  8
21
 10
83.7372
 20
49.5580
 30
0.0000
 42
1.0000
  0
VERTEX
  8
21
 10
83.7372
 20
49.6850
 30
0.0000
  0
VERTEX
  8
21
 10
83.5999
 20
49.6850
 30
0.0000
 42
1.0000
  0
SEQEND
  8
0
  0
POLYLINE
  8
21
 66
1
 10
0.0000
 20
0.0000
 30
0.0000
 40
0.0000
 41
0.0000
 70
1
  0
VERTEX
  8
21
 10
84.4186
 20
49.5580
 30
0.0000
  0
VERTEX
  8
21
 10
86.9975
 20
49.5580
 30
0.0000
 42
1.0000
  0
VERTEX
  8
21
 10
86.9975
 20
49.6850
 30
0.0000
  0
VERTEX
  8
21
 10
84.4186
 20
49.6850
 30
0.0000
 42
1.0000
  0
SEQEND
  8
0
  0
POLYLINE
  8
21
 66
1
 10
0.0000
 20
0.0000
 30
0.0000
 40
0.0000
 41
0.0000
 70
1
  0
VERTEX
  8
21
 10
86.9340
 20
49.6215
 30
0.0000
  0
VERTEX
  8
21
 10
86.9340
 20
48.1215
 30
0.0000
 42
1.0000
  0
VERTEX
  8
21
 10
87.0610
 20
48.1215
 30
0.0000
  0
VERTEX
  8
21
 10
87.0610
 20
49.6215
 30
0.0000
 42
1.0000
  0
SEQEND
  8
0
  0
POLYLINE
  8
21
 66
1
 10
0.0000
 20
0.0000
 30
0.0000
 40
0.0000
 41
0.0000
 70
1
  0
VERTEX
  8
21
 10
10.9340
 20
49.6215
 30
0.0000
  0
VERTEX
  8
21
 10
10.9340
 20
46.7048
 30
0.0000
 42
1.0000
  0
VERTEX
  8
21
 10
11.0610
 20
46.7048
 30
0.0000
  0
VERTEX
  8
21
 10
11.0610
 20
49.6215
 30
0.0000
 42
1.0000
  0
SEQEND
  8
0
  0
POLYLINE
  8
21
 66
1
 10
0.0000
 20
0.0000
 30
0.0000
 40
0.0000
 41
0.0000
 70
1
  0
VERTEX
  8
21
 10
10.9340
 20
46.0235
 30
0.0000
  0
VERTEX
  8
21
 10
10.9340
 20
45.8862
 30
0.0000
 42
1.0000
  0
VERTEX
  8
21
 10
11.0610
 20
45.8862
 30
0.0000
  0
VERTEX
  8
21
 10
11.0610
 20
46.0235
 30
0.0000
 42
1.0000
  0
SEQEND
  8
0
  0
POLYLINE
  8
21
 66
1
 10
0.0000
 20
0.0000
 30
0.0000
 40
0.0000
 41
0.0000
 70
1
  0
VERTEX
  8
21
 10
10.9340
 20
45.2048
 30
0.0000
  0
VERTEX
  8
21
 10
10.9340
 20
42.2882
 30
0.0000
 42
1.0000
  0
VERTEX
  8
21
 10
11.0610
 20
42.2882
 30
0.0000
  0
VERTEX
  8
21
 10
11.0610
 20
45.2048
 30
0.0000
 42
1.0000
  0
SEQEND
  8
0
  0
POLYLINE
  8
21
 66
1
 10
0.0000
 20
0.0000
 30
0.0000
 40
0.0000
 41
0.0000
 70
1
  0
VERTEX
  8
21
 10
10.9340
 20
41.6068
 30
0.0000
  0
VERTEX
  8
21
 10
10.9340
 20
41.4695
 30
0.0000
 42
1.0000
  0
VERTEX
  8
21
 10
11.0610
 20
41.4695
 30
0.0000
  0
VERTEX
  8
21
 10
11.0610
 20
41.6068
 30
0.0000
 42
1.0000
  0
SEQEND
  8
0
  0
POLYLINE
  8
21
 66
1
 10
0.0000
 20
0.0000
 30
0.0000
 40
0.0000
 41
0.0000
 70
1
  0
VERTEX
  8
21
 10
10.9340
 20
40.7882
 30
0.0000
  0
VERTEX
  8
21
 10
10.9340
 20
37.8715
 30
0.0000
 42
1.0000
  0
VERTEX
  8
21
 10
11.0610
 20
37.8715
 30
0.0000
  0
VERTEX
  8
21
 10
11.0610
 20
40.7882
 30
0.0000
 42
1.0000
  0
SEQEND
  8
0
  0
POLYLINE
  8
21
 66
1
 10
0.0000
 20
0.0000
 30
0.0000
 40
0.0000
 41
0.0000
 70
1
  0
VERTEX
  8
21
 10
10.9340
 20
37.1902
 30
0.0000
  0
VERTEX
  8
21
 10
10.9340
 20
37.0528
 30
0.0000
 42
1.0000
  0
VERTEX
  8
21
 10
11.0610
 20
37.0528
 30
0.0000
  0
VERTEX
  8
21
 10
11.0610
 20
37.1902
 30
0.0000
 42
1.0000
  0
SEQEND
  8
0
  0
POLYLINE
  8
21
 66
1
 10
0.0000
 20
0.0000
 30
0.0000
 40
0.0000
 41
0.0000
 70
1
  0
VERTEX
  8
21
 10
10.9340
 20
36.3715
 30
0.0000
  0
VERTEX
  8
21
 10
10.9340
 20
33.4548
 30
0.0000
 42
1.0000
  0
VERTEX
  8
21
 10
11.0610
 20
33.4548
 30
0.0000
  0
VERTEX
  8
21
 10
11.0610
 20
36.3715
 30
0.0000
 42
1.0000
  0
SEQEND
  8
0
  0
POLYLINE
  8
21
 66
1
 10
0.0000
 20
0.0000
 30
0.0000
 40
0.0000
 41
0.0000
 70
1
  0
VERTEX
  8
21
 10
10.9340
 20
32.7735
 30
0.0000
  0
VERTEX
  8
21
 10
10.9340
 20
32.6362
 30
0.0000
 42
1.0000
  0
VERTEX
  8
21
 10
11.0610
 20
32.6362
 30
0.0000
  0
VERTEX
  8
21
 10
11.0610
 20
32.7735
 30
0.0000
 42
1.0000
  0
SEQEND
  8
0
  0
POLYLINE
  8
21
 66
1
 10
0.0000
 20
0.0000
 30
0.0000
 40
0.0000
 41
0.0000
 70
1
  0
VERTEX
  8
21
 10
10.9340
 20
31.9548
 30
0.0000
  0
VERTEX
  8
21
 10
10.9340
 20
29.0382
 30
0.0000
 42
1.0000
  0
VERTEX
  8
21
 10
11.0610
 20
29.0382
 30
0.0000
  0
VERTEX
  8
21
 10
11.0610
 20
31.9548
 30
0.0000
 42
1.0000
  0
SEQEND
  8
0
  0
POLYLINE
  8
21
 66
1
 10
0.0000
 20
0.0000
 30
0.0000
 40
0.0000
 41
0.0000
 70
1
  0
VERTEX
  8
21
 10
10.9340
 20
28.3568
 30
0.0000
  0
VERTEX
  8
21
 10
10.9340
 20
28.2195
 30
0.0000
 42
1.0000
  0
VERTEX
  8
21
 10
11.0610
 20
28.2195
 30
0.0000
  0
VERTEX
  8
21
 10
11.0610
 20
28.3568
 30
0.0000
 42
1.0000
  0
SEQEND
  8
0
  0
POLYLINE
  8
21
 66
1
 10
0.0000
 20
0.0000
 30
0.0000
 40
0.0000
 41
0.0000
 70
1
  0
VERTEX
  8
21
 10
10.9340
 20
27.5382
 30
0.0000
  0
VERTEX
  8
21
 10
10.9340
 20
24.6215
 30
0.0000
 42
1.0000
  0
VERTEX
  8
21
 10
11.0610
 20
24.6215
 30
0.0000
  0
VERTEX
  8
21
 10
11.0610
 20
27.5382
 30
0.0000
 42
1.0000
  0
SEQEND
  8
0
  0
POLYLINE
  8
21
 66
1
 10
0.0000
 20
0.0000
 30
0.0000
 40
0.0000
 41
0.0000
 70
1
  0
VERTEX
  8
21
 10
10.9975
 20
24.5580
 30
0.0000
  0
VERTEX
  8
21
 10
13.5764
 20
24.5580
 30
0.0000
 42
1.0000
  0
VERTEX
  8
21
 10
13.5764
 20
24.6850
 30
0.0000
  0
VERTEX
  8
21
 10
10.9975
 20
24.6850
 30
0.0000
 42
1.0000
  0
SEQEND
  8
0
  0
POLYLINE
  8
21
 66
1
 10
0.0000
 20
0.0000
 30
0.0000
 40
0.0000
 41
0.0000
 70
1
  0
VERTEX
  8
21
 10
14.2578
 20
24.5580
 30
0.0000
  0
VERTEX
  8
21
 10
14.3951
 20
24.5580
 30
0.0000
 42
1.0000
  0
VERTEX
  8
21
 10
14.3951
 20
24.6850
 30
0.0000
  0
VERTEX
  8
21
 10
14.2578
 20
24.6850
 30
0.0000
 42
1.0000
  0
SEQEND
  8
0
  0
POLYLINE
  8
21
 66
1
 10
0.0000
 20
0.0000
 30
0.0000
 40
0.0000
 41
0.0000
 70
1
  0
VERTEX
  8
21
 10
15.0764
 20
24.5580
 30
0.0000
  0
VERTEX
  8
21
 10
17.6554
 20
24.5580
 30
0.0000
 42
1.0000
  0
VERTEX
  8
21
 10
17.6554
 20
24.6850
 30
0.0000
  0
VERTEX
  8
21
 10
15.0764
 20
24.6850
 30
0.0000
 42
1.0000
  0
SEQEND
  8
0
  0
POLYLINE
  8
21
 66
1
 10
0.0000
 20
0.0000
 30
0.0000
 40
0.0000
 41
0.0000
 70
1
  0
VERTEX
  8
21
 10
18.3367
 20
24.5580
 30
0.0000
  0
VERTEX
  8
21
 10
18.4740
 20
24.5580
 30
0.0000
 42
1.0000
  0
VERTEX
  8
21
 10
18.4740
 20
24.6850
 30
0.0000
  0
VERTEX
  8
21
 10
18.3367
 20
24.6850
 30
0.0000
 42
1.0000
  0
SEQEND
  8
0
  0
POLYLINE
  8
21
 66
1
 10
0.0000
 20
0.0000
 30
0.0000
 40
0.0000
 41
0.0000
 70
1
  0
VERTEX
  8
21
 10
19.1554
 20
24.5580
 30
0.0000
  0
VERTEX
  8
21
 10
21.7343
 20
24.5580
 30
0.0000
 42
1.0000
  0
VERTEX
  8
21
 10
21.7343
 20
24.6850
 30
0.0000
  0
VERTEX
  8
21
 10
19.1554
 20
24.6850
 30
0.0000
 42
1.0000
  0
SEQEND
  8
0
  0
POLYLINE
  8
21
 66
1
 10
0.0000
 20
0.0000
 30
0.0000
 40
0.0000
 41
0.0000
 70
1
  0
VERTEX
  8
21
 10
22.4157
 20
24.5580
 30
0.0000
  0
VERTEX
  8
21
 10
22.5530
 20
24.5580
 30
0.0000
 42
1.0000
  0
VERTEX
  8
21
 10
22.5530
 20
24.6850
 30
0.0000
  0
VERTEX
  8
21
 10
22.4157
 20
24.6850
 30
0.0000
 42
1.0000
  0
SEQEND
  8
0
  0
POLYLINE
  8
21
 66
1
 10
0.0000
 20
0.0000
 30
0.0000
 40
0.0000
 41
0.0000
 70
1
  0
VERTEX
  8
21
 10
23.2343
 20
24.5580
 30
0.0000
  0
VERTEX
  8
21
 10
25.8133
 20
24.5580
 30
0.0000
 42
1.0000
  0
VERTEX
  8
21
 10
25.8133
 20
24.6850
 30
0.0000
  0
VERTEX
  8
21
 10
23.2343
 20
24.6850
 30
0.0000
 42
1.0000
  0
SEQEND
  8
0
  0
POLYLINE
  8
21
 66
1
 10
0.0000
 20
0.0000
 30
0.0000
 40
0.0000
 41
0.0000
 70
1
  0
VERTEX
  8
21
 10
26.4946
 20
24.5580
 30
0.0000
  0
VERTEX
  8
21
 10
26.6319
 20
24.5580
 30
0.0000
 42
1.0000
  0
VERTEX
  8
21
 10
26.6319
 20
24.6850
 30
0.0000
  0
VERTEX
  8
21
 10
26.4946
 20
24.6850
 30
0.0000
 42
1.0000
  0
SEQEND
  8
0
  0
POLYLINE
  8
21
 66
1
 10
0.0000
 20
0.0000
 30
0.0000
 40
0.0000
 41
0.0000
 70
1
  0
VERTEX
  8
21
 10
27.3133
 20
24.5580
 30
0.0000
  0
VERTEX
  8
21
 10
29.8922
 20
24.5580
 30
0.0000
 42
1.0000
  0
VERTEX
  8
21
 10
29.8922
 20
24.6850
 30
0.0000
  0
VERTEX
  8
21
 10
27.3133
 20
24.6850
 30
0.0000
 42
1.0000
  0
SEQEND
  8
0
  0
POLYLINE
  8
21
 66
1
 10
0.0000
 20
0.0000
 30
0.0000
 40
0.0000
 41
0.0000
 70
1
  0
VERTEX
  8
21
 10
30.5736
 20
24.5580
 30
0.0000
  0
VERTEX
  8
21
 10
30.7109
 20
24.5580
 30
0.0000
 42
1.0000
  0
VERTEX
  8
21
 10
30.7109
 20
24.6850
 30
0.0000
  0
VERTEX
  8
21
 10
30.5736
 20
24.6850
 30
0.0000
 42
1.0000
  0
SEQEND
  8
0
  0
POLYLINE
  8
21
 66
1
 10
0.0000
 20
0.0000
 30
0.0000
 40
0.0000
 41
0.0000
 70
1
  0
VERTEX
  8
21
 10
31.3922
 20
24.5580
 30
0.0000
  0
VERTEX
  8
21
 10
33.9712
 20
24.5580
 30
0.0000
 42
1.0000
  0
VERTEX
  8
21
 10
33.9712
 20
24.6850
 30
0.0000
  0
VERTEX
  8
21
 10
31.3922
 20
24.6850
 30
0.0000
 42
1.0000
  0
SEQEND
  8
0
  0
POLYLINE
  8
21
 66
1
 10
0.0000
 20
0.0000
 30
0.0000
 40
0.0000
 41
0.0000
 70
1
  0
VERTEX
  8
21
 10
34.6525
 20
24.5580
 30
0.0000
  0
VERTEX
  8
21
 10
34.7898
 20
24.5580
 30
0.0000
 42
1.0000
  0
VERTEX
  8
21
 10
34.7898
 20
24.6850
 30
0.0000
  0
VERTEX
  8
21
 10
34.6525
 20
24.6850
 30
0.0000
 42
1.0000
  0
SEQEND
  8
0
  0
POLYLINE
  8
21
 66
1
 10
0.0000
 20
0.0000
 30
0.0000
 40
0.0000
 41
0.0000
 70
1
  0
VERTEX
  8
21
 10
35.4712
 20
24.5580
 30
0.0000
  0
VERTEX
  8
21
 10
38.0501
 20
24.5580
 30
0.0000
 42
1.0000
  0
VERTEX
  8
21
 10
38.0501
 20
24.6850
 30
0.0000
  0
VERTEX
  8
21
 10
35.4712
 20
24.6850
 30
0.0000
 42
1.0000
  0
SEQEND
  8
0
  0
POLYLINE
  8
21
 66
1
 10
0.0000
 20
0.0000
 30
0.0000
 40
0.0000
 41
0.0000
 70
1
  0
VERTEX
  8
21
 10
38.7315
 20
24.5580
 30
0.0000
  0
VERTEX
  8
21
 10
38.8688
 20
24.5580
 30
0.0000
 42
1.0000
  0
VERTEX
  8
21
 10
38.8688
 20
24.6850
 30
0.0000
  0
VERTEX
  8
21
 10
38.7315
 20
24.6850
 30
0.0000
 42
1.0000
  0
SEQEND
  8
0
  0
POLYLINE
  8
21
 66
1
 10
0.0000
 20
0.0000
 30
0.0000
 40
0.0000
 41
0.0000
 70
1
  0
VERTEX
  8
21
 10
39.5501
 20
24.5580
 30
0.0000
  0
VERTEX
  8
21
 10
42.1291
 20
24.5580
 30
0.0000
 42
1.0000
  0
VERTEX
  8
21
 10
42.1291
 20
24.6850
 30
0.0000
  0
VERTEX
  8
21
 10
39.5501
 20
24.6850
 30
0.0000
 42
1.0000
  0
SEQEND
  8
0
  0
POLYLINE
  8
21
 66
1
 10
0.0000
 20
0.0000
 30
0.0000
 40
0.0000
 41
0.0000
 70
1
  0
VERTEX
  8
21
 10
42.8104
 20
24.5580
 30
0.0000
  0
VERTEX
  8
21
 10
42.9477
 20
24.5580
 30
0.0000
 42
1.0000
  0
VERTEX
  8
21
 10
42.9477
 20
24.6850
 30
0.0000
  0
VERTEX
  8
21
 10
42.8104
 20
24.6850
 30
0.0000
 42
1.0000
  0
SEQEND
  8
0
  0
POLYLINE
  8
21
 66
1
 10
0.0000
 20
0.0000
 30
0.0000
 40
0.0000
 41
0.0000
 70
1
  0
VERTEX
  8
21
 10
43.6291
 20
24.5580
 30
0.0000
  0
VERTEX
  8
21
 10
46.2080
 20
24.5580
 30
0.0000
 42
1.0000
  0
VERTEX
  8
21
 10
46.2080
 20
24.6850
 30
0.0000
  0
VERTEX
  8
21
 10
43.6291
 20
24.6850
 30
0.0000
 42
1.0000
  0
SEQEND
  8
0
  0
POLYLINE
  8
21
 66
1
 10
0.0000
 20
0.0000
 30
0.0000
 40
0.0000
 41
0.0000
 70
1
  0
VERTEX
  8
21
 10
46.8894
 20
24.5580
 30
0.0000
  0
VERTEX
  8
21
 10
47.0267
 20
24.5580
 30
0.0000
 42
1.0000
  0
VERTEX
  8
21
 10
47.0267
 20
24.6850
 30
0.0000
  0
VERTEX
  8
21
 10
46.8894
 20
24.6850
 30
0.0000
 42
1.0000
  0
SEQEND
  8
0
  0
POLYLINE
  8
21
 66
1
 10
0.0000
 20
0.0000
 30
0.0000
 40
0.0000
 41
0.0000
 70
1
  0
VERTEX
  8
21
 10
47.7080
 20
24.5580
 30
0.0000
  0
VERTEX
  8
21
 10
50.2870
 20
24.5580
 30
0.0000
 42
1.0000
  0
VERTEX
  8
21
 10
50.2870
 20
24.6850
 30
0.0000
  0
VERTEX
  8
21
 10
47.7080
 20
24.6850
 30
0.0000
 42
1.0000
  0
SEQEND
  8
0
  0
POLYLINE
  8
21
 66
1
 10
0.0000
 20
0.0000
 30
0.0000
 40
0.0000
 41
0.0000
 70
1
  0
VERTEX
  8
21
 10
50.9683
 20
24.5580
 30
0.0000
  0
VERTEX
  8
21
 10
51.1056
 20
24.5580
 30
0.0000
 42
1.0000
  0
VERTEX
  8
21
 10
51.1056
 20
24.6850
 30
0.0000
  0
VERTEX
  8
21
 10
50.9683
 20
24.6850
 30
0.0000
 42
1.0000
  0
SEQEND
  8
0
  0
POLYLINE
  8
21
 66
1
 10
0.0000
 20
0.0000
 30
0.0000
 40
0.0000
 41
0.0000
 70
1
  0
VERTEX
  8
21
 10
51.7870
 20
24.5580
 30
0.0000
  0
VERTEX
  8
21
 10
54.3659
 20
24.5580
 30
0.0000
 42
1.0000
  0
VERTEX
  8
21
 10
54.3659
 20
24.6850
 30
0.0000
  0
VERTEX
  8
21
 10
51.7870
 20
24.6850
 30
0.0000
 42
1.0000
  0
SEQEND
  8
0
  0
POLYLINE
  8
21
 66
1
 10
0.0000
 20
0.0000
 30
0.0000
 40
0.0000
 41
0.0000
 70
1
  0
VERTEX
  8
21
 10
55.0473
 20
24.5580
 30
0.0000
  0
VERTEX
  8
21
 10
55.1846
 20
24.5580
 30
0.0000
 42
1.0000
  0
VERTEX
  8
21
 10
55.1846
 20
24.6850
 30
0.0000
  0
VERTEX
  8
21
 10
55.0473
 20
24.6850
 30
0.0000
 42
1.0000
  0
SEQEND
  8
0
  0
POLYLINE
  8
21
 66
1
 10
0.0000
 20
0.0000
 30
0.0000
 40
0.0000
 41
0.0000
 70
1
  0
VERTEX
  8
21
 10
55.8659
 20
24.5580
 30
0.0000
  0
VERTEX
  8
21
 10
58.4449
 20
24.5580
 30
0.0000
 42
1.0000
  0
VERTEX
  8
21
 10
58.4449
 20
24.6850
 30
0.0000
  0
VERTEX
  8
21
 10
55.8659
 20
24.6850
 30
0.0000
 42
1.0000
  0
SEQEND
  8
0
  0
POLYLINE
  8
21
 66
1
 10
0.0000
 20
0.0000
 30
0.0000
 40
0.0000
 41
0.0000
 70
1
  0
VERTEX
  8
21
 10
59.1262
 20
24.5580
 30
0.0000
  0
VERTEX
  8
21
 10
59.2635
 20
24.5580
 30
0.0000
 42
1.0000
  0
VERTEX
  8
21
 10
59.2635
 20
24.6850
 30
0.0000
  0
VERTEX
  8
21
 10
59.1262
 20
24.6850
 30
0.0000
 42
1.0000
  0
SEQEND
  8
0
  0
POLYLINE
  8
21
 66
1
 10
0.0000
 20
0.0000
 30
0.0000
 40
0.0000
 41
0.0000
 70
1
  0
VERTEX
  8
21
 10
59.9449
 20
24.5580
 30
0.0000
  0
VERTEX
  8
21
 10
62.5238
 20
24.5580
 30
0.0000
 42
1.0000
  0
VERTEX
  8
21
 10
62.5238
 20
24.6850
 30
0.0000
  0
VERTEX
  8
21
 10
59.9449
 20
24.6850
 30
0.0000
 42
1.0000
  0
SEQEND
  8
0
  0
POLYLINE
  8
21
 66
1
 10
0.0000
 20
0.0000
 30
0.0000
 40
0.0000
 41
0.0000
 70
1
  0
VERTEX
  8
21
 10
63.2052
 20
24.5580
 30
0.0000
  0
VERTEX
  8
21
 10
63.3425
 20
24.5580
 30
0.0000
 42
1.0000
  0
VERTEX
  8
21
 10
63.3425
 20
24.6850
 30
0.0000
  0
VERTEX
  8
21
 10
63.2052
 20
24.6850
 30
0.0000
 42
1.0000
  0
SEQEND
  8
0
  0
POLYLINE
  8
21
 66
1
 10
0.0000
 20
0.0000
 30
0.0000
 40
0.0000
 41
0.0000
 70
1
  0
VERTEX
  8
21
 10
64.0238
 20
24.5580
 30
0.0000
  0
VERTEX
  8
21
 10
66.6028
 20
24.5580
 30
0.0000
 42
1.0000
  0
VERTEX
  8
21
 10
66.6028
 20
24.6850
 30
0.0000
  0
VERTEX
  8
21
 10
64.0238
 20
24.6850
 30
0.0000
 42
1.0000
  0
SEQEND
  8
0
  0
POLYLINE
  8
21
 66
1
 10
0.0000
 20
0.0000
 30
0.0000
 40
0.0000
 41
0.0000
 70
1
  0
VERTEX
  8
21
 10
67.2841
 20
24.5580
 30
0.0000
  0
VERTEX
  8
21
 10
67.4214
 20
24.5580
 30
0.0000
 42
1.0000
  0
VERTEX
  8
21
 10
67.4214
 20
24.6850
 30
0.0000
  0
VERTEX
  8
21
 10
67.2841
 20
24.6850
 30
0.0000
 42
1.0000
  0
SEQEND
  8
0
  0
POLYLINE
  8
21
 66
1
 10
0.0000
 20
0.0000
 30
0.0000
 40
0.0000
 41
0.0000
 70
1
  0
VERTEX
  8
21
 10
68.1028
 20
24.5580
 30
0.0000
  0
VERTEX
  8
21
 10
70.6817
 20
24.5580
 30
0.0000
 42
1.0000
  0
VERTEX
  8
21
 10
70.6817
 20
24.6850
 30
0.0000
  0
VERTEX
  8
21
 10
68.1028
 20
24.6850
 30
0.0000
 42
1.0000
  0
SEQEND
  8
0
  0
POLYLINE
  8
21
 66
1
 10
0.0000
 20
0.0000
 30
0.0000
 40
0.0000
 41
0.0000
 70
1
  0
VERTEX
  8
21
 10
71.3631
 20
24.5580
 30
0.0000
  0
VERTEX
  8
21
 10
71.5004
 20
24.5580
 30
0.0000
 42
1.0000
  0
VERTEX
  8
21
 10
71.5004
 20
24.6850
 30
0.0000
  0
VERTEX
  8
21
 10
71.3631
 20
24.6850
 30
0.0000
 42
1.0000
  0
SEQEND
  8
0
  0
POLYLINE
  8
21
 66
1
 10
0.0000
 20
0.0000
 30
0.0000
 40
0.0000
 41
0.0000
 70
1
  0
VERTEX
  8
21
 10
72.1817
 20
24.5580
 30
0.0000
  0
VERTEX
  8
21
 10
74.7607
 20
24.5580
 30
0.0000
 42
1.0000
  0
VERTEX
  8
21
 10
74.7607
 20
24.6850
 30
0.0000
  0
VERTEX
  8
21
 10
72.1817
 20
24.6850
 30
0.0000
 42
1.0000
  0
SEQEND
  8
0
  0
POLYLINE
  8
21
 66
1
 10
0.0000
 20
0.0000
 30
0.0000
 40
0.0000
 41
0.0000
 70
1
  0
VERTEX
  8
21
 10
75.4420
 20
24.5580
 30
0.0000
  0
VERTEX
  8
21
 10
75.5793
 20
24.5580
 30
0.0000
 42
1.0000
  0
VERTEX
  8
21
 10
75.5793
 20
24.6850
 30
0.0000
  0
VERTEX
  8
21
 10
75.4420
 20
24.6850
 30
0.0000
 42
1.0000
  0
SEQEND
  8
0
  0
POLYLINE
  8
21
 66
1
 10
0.0000
 20
0.0000
 30
0.0000
 40
0.0000
 41
0.0000
 70
1
  0
VERTEX
  8
21
 10
76.2607
 20
24.5580
 30
0.0000
  0
VERTEX
  8
21
 10
78.8396
 20
24.5580
 30
0.0000
 42
1.0000
  0
VERTEX
  8
21
 10
78.8396
 20
24.6850
 30
0.0000
  0
VERTEX
  8
21
 10
76.2607
 20
24.6850
 30
0.0000
 42
1.0000
  0
SEQEND
  8
0
  0
POLYLINE
  8
21
 66
1
 10
0.0000
 20
0.0000
 30
0.0000
 40
0.0000
 41
0.0000
 70
1
  0
VERTEX
  8
21
 10
79.5210
 20
24.5580
 30
0.0000
  0
VERTEX
  8
21
 10
79.6583
 20
24.5580
 30
0.0000
 42
1.0000
  0
VERTEX
  8
21
 10
79.6583
 20
24.6850
 30
0.0000
  0
VERTEX
  8
21
 10
79.5210
 20
24.6850
 30
0.0000
 42
1.0000
  0
SEQEND
  8
0
  0
POLYLINE
  8
21
 66
1
 10
0.0000
 20
0.0000
 30
0.0000
 40
0.0000
 41
0.0000
 70
1
  0
VERTEX
  8
21
 10
80.3396
 20
24.5580
 30
0.0000
  0
VERTEX
  8
21
 10
82.9186
 20
24.5580
 30
0.0000
 42
1.0000
  0
VERTEX
  8
21
 10
82.9186
 20
24.6850
 30
0.0000
  0
VERTEX
  8
21
 10
80.3396
 20
24.6850
 30
0.0000
 42
1.0000
  0
SEQEND
  8
0
  0
POLYLINE
  8
21
 66
1
 10
0.0000
 20
0.0000
 30
0.0000
 40
0.0000
 41
0.0000
 70
1
  0
VERTEX
  8
21
 10
83.5999
 20
24.5580
 30
0.0000
  0
VERTEX
  8
21
 10
83.7372
 20
24.5580
 30
0.0000
 42
1.0000
  0
VERTEX
  8
21
 10
83.7372
 20
24.6850
 30
0.0000
  0
VERTEX
  8
21
 10
83.5999
 20
24.6850
 30
0.0000
 42
1.0000
  0
SEQEND
  8
0
  0
POLYLINE
  8
21
 66
1
 10
0.0000
 20
0.0000
 30
0.0000
 40
0.0000
 41
0.0000
 70
1
  0
VERTEX
  8
21
 10
84.4186
 20
24.5580
 30
0.0000
  0
VERTEX
  8
21
 10
86.9975
 20
24.5580
 30
0.0000
 42
1.0000
  0
VERTEX
  8
21
 10
86.9975
 20
24.6850
 30
0.0000
  0
VERTEX
  8
21
 10
84.4186
 20
24.6850
 30
0.0000
 42
1.0000
  0
SEQEND
  8
0
  0
POLYLINE
  8
21
 66
1
 10
0.0000
 20
0.0000
 30
0.0000
 40
0.0000
 41
0.0000
 70
1
  0
VERTEX
  8
21
 10
87.0610
 20
24.6215
 30
0.0000
  0
VERTEX
  8
21
 10
87.0610
 20
27.5382
 30
0.0000
 42
1.0000
  0
VERTEX
  8
21
 10
86.9340
 20
27.5382
 30
0.0000
  0
VERTEX
  8
21
 10
86.9340
 20
24.6215
 30
0.0000
 42
1.0000
  0
SEQEND
  8
0
  0
POLYLINE
  8
21
 66
1
 10
0.0000
 20
0.0000
 30
0.0000
 40
0.0000
 41
0.0000
 70
1
  0
VERTEX
  8
21
 10
87.0610
 20
28.2195
 30
0.0000
  0
VERTEX
  8
21
 10
87.0610
 20
28.3568
 30
0.0000
 42
1.0000
  0
VERTEX
  8
21
 10
86.9340
 20
28.3568
 30
0.0000
  0
VERTEX
  8
21
 10
86.9340
 20
28.2195
 30
0.0000
 42
1.0000
  0
SEQEND
  8
0
  0
POLYLINE
  8
21
 66
1
 10
0.0000
 20
0.0000
 30
0.0000
 40
0.0000
 41
0.0000
 70
1
  0
VERTEX
  8
21
 10
87.0610
 20
29.0382
 30
0.0000
  0
VERTEX
  8
21
 10
87.0610
 20
31.9548
 30
0.0000
 42
1.0000
  0
VERTEX
  8
21
 10
86.9340
 20
31.9548
 30
0.0000
  0
VERTEX
  8
21
 10
86.9340
 20
29.0382
 30
0.0000
 42
1.0000
  0
SEQEND
  8
0
  0
POLYLINE
  8
21
 66
1
 10
0.0000
 20
0.0000
 30
0.0000
 40
0.0000
 41
0.0000
 70
1
  0
VERTEX
  8
21
 10
87.0610
 20
32.6362
 30
0.0000
  0
VERTEX
  8
21
 10
87.0610
 20
32.7735
 30
0.0000
 42
1.0000
  0
VERTEX
  8
21
 10
86.9340
 20
32.7735
 30
0.0000
  0
VERTEX
  8
21
 10
86.9340
 20
32.6362
 30
0.0000
 42
1.0000
  0
SEQEND
  8
0
  0
POLYLINE
  8
21
 66
1
 10
0.0000
 20
0.0000
 30
0.0000
 40
0.0000
 41
0.0000
 70
1
  0
VERTEX
  8
21
 10
87.0610
 20
33.4548
 30
0.0000
  0
VERTEX
  8
21
 10
87.0610
 20
36.3715
 30
0.0000
 42
1.0000
  0
VERTEX
  8
21
 10
86.9340
 20
36.3715
 30
0.0000
  0
VERTEX
  8
21
 10
86.9340
 20
33.4548
 30
0.0000
 42
1.0000
  0
SEQEND
  8
0
  0
POLYLINE
  8
21
 66
1
 10
0.0000
 20
0.0000
 30
0.0000
 40
0.0000
 41
0.0000
 70
1
  0
VERTEX
  8
21
 10
87.0610
 20
37.0528
 30
0.0000
  0
VERTEX
  8
21
 10
87.0610
 20
37.1902
 30
0.0000
 42
1.0000
  0
VERTEX
  8
21
 10
86.9340
 20
37.1902
 30
0.0000
  0
VERTEX
  8
21
 10
86.9340
 20
37.0528
 30
0.0000
 42
1.0000
  0
SEQEND
  8
0
  0
POLYLINE
  8
21
 66
1
 10
0.0000
 20
0.0000
 30
0.0000
 40
0.0000
 41
0.0000
 70
1
  0
VERTEX
  8
21
 10
87.0610
 20
37.8715
 30
0.0000
  0
VERTEX
  8
21
 10
87.0610
 20
40.7882
 30
0.0000
 42
1.0000
  0
VERTEX
  8
21
 10
86.9340
 20
40.7882
 30
0.0000
  0
VERTEX
  8
21
 10
86.9340
 20
37.8715
 30
0.0000
 42
1.0000
  0
SEQEND
  8
0
  0
POLYLINE
  8
21
 66
1
 10
0.0000
 20
0.0000
 30
0.0000
 40
0.0000
 41
0.0000
 70
1
  0
VERTEX
  8
21
 10
87.0610
 20
41.4695
 30
0.0000
  0
VERTEX
  8
21
 10
87.0610
 20
41.6068
 30
0.0000
 42
1.0000
  0
VERTEX
  8
21
 10
86.9340
 20
41.6068
 30
0.0000
  0
VERTEX
  8
21
 10
86.9340
 20
41.4695
 30
0.0000
 42
1.0000
  0
SEQEND
  8
0
  0
POLYLINE
  8
21
 66
1
 10
0.0000
 20
0.0000
 30
0.0000
 40
0.0000
 41
0.0000
 70
1
  0
VERTEX
  8
21
 10
87.0610
 20
42.2882
 30
0.0000
  0
VERTEX
  8
21
 10
87.0610
 20
45.2048
 30
0.0000
 42
1.0000
  0
VERTEX
  8
21
 10
86.9340
 20
45.2048
 30
0.0000
  0
VERTEX
  8
21
 10
86.9340
 20
42.2882
 30
0.0000
 42
1.0000
  0
SEQEND
  8
0
  0
POLYLINE
  8
21
 66
1
 10
0.0000
 20
0.0000
 30
0.0000
 40
0.0000
 41
0.0000
 70
1
  0
VERTEX
  8
21
 10
87.0610
 20
45.8862
 30
0.0000
  0
VERTEX
  8
21
 10
87.0610
 20
46.0235
 30
0.0000
 42
1.0000
  0
VERTEX
  8
21
 10
86.9340
 20
46.0235
 30
0.0000
  0
VERTEX
  8
21
 10
86.9340
 20
45.8862
 30
0.0000
 42
1.0000
  0
SEQEND
  8
0
  0
POLYLINE
  8
21
 66
1
 10
0.0000
 20
0.0000
 30
0.0000
 40
0.0000
 41
0.0000
 70
1
  0
VERTEX
  8
21
 10
87.0610
 20
46.7048
 30
0.0000
  0
VERTEX
  8
21
 10
87.0610
 20
49.6215
 30
0.0000
 42
1.0000
  0
VERTEX
  8
21
 10
86.9340
 20
49.6215
 30
0.0000
  0
VERTEX
  8
21
 10
86.9340
 20
46.7048
 30
0.0000
 42
1.0000
  0
SEQEND
  8
0
  0
POLYLINE
  8
21
 66
1
 10
0.0000
 20
0.0000
 30
0.0000
 40
0.0000
 41
0.0000
 70
1
  0
VERTEX
  8
21
 10
9.5838
 20
61.6116
 30
0.0000
  0
VERTEX
  8
21
 10
9.9736
 20
62.0014
 30
0.0000
 42
1.0000
  0
VERTEX
  8
21
 10
9.9018
 20
62.0732
 30
0.0000
  0
VERTEX
  8
21
 10
9.5120
 20
61.6834
 30
0.0000
 42
1.0000
  0
SEQEND
  8
0
  0
POLYLINE
  8
21
 66
1
 10
0.0000
 20
0.0000
 30
0.0000
 40
0.0000
 41
0.0000
 70
1
  0
VERTEX
  8
21
 10
9.8869
 20
62.0373
 30
0.0000
  0
VERTEX
  8
21
 10
9.8869
 20
60.8679
 30
0.0000
 42
1.0000
  0
VERTEX
  8
21
 10
9.9885
 20
60.8679
 30
0.0000
  0
VERTEX
  8
21
 10
9.9885
 20
62.0373
 30
0.0000
 42
1.0000
  0
SEQEND
  8
0
  0
POLYLINE
  8
21
 66
1
 10
0.0000
 20
0.0000
 30
0.0000
 40
0.0000
 41
0.0000
 70
1
  0
VERTEX
  8
21
 10
9.5479
 20
60.8171
 30
0.0000
  0
VERTEX
  8
21
 10
10.3275
 20
60.8171
 30
0.0000
 42
1.0000
  0
VERTEX
  8
21
 10
10.3275
 20
60.9187
 30
0.0000
  0
VERTEX
  8
21
 10
9.5479
 20
60.9187
 30
0.0000
 42
1.0000
  0
SEQEND
  8
0
  0
POLYLINE
  8
21
 66
1
 10
0.0000
 20
0.0000
 30
0.0000
 40
0.0000
 41
0.0000
 70
1
  0
VERTEX
  8
21
 10
42.0958
 20
61.3576
 30
0.0000
  0
VERTEX
  8
21
 10
42.4856
 20
61.7474
 30
0.0000
 42
1.0000
  0
VERTEX
  8
21
 10
42.4138
 20
61.8192
 30
0.0000
  0
VERTEX
  8
21
 10
42.0240
 20
61.4294
 30
0.0000
 42
1.0000
  0
SEQEND
  8
0
  0
POLYLINE
  8
21
 66
1
 10
0.0000
 20
0.0000
 30
0.0000
 40
0.0000
 41
0.0000
 70
1
  0
VERTEX
  8
21
 10
42.3989
 20
61.7833
 30
0.0000
  0
VERTEX
  8
21
 10
42.3989
 20
60.6139
 30
0.0000
 42
1.0000
  0
VERTEX
  8
21
 10
42.5005
 20
60.6139
 30
0.0000
  0
VERTEX
  8
21
 10
42.5005
 20
61.7833
 30
0.0000
 42
1.0000
  0
SEQEND
  8
0
  0
POLYLINE
  8
21
 66
1
 10
0.0000
 20
0.0000
 30
0.0000
 40
0.0000
 41
0.0000
 70
1
  0
VERTEX
  8
21
 10
42.0599
 20
60.5631
 30
0.0000
  0
VERTEX
  8
21
 10
42.8395
 20
60.5631
 30
0.0000
 42
1.0000
  0
VERTEX
  8
21
 10
42.8395
 20
60.6647
 30
0.0000
  0
VERTEX
  8
21
 10
42.0599
 20
60.6647
 30
0.0000
 42
1.0000
  0
SEQEND
  8
0
  0
POLYLINE
  8
21
 66
1
 10
0.0000
 20
0.0000
 30
0.0000
 40
0.0000
 41
0.0000
 70
1
  0
VERTEX
  8
21
 10
43.8648
 20
60.6139
 30
0.0000
  0
VERTEX
  8
21
 10
43.8648
 20
61.7833
 30
0.0000
 42
1.0000
  0
VERTEX
  8
21
 10
43.7632
 20
61.7833
 30
0.0000
  0
VERTEX
  8
21
 10
43.7632
 20
60.6139
 30
0.0000
 42
1.0000
  0
SEQEND
  8
0
  0
POLYLINE
  8
21
 66
1
 10
0.0000
 20
0.0000
 30
0.0000
 40
0.0000
 41
0.0000
 70
1
  0
VERTEX
  8
21
 10
43.7781
 20
61.8192
 30
0.0000
  0
VERTEX
  8
21
 10
43.1934
 20
61.2345
 30
0.0000
 42
1.0000
  0
VERTEX
  8
21
 10
43.2652
 20
61.1627
 30
0.0000
  0
VERTEX
  8
21
 10
43.8499
 20
61.7474
 30
0.0000
 42
1.0000
  0
SEQEND
  8
0
  0
POLYLINE
  8
21
 66
1
 10
0.0000
 20
0.0000
 30
0.0000
 40
0.0000
 41
0.0000
 70
1
  0
VERTEX
  8
21
 10
43.2293
 20
61.1478
 30
0.0000
  0
VERTEX
  8
21
 10
44.0089
 20
61.1478
 30
0.0000
 42
1.0000
  0
VERTEX
  8
21
 10
44.0089
 20
61.2494
 30
0.0000
  0
VERTEX
  8
21
 10
43.2293
 20
61.2494
 30
0.0000
 42
1.0000
  0
SEQEND
  8
0
  0
POLYLINE
  8
21
 66
1
 10
0.0000
 20
0.0000
 30
0.0000
 40
0.0000
 41
0.0000
 70
1
  0
VERTEX
  8
21
 10
47.1758
 20
61.3576
 30
0.0000
  0
VERTEX
  8
21
 10
47.5656
 20
61.7474
 30
0.0000
 42
1.0000
  0
VERTEX
  8
21
 10
47.4938
 20
61.8192
 30
0.0000
  0
VERTEX
  8
21
 10
47.1040
 20
61.4294
 30
0.0000
 42
1.0000
  0
SEQEND
  8
0
  0
POLYLINE
  8
21
 66
1
 10
0.0000
 20
0.0000
 30
0.0000
 40
0.0000
 41
0.0000
 70
1
  0
VERTEX
  8
21
 10
47.4789
 20
61.7833
 30
0.0000
  0
VERTEX
  8
21
 10
47.4789
 20
60.6139
 30
0.0000
 42
1.0000
  0
VERTEX
  8
21
 10
47.5805
 20
60.6139
 30
0.0000
  0
VERTEX
  8
21
 10
47.5805
 20
61.7833
 30
0.0000
 42
1.0000
  0
SEQEND
  8
0
  0
POLYLINE
  8
21
 66
1
 10
0.0000
 20
0.0000
 30
0.0000
 40
0.0000
 41
0.0000
 70
1
  0
VERTEX
  8
21
 10
47.1399
 20
60.5631
 30
0.0000
  0
VERTEX
  8
21
 10
47.9195
 20
60.5631
 30
0.0000
 42
1.0000
  0
VERTEX
  8
21
 10
47.9195
 20
60.6647
 30
0.0000
  0
VERTEX
  8
21
 10
47.1399
 20
60.6647
 30
0.0000
 42
1.0000
  0
SEQEND
  8
0
  0
POLYLINE
  8
21
 66
1
 10
0.0000
 20
0.0000
 30
0.0000
 40
0.0000
 41
0.0000
 70
1
  0
VERTEX
  8
21
 10
49.0662
 20
61.8287
 30
0.0000
  0
VERTEX
  8
21
 10
48.6764
 20
61.6338
 30
0.0000
 42
1.0000
  0
VERTEX
  8
21
 10
48.7218
 20
61.5430
 30
0.0000
  0
VERTEX
  8
21
 10
49.1116
 20
61.7379
 30
0.0000
 42
1.0000
  0
SEQEND
  8
0
  0
POLYLINE
  8
21
 66
1
 10
0.0000
 20
0.0000
 30
0.0000
 40
0.0000
 41
0.0000
 70
1
  0
VERTEX
  8
21
 10
48.6632
 20
61.6243
 30
0.0000
  0
VERTEX
  8
21
 10
48.2734
 20
61.2345
 30
0.0000
 42
1.0000
  0
VERTEX
  8
21
 10
48.3452
 20
61.1627
 30
0.0000
  0
VERTEX
  8
21
 10
48.7350
 20
61.5525
 30
0.0000
 42
1.0000
  0
SEQEND
  8
0
  0
POLYLINE
  8
21
 66
1
 10
0.0000
 20
0.0000
 30
0.0000
 40
0.0000
 41
0.0000
 70
1
  0
VERTEX
  8
21
 10
48.2585
 20
61.1986
 30
0.0000
  0
VERTEX
  8
21
 10
48.2585
 20
60.8088
 30
0.0000
 42
1.0000
  0
VERTEX
  8
21
 10
48.3601
 20
60.8088
 30
0.0000
  0
VERTEX
  8
21
 10
48.3601
 20
61.1986
 30
0.0000
 42
1.0000
  0
SEQEND
  8
0
  0
POLYLINE
  8
21
 66
1
 10
0.0000
 20
0.0000
 30
0.0000
 40
0.0000
 41
0.0000
 70
1
  0
VERTEX
  8
21
 10
48.2734
 20
60.7729
 30
0.0000
  0
VERTEX
  8
21
 10
48.4683
 20
60.5780
 30
0.0000
 42
1.0000
  0
VERTEX
  8
21
 10
48.5401
 20
60.6498
 30
0.0000
  0
VERTEX
  8
21
 10
48.3452
 20
60.8447
 30
0.0000
 42
1.0000
  0
SEQEND
  8
0
  0
POLYLINE
  8
21
 66
1
 10
0.0000
 20
0.0000
 30
0.0000
 40
0.0000
 41
0.0000
 70
1
  0
VERTEX
  8
21
 10
48.5042
 20
60.5631
 30
0.0000
  0
VERTEX
  8
21
 10
48.8940
 20
60.5631
 30
0.0000
 42
1.0000
  0
VERTEX
  8
21
 10
48.8940
 20
60.6647
 30
0.0000
  0
VERTEX
  8
21
 10
48.5042
 20
60.6647
 30
0.0000
 42
1.0000
  0
SEQEND
  8
0
  0
POLYLINE
  8
21
 66
1
 10
0.0000
 20
0.0000
 30
0.0000
 40
0.0000
 41
0.0000
 70
1
  0
VERTEX
  8
21
 10
48.9299
 20
60.5780
 30
0.0000
  0
VERTEX
  8
21
 10
49.1248
 20
60.7729
 30
0.0000
 42
1.0000
  0
VERTEX
  8
21
 10
49.0530
 20
60.8447
 30
0.0000
  0
VERTEX
  8
21
 10
48.8581
 20
60.6498
 30
0.0000
 42
1.0000
  0
SEQEND
  8
0
  0
POLYLINE
  8
21
 66
1
 10
0.0000
 20
0.0000
 30
0.0000
 40
0.0000
 41
0.0000
 70
1
  0
VERTEX
  8
21
 10
49.1397
 20
60.8088
 30
0.0000
  0
VERTEX
  8
21
 10
49.1397
 20
61.0037
 30
0.0000
 42
1.0000
  0
VERTEX
  8
21
 10
49.0381
 20
61.0037
 30
0.0000
  0
VERTEX
  8
21
 10
49.0381
 20
60.8088
 30
0.0000
 42
1.0000
  0
SEQEND
  8
0
  0
POLYLINE
  8
21
 66
1
 10
0.0000
 20
0.0000
 30
0.0000
 40
0.0000
 41
0.0000
 70
1
  0
VERTEX
  8
21
 10
49.1248
 20
61.0396
 30
0.0000
  0
VERTEX
  8
21
 10
48.9299
 20
61.2345
 30
0.0000
 42
1.0000
  0
VERTEX
  8
21
 10
48.8581
 20
61.1627
 30
0.0000
  0
VERTEX
  8
21
 10
49.0530
 20
60.9678
 30
0.0000
 42
1.0000
  0
SEQEND
  8
0
  0
POLYLINE
  8
21
 66
1
 10
0.0000
 20
0.0000
 30
0.0000
 40
0.0000
 41
0.0000
 70
1
  0
VERTEX
  8
21
 10
48.8940
 20
61.2494
 30
0.0000
  0
VERTEX
  8
21
 10
48.3093
 20
61.2494
 30
0.0000
 42
1.0000
  0
VERTEX
  8
21
 10
48.3093
 20
61.1478
 30
0.0000
  0
VERTEX
  8
21
 10
48.8940
 20
61.1478
 30
0.0000
 42
1.0000
  0
SEQEND
  8
0
  0
CIRCLE
  8
21
 10
2.4994
 20
64.6144
 30
0.0000
 40
1.9177
  0
CIRCLE
  8
21
 10
2.4994
 20
64.6144
 30
0.0000
 40
2.0447
  0
CIRCLE
  8
21
 10
2.4994
 20
9.6234
 30
0.0000
 40
1.9304
  0
CIRCLE
  8
21
 10
2.4994
 20
9.6234
 30
0.0000
 40
2.0574
  0
CIRCLE
  8
21
 10
95.5015
 20
9.6234
 30
0.0000
 40
1.9050
  0
CIRCLE
  8
21
 10
95.5015
 20
9.6234
 30
0.0000
 40
2.0320
  0
CIRCLE
  8
21
 10
95.5015
 20
64.6144
 30
0.0000
 40
1.9304
  0
CIRCLE
  8
21
 10
95.5015
 20
64.6144
 30
0.0000
 40
2.0574
  0
INSERT
  8
17
  2
LONGP100
 10
9.9924
 20
64.6271
 30
0.0000
 41
1.7780
 42
1.7780
 43
1.0000
 50
270.0000
  0
INSERT
  8
17
  2
LONGP100
 10
9.9924
 20
64.6271
 30
0.0000
 41
1.7780
 42
1.7780
 43
1.0000
 50
270.0000
  0
INSERT
  8
17
  2
LONGP100
 10
12.5324
 20
64.6271
 30
0.0000
 41
1.7780
 42
1.7780
 43
1.0000
 50
270.0000
  0
INSERT
  8
17
  2
LONGP100
 10
12.5324
 20
64.6271
 30
0.0000
 41
1.7780
 42
1.7780
 43
1.0000
 50
270.0000
  0
INSERT
  8
17
  2
LONGP100
 10
15.0724
 20
64.6271
 30
0.0000
 41
1.7780
 42
1.7780
 43
1.0000
 50
270.0000
  0
INSERT
  8
17
  2
LONGP100
 10
15.0724
 20
64.6271
 30
0.0000
 41
1.7780
 42
1.7780
 43
1.0000
 50
270.0000
  0
INSERT
  8
17
  2
LONGP100
 10
17.6124
 20
64.6271
 30
0.0000
 41
1.7780
 42
1.7780
 43
1.0000
 50
270.0000
  0
INSERT
  8
17
  2
LONGP100
 10
17.6124
 20
64.6271
 30
0.0000
 41
1.7780
 42
1.7780
 43
1.0000
 50
270.0000
  0
INSERT
  8
17
  2
LONGP100
 10
20.1524
 20
64.6271
 30
0.0000
 41
1.7780
 42
1.7780
 43
1.0000
 50
270.0000
  0
INSERT
  8
17
  2
LONGP100
 10
20.1524
 20
64.6271
 30
0.0000
 41
1.7780
 42
1.7780
 43
1.0000
 50
270.0000
  0
INSERT
  8
17
  2
LONGP100
 10
22.6924
 20
64.6271
 30
0.0000
 41
1.7780
 42
1.7780
 43
1.0000
 50
270.0000
  0
INSERT
  8
17
  2
LONGP100
 10
22.6924
 20
64.6271
 30
0.0000
 41
1.7780
 42
1.7780
 43
1.0000
 50
270.0000
  0
INSERT
  8
17
  2
LONGP100
 10
25.2324
 20
64.6271
 30
0.0000
 41
1.7780
 42
1.7780
 43
1.0000
 50
270.0000
  0
INSERT
  8
17
  2
LONGP100
 10
25.2324
 20
64.6271
 30
0.0000
 41
1.7780
 42
1.7780
 43
1.0000
 50
270.0000
  0
INSERT
  8
17
  2
LONGP100
 10
27.7724
 20
64.6271
 30
0.0000
 41
1.7780
 42
1.7780
 43
1.0000
 50
270.0000
  0
INSERT
  8
17
  2
LONGP100
 10
27.7724
 20
64.6271
 30
0.0000
 41
1.7780
 42
1.7780
 43
1.0000
 50
270.0000
  0
INSERT
  8
17
  2
LONGP100
 10
30.3124
 20
64.6271
 30
0.0000
 41
1.7780
 42
1.7780
 43
1.0000
 50
270.0000
  0
INSERT
  8
17
  2
LONGP100
 10
30.3124
 20
64.6271
 30
0.0000
 41
1.7780
 42
1.7780
 43
1.0000
 50
270.0000
  0
INSERT
  8
17
  2
LONGP100
 10
32.8524
 20
64.6271
 30
0.0000
 41
1.7780
 42
1.7780
 43
1.0000
 50
270.0000
  0
INSERT
  8
17
  2
LONGP100
 10
32.8524
 20
64.6271
 30
0.0000
 41
1.7780
 42
1.7780
 43
1.0000
 50
270.0000
  0
INSERT
  8
17
  2
LONGP100
 10
35.3924
 20
64.6271
 30
0.0000
 41
1.7780
 42
1.7780
 43
1.0000
 50
270.0000
  0
INSERT
  8
17
  2
LONGP100
 10
35.3924
 20
64.6271
 30
0.0000
 41
1.7780
 42
1.7780
 43
1.0000
 50
270.0000
  0
INSERT
  8
17
  2
LONGP100
 10
37.9324
 20
64.6271
 30
0.0000
 41
1.7780
 42
1.7780
 43
1.0000
 50
270.0000
  0
INSERT
  8
17
  2
LONGP100
 10
37.9324
 20
64.6271
 30
0.0000
 41
1.7780
 42
1.7780
 43
1.0000
 50
270.0000
  0
INSERT
  8
17
  2
LONGP100
 10
40.4724
 20
64.6271
 30
0.0000
 41
1.7780
 42
1.7780
 43
1.0000
 50
270.0000
  0
INSERT
  8
17
  2
LONGP100
 10
40.4724
 20
64.6271
 30
0.0000
 41
1.7780
 42
1.7780
 43
1.0000
 50
270.0000
  0
INSERT
  8
17
  2
LONGP100
 10
43.0124
 20
64.6271
 30
0.0000
 41
1.7780
 42
1.7780
 43
1.0000
 50
270.0000
  0
INSERT
  8
17
  2
LONGP100
 10
43.0124
 20
64.6271
 30
0.0000
 41
1.7780
 42
1.7780
 43
1.0000
 50
270.0000
  0
INSERT
  8
17
  2
LONGP100
 10
45.5524
 20
64.6271
 30
0.0000
 41
1.7780
 42
1.7780
 43
1.0000
 50
270.0000
  0
INSERT
  8
17
  2
LONGP100
 10
45.5524
 20
64.6271
 30
0.0000
 41
1.7780
 42
1.7780
 43
1.0000
 50
270.0000
  0
INSERT
  8
17
  2
LONGP100
 10
48.0924
 20
64.6271
 30
0.0000
 41
1.7780
 42
1.7780
 43
1.0000
 50
270.0000
  0
INSERT
  8
17
  2
LONGP100
 10
48.0924
 20
64.6271
 30
0.0000
 41
1.7780
 42
1.7780
 43
1.0000
 50
270.0000
  0
INSERT
  8
17
  2
ROUNDP
 10
2.4951
 20
64.6171
 30
0.0000
 41
3.8100
 42
3.8100
 43
1.0000
 50
0.0000
  0
INSERT
  8
17
  2
ROUNDP
 10
2.4951
 20
64.6171
 30
0.0000
 41
3.8100
 42
3.8100
 43
1.0000
 50
0.0000
  0
INSERT
  8
17
  2
ROUNDP
 10
2.5051
 20
9.6271
 30
0.0000
 41
3.8100
 42
3.8100
 43
1.0000
 50
0.0000
  0
INSERT
  8
17
  2
ROUNDP
 10
2.5051
 20
9.6271
 30
0.0000
 41
3.8100
 42
3.8100
 43
1.0000
 50
0.0000
  0
INSERT
  8
17
  2
ROUNDP
 10
95.5151
 20
9.6271
 30
0.0000
 41
3.8100
 42
3.8100
 43
1.0000
 50
0.0000
  0
INSERT
  8
17
  2
ROUNDP
 10
95.5151
 20
9.6271
 30
0.0000
 41
3.8100
 42
3.8100
 43
1.0000
 50
0.0000
  0
INSERT
  8
17
  2
ROUNDP
 10
95.5051
 20
64.6271
 30
0.0000
 41
3.8100
 42
3.8100
 43
1.0000
 50
0.0000
  0
INSERT
  8
17
  2
ROUNDP
 10
95.5051
 20
64.6271
 30
0.0000
 41
3.8100
 42
3.8100
 43
1.0000
 50
0.0000
  0
POLYLINE
  8
21
 66
1
 10
0.0000
 20
0.0000
 30
0.0000
 40
0.0000
 41
0.0000
 70
1
  0
VERTEX
  8
21
 10
19.1216
 20
5.1284
 30
0.0000
 42
1.0000
  0
VERTEX
  8
21
 10
18.9184
 20
5.1284
 30
0.0000
 42
1.0000
  0
VERTEX
  8
21
 10
19.7216
 20
5.1284
 30
0.0000
 42
1.0000
  0
VERTEX
  8
21
 10
19.5184
 20
5.1284
 30
0.0000
 42
-1.0000
  0
SEQEND
  8
0
  0
POLYLINE
  8
21
 66
1
 10
0.0000
 20
0.0000
 30
0.0000
 40
0.0000
 41
0.0000
 70
1
  0
VERTEX
  8
21
 10
18.3716
 20
3.1300
 30
0.0000
  0
VERTEX
  8
21
 10
20.2684
 20
3.1300
 30
0.0000
 42
1.0000
  0
VERTEX
  8
21
 10
20.2684
 20
3.3332
 30
0.0000
  0
VERTEX
  8
21
 10
18.3716
 20
3.3332
 30
0.0000
 42
1.0000
  0
SEQEND
  8
0
  0
POLYLINE
  8
21
 66
1
 10
0.0000
 20
0.0000
 30
0.0000
 40
0.0000
 41
0.0000
 70
1
  0
VERTEX
  8
21
 10
20.3700
 20
3.2316
 30
0.0000
  0
VERTEX
  8
21
 10
20.3700
 20
5.1284
 30
0.0000
 42
1.0000
  0
VERTEX
  8
21
 10
20.1668
 20
5.1284
 30
0.0000
  0
VERTEX
  8
21
 10
20.1668
 20
3.2316
 30
0.0000
 42
1.0000
  0
SEQEND
  8
0
  0
POLYLINE
  8
21
 66
1
 10
0.0000
 20
0.0000
 30
0.0000
 40
0.0000
 41
0.0000
 70
1
  0
VERTEX
  8
21
 10
20.2684
 20
5.2300
 30
0.0000
  0
VERTEX
  8
21
 10
18.3716
 20
5.2300
 30
0.0000
 42
1.0000
  0
VERTEX
  8
21
 10
18.3716
 20
5.0268
 30
0.0000
  0
VERTEX
  8
21
 10
20.2684
 20
5.0268
 30
0.0000
 42
1.0000
  0
SEQEND
  8
0
  0
POLYLINE
  8
21
 66
1
 10
0.0000
 20
0.0000
 30
0.0000
 40
0.0000
 41
0.0000
 70
1
  0
VERTEX
  8
21
 10
18.2700
 20
5.1284
 30
0.0000
  0
VERTEX
  8
21
 10
18.2700
 20
3.2316
 30
0.0000
 42
1.0000
  0
VERTEX
  8
21
 10
18.4732
 20
3.2316
 30
0.0000
  0
VERTEX
  8
21
 10
18.4732
 20
5.1284
 30
0.0000
 42
1.0000
  0
SEQEND
  8
0
  0
POLYLINE
  8
21
 66
1
 10
0.0000
 20
0.0000
 30
0.0000
 40
0.0000
 41
0.0000
 70
1
  0
VERTEX
  8
21
 10
10.0616
 20
3.1900
 30
0.0000
  0
VERTEX
  8
21
 10
11.7584
 20
3.1900
 30
0.0000
 42
1.0000
  0
VERTEX
  8
21
 10
11.7584
 20
3.3932
 30
0.0000
  0
VERTEX
  8
21
 10
10.0616
 20
3.3932
 30
0.0000
 42
1.0000
  0
SEQEND
  8
0
  0
POLYLINE
  8
21
 66
1
 10
0.0000
 20
0.0000
 30
0.0000
 40
0.0000
 41
0.0000
 70
1
  0
VERTEX
  8
21
 10
11.8600
 20
3.2916
 30
0.0000
  0
VERTEX
  8
21
 10
11.8600
 20
4.9884
 30
0.0000
 42
1.0000
  0
VERTEX
  8
21
 10
11.6568
 20
4.9884
 30
0.0000
  0
VERTEX
  8
21
 10
11.6568
 20
3.2916
 30
0.0000
 42
1.0000
  0
SEQEND
  8
0
  0
POLYLINE
  8
21
 66
1
 10
0.0000
 20
0.0000
 30
0.0000
 40
0.0000
 41
0.0000
 70
1
  0
VERTEX
  8
21
 10
11.7584
 20
5.0900
 30
0.0000
  0
VERTEX
  8
21
 10
10.4600
 20
5.0900
 30
0.0000
 42
1.0000
  0
VERTEX
  8
21
 10
10.4600
 20
4.8868
 30
0.0000
  0
VERTEX
  8
21
 10
11.7584
 20
4.8868
 30
0.0000
 42
1.0000
  0
SEQEND
  8
0
  0
POLYLINE
  8
21
 66
1
 10
0.0000
 20
0.0000
 30
0.0000
 40
0.0000
 41
0.0000
 70
1
  0
VERTEX
  8
21
 10
10.4600
 20
5.0900
 30
0.0000
  0
VERTEX
  8
21
 10
10.0616
 20
5.0900
 30
0.0000
 42
1.0000
  0
VERTEX
  8
21
 10
10.0616
 20
4.8868
 30
0.0000
  0
VERTEX
  8
21
 10
10.4600
 20
4.8868
 30
0.0000
 42
1.0000
  0
SEQEND
  8
0
  0
POLYLINE
  8
21
 66
1
 10
0.0000
 20
0.0000
 30
0.0000
 40
0.0000
 41
0.0000
 70
1
  0
VERTEX
  8
21
 10
9.9600
 20
4.9884
 30
0.0000
  0
VERTEX
  8
21
 10
9.9600
 20
4.5900
 30
0.0000
 42
1.0000
  0
VERTEX
  8
21
 10
10.1632
 20
4.5900
 30
0.0000
  0
VERTEX
  8
21
 10
10.1632
 20
4.9884
 30
0.0000
 42
1.0000
  0
SEQEND
  8
0
  0
POLYLINE
  8
21
 66
1
 10
0.0000
 20
0.0000
 30
0.0000
 40
0.0000
 41
0.0000
 70
1
  0
VERTEX
  8
21
 10
9.9600
 20
4.5900
 30
0.0000
  0
VERTEX
  8
21
 10
9.9600
 20
3.2916
 30
0.0000
 42
1.0000
  0
VERTEX
  8
21
 10
10.1632
 20
3.2916
 30
0.0000
  0
VERTEX
  8
21
 10
10.1632
 20
4.5900
 30
0.0000
 42
1.0000
  0
SEQEND
  8
0
  0
POLYLINE
  8
21
 66
1
 10
0.0000
 20
0.0000
 30
0.0000
 40
0.0000
 41
0.0000
 70
1
  0
VERTEX
  8
21
 10
10.1334
 20
4.5182
 30
0.0000
  0
VERTEX
  8
21
 10
10.5318
 20
4.9166
 30
0.0000
 42
1.0000
  0
VERTEX
  8
21
 10
10.3882
 20
5.0602
 30
0.0000
  0
VERTEX
  8
21
 10
9.9898
 20
4.6618
 30
0.0000
 42
1.0000
  0
SEQEND
  8
0
  0
POLYLINE
  8
21
 66
1
 10
0.0000
 20
0.0000
 30
0.0000
 40
0.0000
 41
0.0000
 70
1
  0
VERTEX
  8
21
 10
45.1734
 20
39.0282
 30
0.0000
  0
VERTEX
  8
21
 10
45.5718
 20
39.4266
 30
0.0000
 42
1.0000
  0
VERTEX
  8
21
 10
45.4282
 20
39.5702
 30
0.0000
  0
VERTEX
  8
21
 10
45.0298
 20
39.1718
 30
0.0000
 42
1.0000
  0
SEQEND
  8
0
  0
POLYLINE
  8
21
 66
1
 10
0.0000
 20
0.0000
 30
0.0000
 40
0.0000
 41
0.0000
 70
1
  0
VERTEX
  8
21
 10
45.1016
 20
33.6000
 30
0.0000
  0
VERTEX
  8
21
 10
50.8984
 20
33.6000
 30
0.0000
 42
1.0000
  0
VERTEX
  8
21
 10
50.8984
 20
33.8032
 30
0.0000
  0
VERTEX
  8
21
 10
45.1016
 20
33.8032
 30
0.0000
 42
1.0000
  0
SEQEND
  8
0
  0
POLYLINE
  8
21
 66
1
 10
0.0000
 20
0.0000
 30
0.0000
 40
0.0000
 41
0.0000
 70
1
  0
VERTEX
  8
21
 10
51.0000
 20
33.7016
 30
0.0000
  0
VERTEX
  8
21
 10
51.0000
 20
39.4984
 30
0.0000
 42
1.0000
  0
VERTEX
  8
21
 10
50.7968
 20
39.4984
 30
0.0000
  0
VERTEX
  8
21
 10
50.7968
 20
33.7016
 30
0.0000
 42
1.0000
  0
SEQEND
  8
0
  0
POLYLINE
  8
21
 66
1
 10
0.0000
 20
0.0000
 30
0.0000
 40
0.0000
 41
0.0000
 70
1
  0
VERTEX
  8
21
 10
50.8984
 20
39.6000
 30
0.0000
  0
VERTEX
  8
21
 10
45.1016
 20
39.6000
 30
0.0000
 42
1.0000
  0
VERTEX
  8
21
 10
45.1016
 20
39.3968
 30
0.0000
  0
VERTEX
  8
21
 10
50.8984
 20
39.3968
 30
0.0000
 42
1.0000
  0
SEQEND
  8
0
  0
POLYLINE
  8
21
 66
1
 10
0.0000
 20
0.0000
 30
0.0000
 40
0.0000
 41
0.0000
 70
1
  0
VERTEX
  8
21
 10
45.0000
 20
39.4984
 30
0.0000
  0
VERTEX
  8
21
 10
45.0000
 20
33.7016
 30
0.0000
 42
1.0000
  0
VERTEX
  8
21
 10
45.2032
 20
33.7016
 30
0.0000
  0
VERTEX
  8
21
 10
45.2032
 20
39.4984
 30
0.0000
 42
1.0000
  0
SEQEND
  8
0
  0
POLYLINE
  8
21
 66
1
 10
0.0000
 20
0.0000
 30
0.0000
 40
0.0000
 41
0.0000
 70
1
  0
VERTEX
  8
21
 10
5.6500
 20
40.1265
 30
0.0000
  0
VERTEX
  8
21
 10
10.7300
 20
40.1265
 30
0.0000
 42
1.0000
  0
VERTEX
  8
21
 10
10.7300
 20
40.2535
 30
0.0000
  0
VERTEX
  8
21
 10
5.6500
 20
40.2535
 30
0.0000
 42
1.0000
  0
SEQEND
  8
0
  0
POLYLINE
  8
21
 66
1
 10
0.0000
 20
0.0000
 30
0.0000
 40
0.0000
 41
0.0000
 70
1
  0
VERTEX
  8
21
 10
10.6665
 20
40.1900
 30
0.0000
  0
VERTEX
  8
21
 10
10.6665
 20
32.5700
 30
0.0000
 42
1.0000
  0
VERTEX
  8
21
 10
10.7935
 20
32.5700
 30
0.0000
  0
VERTEX
  8
21
 10
10.7935
 20
40.1900
 30
0.0000
 42
1.0000
  0
SEQEND
  8
0
  0
POLYLINE
  8
21
 66
1
 10
0.0000
 20
0.0000
 30
0.0000
 40
0.0000
 41
0.0000
 70
1
  0
VERTEX
  8
21
 10
10.7300
 20
32.6335
 30
0.0000
  0
VERTEX
  8
21
 10
5.6500
 20
32.6335
 30
0.0000
 42
1.0000
  0
VERTEX
  8
21
 10
5.6500
 20
32.5065
 30
0.0000
  0
VERTEX
  8
21
 10
10.7300
 20
32.5065
 30
0.0000
 42
1.0000
  0
SEQEND
  8
0
  0
POLYLINE
  8
21
 66
1
 10
0.0000
 20
0.0000
 30
0.0000
 40
0.0000
 41
0.0000
 70
1
  0
VERTEX
  8
21
 10
5.7135
 20
32.5700
 30
0.0000
  0
VERTEX
  8
21
 10
5.7135
 20
40.1900
 30
0.0000
 42
1.0000
  0
VERTEX
  8
21
 10
5.5865
 20
40.1900
 30
0.0000
  0
VERTEX
  8
21
 10
5.5865
 20
32.5700
 30
0.0000
 42
1.0000
  0
SEQEND
  8
0
  0
INSERT
  8
17
  2
SQUAREP
 10
6.9200
 20
38.9200
 30
0.0000
 41
1.6510
 42
1.6510
 43
1.0000
 50
0.0000
  0
INSERT
  8
17
  2
SQUAREP
 10
6.9200
 20
38.9200
 30
0.0000
 41
1.6510
 42
1.6510
 43
1.0000
 50
0.0000
  0
INSERT
  8
17
  2
ROUNDP
 10
6.9200
 20
36.3800
 30
0.0000
 41
1.6510
 42
1.6510
 43
1.0000
 50
0.0000
  0
INSERT
  8
17
  2
ROUNDP
 10
6.9200
 20
36.3800
 30
0.0000
 41
1.6510
 42
1.6510
 43
1.0000
 50
0.0000
  0
INSERT
  8
17
  2
ROUNDP
 10
6.9200
 20
33.8400
 30
0.0000
 41
1.6510
 42
1.6510
 43
1.0000
 50
0.0000
  0
INSERT
  8
17
  2
ROUNDP
 10
6.9200
 20
33.8400
 30
0.0000
 41
1.6510
 42
1.6510
 43
1.0000
 50
0.0000
  0
INSERT
  8
17
  2
ROUNDP
 10
9.4600
 20
33.8400
 30
0.0000
 41
1.6510
 42
1.6510
 43
1.0000
 50
0.0000
  0
INSERT
  8
17
  2
ROUNDP
 10
9.4600
 20
33.8400
 30
0.0000
 41
1.6510
 42
1.6510
 43
1.0000
 50
0.0000
  0
INSERT
  8
17
  2
ROUNDP
 10
9.4600
 20
36.3800
 30
0.0000
 41
1.6510
 42
1.6510
 43
1.0000
 50
0.0000
  0
INSERT
  8
17
  2
ROUNDP
 10
9.4600
 20
36.3800
 30
0.0000
 41
1.6510
 42
1.6510
 43
1.0000
 50
0.0000
  0
INSERT
  8
17
  2
ROUNDP
 10
9.4600
 20
38.9200
 30
0.0000
 41
1.6510
 42
1.6510
 43
1.0000
 50
0.0000
  0
INSERT
  8
17
  2
ROUNDP
 10
9.4600
 20
38.9200
 30
0.0000
 41
1.6510
 42
1.6510
 43
1.0000
 50
0.0000
  0
POLYLINE
  8
21
 66
1
 10
0.0000
 20
0.0000
 30
0.0000
 40
0.0000
 41
0.0000
 70
1
  0
VERTEX
  8
21
 10
60.9511
 20
59.2239
 30
0.0000
  0
VERTEX
  8
21
 10
60.3161
 20
58.5889
 30
0.0000
 42
1.0000
  0
VERTEX
  8
21
 10
60.4239
 20
58.4811
 30
0.0000
  0
VERTEX
  8
21
 10
61.0589
 20
59.1161
 30
0.0000
 42
1.0000
  0
SEQEND
  8
0
  0
POLYLINE
  8
21
 66
1
 10
0.0000
 20
0.0000
 30
0.0000
 40
0.0000
 41
0.0000
 70
1
  0
VERTEX
  8
21
 10
60.3161
 20
57.2111
 30
0.0000
  0
VERTEX
  8
21
 10
60.9511
 20
56.5761
 30
0.0000
 42
1.0000
  0
VERTEX
  8
21
 10
61.0589
 20
56.6839
 30
0.0000
  0
VERTEX
  8
21
 10
60.4239
 20
57.3189
 30
0.0000
 42
1.0000
  0
SEQEND
  8
0
  0
POLYLINE
  8
21
 66
1
 10
0.0000
 20
0.0000
 30
0.0000
 40
0.0000
 41
0.0000
 70
1
  0
VERTEX
  8
21
 10
60.9511
 20
56.6839
 30
0.0000
  0
VERTEX
  8
21
 10
60.3161
 20
56.0489
 30
0.0000
 42
1.0000
  0
VERTEX
  8
21
 10
60.4239
 20
55.9411
 30
0.0000
  0
VERTEX
  8
21
 10
61.0589
 20
56.5761
 30
0.0000
 42
1.0000
  0
SEQEND
  8
0
  0
POLYLINE
  8
21
 66
1
 10
0.0000
 20
0.0000
 30
0.0000
 40
0.0000
 41
0.0000
 70
1
  0
VERTEX
  8
21
 10
60.3161
 20
54.6711
 30
0.0000
  0
VERTEX
  8
21
 10
60.9511
 20
54.0361
 30
0.0000
 42
1.0000
  0
VERTEX
  8
21
 10
61.0589
 20
54.1439
 30
0.0000
  0
VERTEX
  8
21
 10
60.4239
 20
54.7789
 30
0.0000
 42
1.0000
  0
SEQEND
  8
0
  0
POLYLINE
  8
21
 66
1
 10
0.0000
 20
0.0000
 30
0.0000
 40
0.0000
 41
0.0000
 70
1
  0
VERTEX
  8
21
 10
61.0050
 20
59.0938
 30
0.0000
  0
VERTEX
  8
21
 10
64.8150
 20
59.0938
 30
0.0000
 42
1.0000
  0
VERTEX
  8
21
 10
64.8150
 20
59.2462
 30
0.0000
  0
VERTEX
  8
21
 10
61.0050
 20
59.2462
 30
0.0000
 42
1.0000
  0
SEQEND
  8
0
  0
POLYLINE
  8
21
 66
1
 10
0.0000
 20
0.0000
 30
0.0000
 40
0.0000
 41
0.0000
 70
1
  0
VERTEX
  8
21
 10
64.7611
 20
59.1161
 30
0.0000
  0
VERTEX
  8
21
 10
65.3961
 20
58.4811
 30
0.0000
 42
1.0000
  0
VERTEX
  8
21
 10
65.5039
 20
58.5889
 30
0.0000
  0
VERTEX
  8
21
 10
64.8689
 20
59.2239
 30
0.0000
 42
1.0000
  0
SEQEND
  8
0
  0
POLYLINE
  8
21
 66
1
 10
0.0000
 20
0.0000
 30
0.0000
 40
0.0000
 41
0.0000
 70
1
  0
VERTEX
  8
21
 10
65.3738
 20
58.5350
 30
0.0000
  0
VERTEX
  8
21
 10
65.3738
 20
57.2650
 30
0.0000
 42
1.0000
  0
VERTEX
  8
21
 10
65.5262
 20
57.2650
 30
0.0000
  0
VERTEX
  8
21
 10
65.5262
 20
58.5350
 30
0.0000
 42
1.0000
  0
SEQEND
  8
0
  0
POLYLINE
  8
21
 66
1
 10
0.0000
 20
0.0000
 30
0.0000
 40
0.0000
 41
0.0000
 70
1
  0
VERTEX
  8
21
 10
65.3961
 20
57.3189
 30
0.0000
  0
VERTEX
  8
21
 10
64.7611
 20
56.6839
 30
0.0000
 42
1.0000
  0
VERTEX
  8
21
 10
64.8689
 20
56.5761
 30
0.0000
  0
VERTEX
  8
21
 10
65.5039
 20
57.2111
 30
0.0000
 42
1.0000
  0
SEQEND
  8
0
  0
POLYLINE
  8
21
 66
1
 10
0.0000
 20
0.0000
 30
0.0000
 40
0.0000
 41
0.0000
 70
1
  0
VERTEX
  8
21
 10
64.7611
 20
56.5761
 30
0.0000
  0
VERTEX
  8
21
 10
65.3961
 20
55.9411
 30
0.0000
 42
1.0000
  0
VERTEX
  8
21
 10
65.5039
 20
56.0489
 30
0.0000
  0
VERTEX
  8
21
 10
64.8689
 20
56.6839
 30
0.0000
 42
1.0000
  0
SEQEND
  8
0
  0
POLYLINE
  8
21
 66
1
 10
0.0000
 20
0.0000
 30
0.0000
 40
0.0000
 41
0.0000
 70
1
  0
VERTEX
  8
21
 10
65.3738
 20
55.9950
 30
0.0000
  0
VERTEX
  8
21
 10
65.3738
 20
54.7250
 30
0.0000
 42
1.0000
  0
VERTEX
  8
21
 10
65.5262
 20
54.7250
 30
0.0000
  0
VERTEX
  8
21
 10
65.5262
 20
55.9950
 30
0.0000
 42
1.0000
  0
SEQEND
  8
0
  0
POLYLINE
  8
21
 66
1
 10
0.0000
 20
0.0000
 30
0.0000
 40
0.0000
 41
0.0000
 70
1
  0
VERTEX
  8
21
 10
65.3961
 20
54.7789
 30
0.0000
  0
VERTEX
  8
21
 10
64.7611
 20
54.1439
 30
0.0000
 42
1.0000
  0
VERTEX
  8
21
 10
64.8689
 20
54.0361
 30
0.0000
  0
VERTEX
  8
21
 10
65.5039
 20
54.6711
 30
0.0000
 42
1.0000
  0
SEQEND
  8
0
  0
POLYLINE
  8
21
 66
1
 10
0.0000
 20
0.0000
 30
0.0000
 40
0.0000
 41
0.0000
 70
1
  0
VERTEX
  8
21
 10
64.8150
 20
56.7062
 30
0.0000
  0
VERTEX
  8
21
 10
61.0050
 20
56.7062
 30
0.0000
 42
1.0000
  0
VERTEX
  8
21
 10
61.0050
 20
56.5538
 30
0.0000
  0
VERTEX
  8
21
 10
64.8150
 20
56.5538
 30
0.0000
 42
1.0000
  0
SEQEND
  8
0
  0
POLYLINE
  8
21
 66
1
 10
0.0000
 20
0.0000
 30
0.0000
 40
0.0000
 41
0.0000
 70
1
  0
VERTEX
  8
21
 10
64.8150
 20
54.1662
 30
0.0000
  0
VERTEX
  8
21
 10
61.0050
 20
54.1662
 30
0.0000
 42
1.0000
  0
VERTEX
  8
21
 10
61.0050
 20
54.0138
 30
0.0000
  0
VERTEX
  8
21
 10
64.8150
 20
54.0138
 30
0.0000
 42
1.0000
  0
SEQEND
  8
0
  0
POLYLINE
  8
21
 66
1
 10
0.0000
 20
0.0000
 30
0.0000
 40
0.0000
 41
0.0000
 70
1
  0
VERTEX
  8
21
 10
60.2938
 20
55.9950
 30
0.0000
  0
VERTEX
  8
21
 10
60.2938
 20
54.7250
 30
0.0000
 42
1.0000
  0
VERTEX
  8
21
 10
60.4462
 20
54.7250
 30
0.0000
  0
VERTEX
  8
21
 10
60.4462
 20
55.9950
 30
0.0000
 42
1.0000
  0
SEQEND
  8
0
  0
POLYLINE
  8
21
 66
1
 10
0.0000
 20
0.0000
 30
0.0000
 40
0.0000
 41
0.0000
 70
1
  0
VERTEX
  8
21
 10
60.2938
 20
58.5350
 30
0.0000
  0
VERTEX
  8
21
 10
60.2938
 20
57.2650
 30
0.0000
 42
1.0000
  0
VERTEX
  8
21
 10
60.4462
 20
57.2650
 30
0.0000
  0
VERTEX
  8
21
 10
60.4462
 20
58.5350
 30
0.0000
 42
1.0000
  0
SEQEND
  8
0
  0
INSERT
  8
17
  2
OCTAGONP
 10
61.6400
 20
57.9000
 30
0.0000
 41
1.5240
 42
1.5240
 43
1.0000
 50
270.0000
  0
INSERT
  8
17
  2
OCTAGONP
 10
61.6400
 20
57.9000
 30
0.0000
 41
1.5240
 42
1.5240
 43
1.0000
 50
270.0000
  0
INSERT
  8
17
  2
OCTAGONP
 10
64.1800
 20
57.9000
 30
0.0000
 41
1.5240
 42
1.5240
 43
1.0000
 50
270.0000
  0
INSERT
  8
17
  2
OCTAGONP
 10
64.1800
 20
57.9000
 30
0.0000
 41
1.5240
 42
1.5240
 43
1.0000
 50
270.0000
  0
INSERT
  8
17
  2
OCTAGONP
 10
61.6400
 20
55.3600
 30
0.0000
 41
1.5240
 42
1.5240
 43
1.0000
 50
270.0000
  0
INSERT
  8
17
  2
OCTAGONP
 10
61.6400
 20
55.3600
 30
0.0000
 41
1.5240
 42
1.5240
 43
1.0000
 50
270.0000
  0
INSERT
  8
17
  2
OCTAGONP
 10
64.1800
 20
55.3600
 30
0.0000
 41
1.5240
 42
1.5240
 43
1.0000
 50
270.0000
  0
INSERT
  8
17
  2
OCTAGONP
 10
64.1800
 20
55.3600
 30
0.0000
 41
1.5240
 42
1.5240
 43
1.0000
 50
270.0000
  0
POLYLINE
  8
21
 66
1
 10
0.0000
 20
0.0000
 30
0.0000
 40
0.0000
 41
0.0000
 70
1
  0
VERTEX
  8
21
 10
95.1938
 20
34.6950
 30
0.0000
  0
VERTEX
  8
21
 10
95.1938
 20
33.4250
 30
0.0000
 42
1.0000
  0
VERTEX
  8
21
 10
95.3462
 20
33.4250
 30
0.0000
  0
VERTEX
  8
21
 10
95.3462
 20
34.6950
 30
0.0000
 42
1.0000
  0
SEQEND
  8
0
  0
POLYLINE
  8
21
 66
1
 10
0.0000
 20
0.0000
 30
0.0000
 40
0.0000
 41
0.0000
 70
1
  0
VERTEX
  8
21
 10
95.2161
 20
33.4789
 30
0.0000
  0
VERTEX
  8
21
 10
94.5811
 20
32.8439
 30
0.0000
 42
1.0000
  0
VERTEX
  8
21
 10
94.6889
 20
32.7361
 30
0.0000
  0
VERTEX
  8
21
 10
95.3239
 20
33.3711
 30
0.0000
 42
1.0000
  0
SEQEND
  8
0
  0
POLYLINE
  8
21
 66
1
 10
0.0000
 20
0.0000
 30
0.0000
 40
0.0000
 41
0.0000
 70
1
  0
VERTEX
  8
21
 10
94.6350
 20
32.8662
 30
0.0000
  0
VERTEX
  8
21
 10
93.3650
 20
32.8662
 30
0.0000
 42
1.0000
  0
VERTEX
  8
21
 10
93.3650
 20
32.7138
 30
0.0000
  0
VERTEX
  8
21
 10
94.6350
 20
32.7138
 30
0.0000
 42
1.0000
  0
SEQEND
  8
0
  0
POLYLINE
  8
21
 66
1
 10
0.0000
 20
0.0000
 30
0.0000
 40
0.0000
 41
0.0000
 70
1
  0
VERTEX
  8
21
 10
93.4189
 20
32.8439
 30
0.0000
  0
VERTEX
  8
21
 10
92.7839
 20
33.4789
 30
0.0000
 42
1.0000
  0
VERTEX
  8
21
 10
92.6761
 20
33.3711
 30
0.0000
  0
VERTEX
  8
21
 10
93.3111
 20
32.7361
 30
0.0000
 42
1.0000
  0
SEQEND
  8
0
  0
POLYLINE
  8
21
 66
1
 10
0.0000
 20
0.0000
 30
0.0000
 40
0.0000
 41
0.0000
 70
1
  0
VERTEX
  8
21
 10
94.5811
 20
37.8161
 30
0.0000
  0
VERTEX
  8
21
 10
95.2161
 20
37.1811
 30
0.0000
 42
1.0000
  0
VERTEX
  8
21
 10
95.3239
 20
37.2889
 30
0.0000
  0
VERTEX
  8
21
 10
94.6889
 20
37.9239
 30
0.0000
 42
1.0000
  0
SEQEND
  8
0
  0
POLYLINE
  8
21
 66
1
 10
0.0000
 20
0.0000
 30
0.0000
 40
0.0000
 41
0.0000
 70
1
  0
VERTEX
  8
21
 10
95.1938
 20
37.2350
 30
0.0000
  0
VERTEX
  8
21
 10
95.1938
 20
35.9650
 30
0.0000
 42
1.0000
  0
VERTEX
  8
21
 10
95.3462
 20
35.9650
 30
0.0000
  0
VERTEX
  8
21
 10
95.3462
 20
37.2350
 30
0.0000
 42
1.0000
  0
SEQEND
  8
0
  0
POLYLINE
  8
21
 66
1
 10
0.0000
 20
0.0000
 30
0.0000
 40
0.0000
 41
0.0000
 70
1
  0
VERTEX
  8
21
 10
95.2161
 20
36.0189
 30
0.0000
  0
VERTEX
  8
21
 10
94.5811
 20
35.3839
 30
0.0000
 42
1.0000
  0
VERTEX
  8
21
 10
94.6889
 20
35.2761
 30
0.0000
  0
VERTEX
  8
21
 10
95.3239
 20
35.9111
 30
0.0000
 42
1.0000
  0
SEQEND
  8
0
  0
POLYLINE
  8
21
 66
1
 10
0.0000
 20
0.0000
 30
0.0000
 40
0.0000
 41
0.0000
 70
1
  0
VERTEX
  8
21
 10
94.6350
 20
35.4062
 30
0.0000
  0
VERTEX
  8
21
 10
93.3650
 20
35.4062
 30
0.0000
 42
1.0000
  0
VERTEX
  8
21
 10
93.3650
 20
35.2538
 30
0.0000
  0
VERTEX
  8
21
 10
94.6350
 20
35.2538
 30
0.0000
 42
1.0000
  0
SEQEND
  8
0
  0
POLYLINE
  8
21
 66
1
 10
0.0000
 20
0.0000
 30
0.0000
 40
0.0000
 41
0.0000
 70
1
  0
VERTEX
  8
21
 10
93.4189
 20
35.3839
 30
0.0000
  0
VERTEX
  8
21
 10
92.7839
 20
36.0189
 30
0.0000
 42
1.0000
  0
VERTEX
  8
21
 10
92.6761
 20
35.9111
 30
0.0000
  0
VERTEX
  8
21
 10
93.3111
 20
35.2761
 30
0.0000
 42
1.0000
  0
SEQEND
  8
0
  0
POLYLINE
  8
21
 66
1
 10
0.0000
 20
0.0000
 30
0.0000
 40
0.0000
 41
0.0000
 70
1
  0
VERTEX
  8
21
 10
92.8062
 20
35.9650
 30
0.0000
  0
VERTEX
  8
21
 10
92.8062
 20
37.2350
 30
0.0000
 42
1.0000
  0
VERTEX
  8
21
 10
92.6538
 20
37.2350
 30
0.0000
  0
VERTEX
  8
21
 10
92.6538
 20
35.9650
 30
0.0000
 42
1.0000
  0
SEQEND
  8
0
  0
POLYLINE
  8
21
 66
1
 10
0.0000
 20
0.0000
 30
0.0000
 40
0.0000
 41
0.0000
 70
1
  0
VERTEX
  8
21
 10
92.7839
 20
37.1811
 30
0.0000
  0
VERTEX
  8
21
 10
93.4189
 20
37.8161
 30
0.0000
 42
1.0000
  0
VERTEX
  8
21
 10
93.3111
 20
37.9239
 30
0.0000
  0
VERTEX
  8
21
 10
92.6761
 20
37.2889
 30
0.0000
 42
1.0000
  0
SEQEND
  8
0
  0
POLYLINE
  8
21
 66
1
 10
0.0000
 20
0.0000
 30
0.0000
 40
0.0000
 41
0.0000
 70
1
  0
VERTEX
  8
21
 10
95.3239
 20
34.7489
 30
0.0000
  0
VERTEX
  8
21
 10
94.6889
 20
35.3839
 30
0.0000
 42
1.0000
  0
VERTEX
  8
21
 10
94.5811
 20
35.2761
 30
0.0000
  0
VERTEX
  8
21
 10
95.2161
 20
34.6411
 30
0.0000
 42
1.0000
  0
SEQEND
  8
0
  0
POLYLINE
  8
21
 66
1
 10
0.0000
 20
0.0000
 30
0.0000
 40
0.0000
 41
0.0000
 70
1
  0
VERTEX
  8
21
 10
93.3111
 20
35.3839
 30
0.0000
  0
VERTEX
  8
21
 10
92.6761
 20
34.7489
 30
0.0000
 42
1.0000
  0
VERTEX
  8
21
 10
92.7839
 20
34.6411
 30
0.0000
  0
VERTEX
  8
21
 10
93.4189
 20
35.2761
 30
0.0000
 42
1.0000
  0
SEQEND
  8
0
  0
POLYLINE
  8
21
 66
1
 10
0.0000
 20
0.0000
 30
0.0000
 40
0.0000
 41
0.0000
 70
1
  0
VERTEX
  8
21
 10
92.8062
 20
33.4250
 30
0.0000
  0
VERTEX
  8
21
 10
92.8062
 20
34.6950
 30
0.0000
 42
1.0000
  0
VERTEX
  8
21
 10
92.6538
 20
34.6950
 30
0.0000
  0
VERTEX
  8
21
 10
92.6538
 20
33.4250
 30
0.0000
 42
1.0000
  0
SEQEND
  8
0
  0
POLYLINE
  8
21
 66
1
 10
0.0000
 20
0.0000
 30
0.0000
 40
0.0000
 41
0.0000
 70
1
  0
VERTEX
  8
21
 10
95.1938
 20
42.3150
 30
0.0000
  0
VERTEX
  8
21
 10
95.1938
 20
41.0450
 30
0.0000
 42
1.0000
  0
VERTEX
  8
21
 10
95.3462
 20
41.0450
 30
0.0000
  0
VERTEX
  8
21
 10
95.3462
 20
42.3150
 30
0.0000
 42
1.0000
  0
SEQEND
  8
0
  0
POLYLINE
  8
21
 66
1
 10
0.0000
 20
0.0000
 30
0.0000
 40
0.0000
 41
0.0000
 70
1
  0
VERTEX
  8
21
 10
95.2161
 20
41.0989
 30
0.0000
  0
VERTEX
  8
21
 10
94.5811
 20
40.4639
 30
0.0000
 42
1.0000
  0
VERTEX
  8
21
 10
94.6889
 20
40.3561
 30
0.0000
  0
VERTEX
  8
21
 10
95.3239
 20
40.9911
 30
0.0000
 42
1.0000
  0
SEQEND
  8
0
  0
POLYLINE
  8
21
 66
1
 10
0.0000
 20
0.0000
 30
0.0000
 40
0.0000
 41
0.0000
 70
1
  0
VERTEX
  8
21
 10
94.6350
 20
40.4862
 30
0.0000
  0
VERTEX
  8
21
 10
93.3650
 20
40.4862
 30
0.0000
 42
1.0000
  0
VERTEX
  8
21
 10
93.3650
 20
40.3338
 30
0.0000
  0
VERTEX
  8
21
 10
94.6350
 20
40.3338
 30
0.0000
 42
1.0000
  0
SEQEND
  8
0
  0
POLYLINE
  8
21
 66
1
 10
0.0000
 20
0.0000
 30
0.0000
 40
0.0000
 41
0.0000
 70
1
  0
VERTEX
  8
21
 10
93.4189
 20
40.4639
 30
0.0000
  0
VERTEX
  8
21
 10
92.7839
 20
41.0989
 30
0.0000
 42
1.0000
  0
VERTEX
  8
21
 10
92.6761
 20
40.9911
 30
0.0000
  0
VERTEX
  8
21
 10
93.3111
 20
40.3561
 30
0.0000
 42
1.0000
  0
SEQEND
  8
0
  0
POLYLINE
  8
21
 66
1
 10
0.0000
 20
0.0000
 30
0.0000
 40
0.0000
 41
0.0000
 70
1
  0
VERTEX
  8
21
 10
94.5811
 20
40.3561
 30
0.0000
  0
VERTEX
  8
21
 10
95.2161
 20
39.7211
 30
0.0000
 42
1.0000
  0
VERTEX
  8
21
 10
95.3239
 20
39.8289
 30
0.0000
  0
VERTEX
  8
21
 10
94.6889
 20
40.4639
 30
0.0000
 42
1.0000
  0
SEQEND
  8
0
  0
POLYLINE
  8
21
 66
1
 10
0.0000
 20
0.0000
 30
0.0000
 40
0.0000
 41
0.0000
 70
1
  0
VERTEX
  8
21
 10
95.1938
 20
39.7750
 30
0.0000
  0
VERTEX
  8
21
 10
95.1938
 20
38.5050
 30
0.0000
 42
1.0000
  0
VERTEX
  8
21
 10
95.3462
 20
38.5050
 30
0.0000
  0
VERTEX
  8
21
 10
95.3462
 20
39.7750
 30
0.0000
 42
1.0000
  0
SEQEND
  8
0
  0
POLYLINE
  8
21
 66
1
 10
0.0000
 20
0.0000
 30
0.0000
 40
0.0000
 41
0.0000
 70
1
  0
VERTEX
  8
21
 10
95.2161
 20
38.5589
 30
0.0000
  0
VERTEX
  8
21
 10
94.5811
 20
37.9239
 30
0.0000
 42
1.0000
  0
VERTEX
  8
21
 10
94.6889
 20
37.8161
 30
0.0000
  0
VERTEX
  8
21
 10
95.3239
 20
38.4511
 30
0.0000
 42
1.0000
  0
SEQEND
  8
0
  0
POLYLINE
  8
21
 66
1
 10
0.0000
 20
0.0000
 30
0.0000
 40
0.0000
 41
0.0000
 70
1
  0
VERTEX
  8
21
 10
94.6350
 20
37.9462
 30
0.0000
  0
VERTEX
  8
21
 10
93.3650
 20
37.9462
 30
0.0000
 42
1.0000
  0
VERTEX
  8
21
 10
93.3650
 20
37.7938
 30
0.0000
  0
VERTEX
  8
21
 10
94.6350
 20
37.7938
 30
0.0000
 42
1.0000
  0
SEQEND
  8
0
  0
POLYLINE
  8
21
 66
1
 10
0.0000
 20
0.0000
 30
0.0000
 40
0.0000
 41
0.0000
 70
1
  0
VERTEX
  8
21
 10
93.4189
 20
37.9239
 30
0.0000
  0
VERTEX
  8
21
 10
92.7839
 20
38.5589
 30
0.0000
 42
1.0000
  0
VERTEX
  8
21
 10
92.6761
 20
38.4511
 30
0.0000
  0
VERTEX
  8
21
 10
93.3111
 20
37.8161
 30
0.0000
 42
1.0000
  0
SEQEND
  8
0
  0
POLYLINE
  8
21
 66
1
 10
0.0000
 20
0.0000
 30
0.0000
 40
0.0000
 41
0.0000
 70
1
  0
VERTEX
  8
21
 10
92.8062
 20
38.5050
 30
0.0000
  0
VERTEX
  8
21
 10
92.8062
 20
39.7750
 30
0.0000
 42
1.0000
  0
VERTEX
  8
21
 10
92.6538
 20
39.7750
 30
0.0000
  0
VERTEX
  8
21
 10
92.6538
 20
38.5050
 30
0.0000
 42
1.0000
  0
SEQEND
  8
0
  0
POLYLINE
  8
21
 66
1
 10
0.0000
 20
0.0000
 30
0.0000
 40
0.0000
 41
0.0000
 70
1
  0
VERTEX
  8
21
 10
92.7839
 20
39.7211
 30
0.0000
  0
VERTEX
  8
21
 10
93.4189
 20
40.3561
 30
0.0000
 42
1.0000
  0
VERTEX
  8
21
 10
93.3111
 20
40.4639
 30
0.0000
  0
VERTEX
  8
21
 10
92.6761
 20
39.8289
 30
0.0000
 42
1.0000
  0
SEQEND
  8
0
  0
POLYLINE
  8
21
 66
1
 10
0.0000
 20
0.0000
 30
0.0000
 40
0.0000
 41
0.0000
 70
1
  0
VERTEX
  8
21
 10
94.6350
 20
43.0262
 30
0.0000
  0
VERTEX
  8
21
 10
93.3650
 20
43.0262
 30
0.0000
 42
1.0000
  0
VERTEX
  8
21
 10
93.3650
 20
42.8738
 30
0.0000
  0
VERTEX
  8
21
 10
94.6350
 20
42.8738
 30
0.0000
 42
1.0000
  0
SEQEND
  8
0
  0
POLYLINE
  8
21
 66
1
 10
0.0000
 20
0.0000
 30
0.0000
 40
0.0000
 41
0.0000
 70
1
  0
VERTEX
  8
21
 10
95.3239
 20
42.3689
 30
0.0000
  0
VERTEX
  8
21
 10
94.6889
 20
43.0039
 30
0.0000
 42
1.0000
  0
VERTEX
  8
21
 10
94.5811
 20
42.8961
 30
0.0000
  0
VERTEX
  8
21
 10
95.2161
 20
42.2611
 30
0.0000
 42
1.0000
  0
SEQEND
  8
0
  0
POLYLINE
  8
21
 66
1
 10
0.0000
 20
0.0000
 30
0.0000
 40
0.0000
 41
0.0000
 70
1
  0
VERTEX
  8
21
 10
93.3111
 20
43.0039
 30
0.0000
  0
VERTEX
  8
21
 10
92.6761
 20
42.3689
 30
0.0000
 42
1.0000
  0
VERTEX
  8
21
 10
92.7839
 20
42.2611
 30
0.0000
  0
VERTEX
  8
21
 10
93.4189
 20
42.8961
 30
0.0000
 42
1.0000
  0
SEQEND
  8
0
  0
POLYLINE
  8
21
 66
1
 10
0.0000
 20
0.0000
 30
0.0000
 40
0.0000
 41
0.0000
 70
1
  0
VERTEX
  8
21
 10
92.8062
 20
41.0450
 30
0.0000
  0
VERTEX
  8
21
 10
92.8062
 20
42.3150
 30
0.0000
 42
1.0000
  0
VERTEX
  8
21
 10
92.6538
 20
42.3150
 30
0.0000
  0
VERTEX
  8
21
 10
92.6538
 20
41.0450
 30
0.0000
 42
1.0000
  0
SEQEND
  8
0
  0
POLYLINE
  8
21
 66
1
 10
0.0000
 20
0.0000
 30
0.0000
 40
0.0000
 41
0.0000
 70
1
  0
VERTEX
  8
21
 10
95.1938
 20
32.1550
 30
0.0000
  0
VERTEX
  8
21
 10
95.1938
 20
30.8850
 30
0.0000
 42
1.0000
  0
VERTEX
  8
21
 10
95.3462
 20
30.8850
 30
0.0000
  0
VERTEX
  8
21
 10
95.3462
 20
32.1550
 30
0.0000
 42
1.0000
  0
SEQEND
  8
0
  0
POLYLINE
  8
21
 66
1
 10
0.0000
 20
0.0000
 30
0.0000
 40
0.0000
 41
0.0000
 70
1
  0
VERTEX
  8
21
 10
95.2161
 20
30.9389
 30
0.0000
  0
VERTEX
  8
21
 10
94.5811
 20
30.3039
 30
0.0000
 42
1.0000
  0
VERTEX
  8
21
 10
94.6889
 20
30.1961
 30
0.0000
  0
VERTEX
  8
21
 10
95.3239
 20
30.8311
 30
0.0000
 42
1.0000
  0
SEQEND
  8
0
  0
POLYLINE
  8
21
 66
1
 10
0.0000
 20
0.0000
 30
0.0000
 40
0.0000
 41
0.0000
 70
1
  0
VERTEX
  8
21
 10
94.6350
 20
30.3262
 30
0.0000
  0
VERTEX
  8
21
 10
93.3650
 20
30.3262
 30
0.0000
 42
1.0000
  0
VERTEX
  8
21
 10
93.3650
 20
30.1738
 30
0.0000
  0
VERTEX
  8
21
 10
94.6350
 20
30.1738
 30
0.0000
 42
1.0000
  0
SEQEND
  8
0
  0
POLYLINE
  8
21
 66
1
 10
0.0000
 20
0.0000
 30
0.0000
 40
0.0000
 41
0.0000
 70
1
  0
VERTEX
  8
21
 10
93.4189
 20
30.3039
 30
0.0000
  0
VERTEX
  8
21
 10
92.7839
 20
30.9389
 30
0.0000
 42
1.0000
  0
VERTEX
  8
21
 10
92.6761
 20
30.8311
 30
0.0000
  0
VERTEX
  8
21
 10
93.3111
 20
30.1961
 30
0.0000
 42
1.0000
  0
SEQEND
  8
0
  0
POLYLINE
  8
21
 66
1
 10
0.0000
 20
0.0000
 30
0.0000
 40
0.0000
 41
0.0000
 70
1
  0
VERTEX
  8
21
 10
95.3239
 20
32.2089
 30
0.0000
  0
VERTEX
  8
21
 10
94.6889
 20
32.8439
 30
0.0000
 42
1.0000
  0
VERTEX
  8
21
 10
94.5811
 20
32.7361
 30
0.0000
  0
VERTEX
  8
21
 10
95.2161
 20
32.1011
 30
0.0000
 42
1.0000
  0
SEQEND
  8
0
  0
POLYLINE
  8
21
 66
1
 10
0.0000
 20
0.0000
 30
0.0000
 40
0.0000
 41
0.0000
 70
1
  0
VERTEX
  8
21
 10
93.3111
 20
32.8439
 30
0.0000
  0
VERTEX
  8
21
 10
92.6761
 20
32.2089
 30
0.0000
 42
1.0000
  0
VERTEX
  8
21
 10
92.7839
 20
32.1011
 30
0.0000
  0
VERTEX
  8
21
 10
93.4189
 20
32.7361
 30
0.0000
 42
1.0000
  0
SEQEND
  8
0
  0
POLYLINE
  8
21
 66
1
 10
0.0000
 20
0.0000
 30
0.0000
 40
0.0000
 41
0.0000
 70
1
  0
VERTEX
  8
21
 10
92.8062
 20
30.8850
 30
0.0000
  0
VERTEX
  8
21
 10
92.8062
 20
32.1550
 30
0.0000
 42
1.0000
  0
VERTEX
  8
21
 10
92.6538
 20
32.1550
 30
0.0000
  0
VERTEX
  8
21
 10
92.6538
 20
30.8850
 30
0.0000
 42
1.0000
  0
SEQEND
  8
0
  0
INSERT
  8
17
  2
LONGP100
 10
94.0000
 20
41.6800
 30
0.0000
 41
1.5240
 42
1.5240
 43
1.0000
 50
0.0000
  0
INSERT
  8
17
  2
LONGP100
 10
94.0000
 20
41.6800
 30
0.0000
 41
1.5240
 42
1.5240
 43
1.0000
 50
0.0000
  0
INSERT
  8
17
  2
LONGP100
 10
94.0000
 20
39.1400
 30
0.0000
 41
1.5240
 42
1.5240
 43
1.0000
 50
0.0000
  0
INSERT
  8
17
  2
LONGP100
 10
94.0000
 20
39.1400
 30
0.0000
 41
1.5240
 42
1.5240
 43
1.0000
 50
0.0000
  0
INSERT
  8
17
  2
LONGP100
 10
94.0000
 20
36.6000
 30
0.0000
 41
1.5240
 42
1.5240
 43
1.0000
 50
0.0000
  0
INSERT
  8
17
  2
LONGP100
 10
94.0000
 20
36.6000
 30
0.0000
 41
1.5240
 42
1.5240
 43
1.0000
 50
0.0000
  0
INSERT
  8
17
  2
LONGP100
 10
94.0000
 20
34.0600
 30
0.0000
 41
1.5240
 42
1.5240
 43
1.0000
 50
0.0000
  0
INSERT
  8
17
  2
LONGP100
 10
94.0000
 20
34.0600
 30
0.0000
 41
1.5240
 42
1.5240
 43
1.0000
 50
0.0000
  0
INSERT
  8
17
  2
LONGP100
 10
94.0000
 20
31.5200
 30
0.0000
 41
1.5240
 42
1.5240
 43
1.0000
 50
0.0000
  0
INSERT
  8
17
  2
LONGP100
 10
94.0000
 20
31.5200
 30
0.0000
 41
1.5240
 42
1.5240
 43
1.0000
 50
0.0000
  0
LINE
  8
21
 10
90.6700
 20
3.1100
 30
0.0000
 11
90.6700
 21
2.1100
 31
0.0000
  0
LINE
  8
21
 10
90.6700
 20
2.1100
 30
0.0000
 11
91.1700
 21
2.6100
 31
0.0000
  0
LINE
  8
21
 10
91.1700
 20
2.6100
 30
0.0000
 11
90.6700
 21
3.1100
 31
0.0000
  0
POLYLINE
  8
21
 66
1
 10
0.0000
 20
0.0000
 30
0.0000
 40
0.0000
 41
0.0000
 70
1
  0
VERTEX
  8
21
 10
93.0317
 20
5.9686
 30
0.0000
 42
1.0000
  0
VERTEX
  8
21
 10
93.1183
 20
6.0614
 30
0.0000
 42
2.3012
  0
VERTEX
  8
21
 10
93.1183
 20
2.1586
 30
0.0000
 42
1.0000
  0
VERTEX
  8
21
 10
93.0317
 20
2.2514
 30
0.0000
 42
-2.3012
  0
SEQEND
  8
0
  0
POLYLINE
  8
21
 66
1
 10
0.0000
 20
0.0000
 30
0.0000
 40
0.0000
 41
0.0000
 70
1
  0
VERTEX
  8
21
 10
93.0115
 20
6.0150
 30
0.0000
  0
VERTEX
  8
21
 10
93.0115
 20
2.2050
 30
0.0000
 42
1.0000
  0
VERTEX
  8
21
 10
93.1385
 20
2.2050
 30
0.0000
  0
VERTEX
  8
21
 10
93.1385
 20
6.0150
 30
0.0000
 42
1.0000
  0
SEQEND
  8
0
  0
POLYLINE
  8
21
 66
1
 10
0.0000
 20
0.0000
 30
0.0000
 40
0.0000
 41
0.0000
 70
1
  0
VERTEX
  8
21
 10
90.3065
 20
3.1100
 30
0.0000
  0
VERTEX
  8
21
 10
90.3065
 20
2.6100
 30
0.0000
 42
1.0000
  0
VERTEX
  8
21
 10
90.4335
 20
2.6100
 30
0.0000
  0
VERTEX
  8
21
 10
90.4335
 20
3.1100
 30
0.0000
 42
1.0000
  0
SEQEND
  8
0
  0
POLYLINE
  8
21
 66
1
 10
0.0000
 20
0.0000
 30
0.0000
 40
0.0000
 41
0.0000
 70
1
  0
VERTEX
  8
21
 10
90.3065
 20
2.6100
 30
0.0000
  0
VERTEX
  8
21
 10
90.3065
 20
2.1100
 30
0.0000
 42
1.0000
  0
VERTEX
  8
21
 10
90.4335
 20
2.1100
 30
0.0000
  0
VERTEX
  8
21
 10
90.4335
 20
2.6100
 30
0.0000
 42
1.0000
  0
SEQEND
  8
0
  0
POLYLINE
  8
21
 66
1
 10
0.0000
 20
0.0000
 30
0.0000
 40
0.0000
 41
0.0000
 70
1
  0
VERTEX
  8
21
 10
91.1065
 20
3.1100
 30
0.0000
  0
VERTEX
  8
21
 10
91.1065
 20
2.6100
 30
0.0000
 42
1.0000
  0
VERTEX
  8
21
 10
91.2335
 20
2.6100
 30
0.0000
  0
VERTEX
  8
21
 10
91.2335
 20
3.1100
 30
0.0000
 42
1.0000
  0
SEQEND
  8
0
  0
POLYLINE
  8
21
 66
1
 10
0.0000
 20
0.0000
 30
0.0000
 40
0.0000
 41
0.0000
 70
1
  0
VERTEX
  8
21
 10
91.1065
 20
2.6100
 30
0.0000
  0
VERTEX
  8
21
 10
91.1065
 20
2.1100
 30
0.0000
 42
1.0000
  0
VERTEX
  8
21
 10
91.2335
 20
2.1100
 30
0.0000
  0
VERTEX
  8
21
 10
91.2335
 20
2.6100
 30
0.0000
 42
1.0000
  0
SEQEND
  8
0
  0
POLYLINE
  8
21
 66
1
 10
0.0000
 20
0.0000
 30
0.0000
 40
0.0000
 41
0.0000
 70
1
  0
VERTEX
  8
21
 10
91.1700
 20
2.5465
 30
0.0000
  0
VERTEX
  8
21
 10
92.1700
 20
2.5465
 30
0.0000
 42
1.0000
  0
VERTEX
  8
21
 10
92.1700
 20
2.6735
 30
0.0000
  0
VERTEX
  8
21
 10
91.1700
 20
2.6735
 30
0.0000
 42
1.0000
  0
SEQEND
  8
0
  0
POLYLINE
  8
21
 66
1
 10
0.0000
 20
0.0000
 30
0.0000
 40
0.0000
 41
0.0000
 70
1
  0
VERTEX
  8
21
 10
89.3700
 20
2.5465
 30
0.0000
  0
VERTEX
  8
21
 10
90.3700
 20
2.5465
 30
0.0000
 42
1.0000
  0
VERTEX
  8
21
 10
90.3700
 20
2.6735
 30
0.0000
  0
VERTEX
  8
21
 10
89.3700
 20
2.6735
 30
0.0000
 42
1.0000
  0
SEQEND
  8
0
  0
POLYLINE
  8
21
 66
1
 10
0.0000
 20
0.0000
 30
0.0000
 40
0.0000
 41
0.0000
 70
1
  0
VERTEX
  8
21
 10
91.0149
 20
3.3651
 30
0.0000
  0
VERTEX
  8
21
 10
91.5149
 20
3.8651
 30
0.0000
 42
1.0000
  0
VERTEX
  8
21
 10
91.4251
 20
3.9549
 30
0.0000
  0
VERTEX
  8
21
 10
90.9251
 20
3.4549
 30
0.0000
 42
1.0000
  0
SEQEND
  8
0
  0
POLYLINE
  8
21
 66
1
 10
0.0000
 20
0.0000
 30
0.0000
 40
0.0000
 41
0.0000
 70
1
  0
VERTEX
  8
21
 10
91.4700
 20
3.9735
 30
0.0000
  0
VERTEX
  8
21
 10
90.9700
 20
3.9735
 30
0.0000
 42
1.0000
  0
VERTEX
  8
21
 10
90.9700
 20
3.8465
 30
0.0000
  0
VERTEX
  8
21
 10
91.4700
 20
3.8465
 30
0.0000
 42
1.0000
  0
SEQEND
  8
0
  0
POLYLINE
  8
21
 66
1
 10
0.0000
 20
0.0000
 30
0.0000
 40
0.0000
 41
0.0000
 70
1
  0
VERTEX
  8
21
 10
90.9251
 20
3.8651
 30
0.0000
  0
VERTEX
  8
21
 10
91.4251
 20
3.3651
 30
0.0000
 42
1.0000
  0
VERTEX
  8
21
 10
91.5149
 20
3.4549
 30
0.0000
  0
VERTEX
  8
21
 10
91.0149
 20
3.9549
 30
0.0000
 42
1.0000
  0
SEQEND
  8
0
  0
POLYLINE
  8
21
 66
1
 10
0.0000
 20
0.0000
 30
0.0000
 40
0.0000
 41
0.0000
 70
1
  0
VERTEX
  8
21
 10
91.5335
 20
3.4100
 30
0.0000
  0
VERTEX
  8
21
 10
91.5335
 20
3.9100
 30
0.0000
 42
1.0000
  0
VERTEX
  8
21
 10
91.4065
 20
3.9100
 30
0.0000
  0
VERTEX
  8
21
 10
91.4065
 20
3.4100
 30
0.0000
 42
1.0000
  0
SEQEND
  8
0
  0
INSERT
  8
17
  2
SQUAREP
 10
89.9002
 20
4.1100
 30
0.0000
 41
1.6510
 42
1.6510
 43
1.0000
 50
0.0000
  0
INSERT
  8
17
  2
SQUAREP
 10
89.9002
 20
4.1100
 30
0.0000
 41
1.6510
 42
1.6510
 43
1.0000
 50
0.0000
  0
INSERT
  8
17
  2
ROUNDP
 10
92.4398
 20
4.1100
 30
0.0000
 41
1.6510
 42
1.6510
 43
1.0000
 50
0.0000
  0
INSERT
  8
17
  2
ROUNDP
 10
92.4398
 20
4.1100
 30
0.0000
 41
1.6510
 42
1.6510
 43
1.0000
 50
0.0000
  0
LINE
  8
21
 10
83.0500
 20
3.1100
 30
0.0000
 11
83.0500
 21
2.1100
 31
0.0000
  0
LINE
  8
21
 10
83.0500
 20
2.1100
 30
0.0000
 11
83.5500
 21
2.6100
 31
0.0000
  0
LINE
  8
21
 10
83.5500
 20
2.6100
 30
0.0000
 11
83.0500
 21
3.1100
 31
0.0000
  0
POLYLINE
  8
21
 66
1
 10
0.0000
 20
0.0000
 30
0.0000
 40
0.0000
 41
0.0000
 70
1
  0
VERTEX
  8
21
 10
85.4117
 20
5.9686
 30
0.0000
 42
1.0000
  0
VERTEX
  8
21
 10
85.4983
 20
6.0614
 30
0.0000
 42
2.3012
  0
VERTEX
  8
21
 10
85.4983
 20
2.1586
 30
0.0000
 42
1.0000
  0
VERTEX
  8
21
 10
85.4117
 20
2.2514
 30
0.0000
 42
-2.3012
  0
SEQEND
  8
0
  0
POLYLINE
  8
21
 66
1
 10
0.0000
 20
0.0000
 30
0.0000
 40
0.0000
 41
0.0000
 70
1
  0
VERTEX
  8
21
 10
85.3915
 20
6.0150
 30
0.0000
  0
VERTEX
  8
21
 10
85.3915
 20
2.2050
 30
0.0000
 42
1.0000
  0
VERTEX
  8
21
 10
85.5185
 20
2.2050
 30
0.0000
  0
VERTEX
  8
21
 10
85.5185
 20
6.0150
 30
0.0000
 42
1.0000
  0
SEQEND
  8
0
  0
POLYLINE
  8
21
 66
1
 10
0.0000
 20
0.0000
 30
0.0000
 40
0.0000
 41
0.0000
 70
1
  0
VERTEX
  8
21
 10
82.6865
 20
3.1100
 30
0.0000
  0
VERTEX
  8
21
 10
82.6865
 20
2.6100
 30
0.0000
 42
1.0000
  0
VERTEX
  8
21
 10
82.8135
 20
2.6100
 30
0.0000
  0
VERTEX
  8
21
 10
82.8135
 20
3.1100
 30
0.0000
 42
1.0000
  0
SEQEND
  8
0
  0
POLYLINE
  8
21
 66
1
 10
0.0000
 20
0.0000
 30
0.0000
 40
0.0000
 41
0.0000
 70
1
  0
VERTEX
  8
21
 10
82.6865
 20
2.6100
 30
0.0000
  0
VERTEX
  8
21
 10
82.6865
 20
2.1100
 30
0.0000
 42
1.0000
  0
VERTEX
  8
21
 10
82.8135
 20
2.1100
 30
0.0000
  0
VERTEX
  8
21
 10
82.8135
 20
2.6100
 30
0.0000
 42
1.0000
  0
SEQEND
  8
0
  0
POLYLINE
  8
21
 66
1
 10
0.0000
 20
0.0000
 30
0.0000
 40
0.0000
 41
0.0000
 70
1
  0
VERTEX
  8
21
 10
83.4865
 20
3.1100
 30
0.0000
  0
VERTEX
  8
21
 10
83.4865
 20
2.6100
 30
0.0000
 42
1.0000
  0
VERTEX
  8
21
 10
83.6135
 20
2.6100
 30
0.0000
  0
VERTEX
  8
21
 10
83.6135
 20
3.1100
 30
0.0000
 42
1.0000
  0
SEQEND
  8
0
  0
POLYLINE
  8
21
 66
1
 10
0.0000
 20
0.0000
 30
0.0000
 40
0.0000
 41
0.0000
 70
1
  0
VERTEX
  8
21
 10
83.4865
 20
2.6100
 30
0.0000
  0
VERTEX
  8
21
 10
83.4865
 20
2.1100
 30
0.0000
 42
1.0000
  0
VERTEX
  8
21
 10
83.6135
 20
2.1100
 30
0.0000
  0
VERTEX
  8
21
 10
83.6135
 20
2.6100
 30
0.0000
 42
1.0000
  0
SEQEND
  8
0
  0
POLYLINE
  8
21
 66
1
 10
0.0000
 20
0.0000
 30
0.0000
 40
0.0000
 41
0.0000
 70
1
  0
VERTEX
  8
21
 10
83.5500
 20
2.5465
 30
0.0000
  0
VERTEX
  8
21
 10
84.5500
 20
2.5465
 30
0.0000
 42
1.0000
  0
VERTEX
  8
21
 10
84.5500
 20
2.6735
 30
0.0000
  0
VERTEX
  8
21
 10
83.5500
 20
2.6735
 30
0.0000
 42
1.0000
  0
SEQEND
  8
0
  0
POLYLINE
  8
21
 66
1
 10
0.0000
 20
0.0000
 30
0.0000
 40
0.0000
 41
0.0000
 70
1
  0
VERTEX
  8
21
 10
81.7500
 20
2.5465
 30
0.0000
  0
VERTEX
  8
21
 10
82.7500
 20
2.5465
 30
0.0000
 42
1.0000
  0
VERTEX
  8
21
 10
82.7500
 20
2.6735
 30
0.0000
  0
VERTEX
  8
21
 10
81.7500
 20
2.6735
 30
0.0000
 42
1.0000
  0
SEQEND
  8
0
  0
POLYLINE
  8
21
 66
1
 10
0.0000
 20
0.0000
 30
0.0000
 40
0.0000
 41
0.0000
 70
1
  0
VERTEX
  8
21
 10
83.3949
 20
3.3651
 30
0.0000
  0
VERTEX
  8
21
 10
83.8949
 20
3.8651
 30
0.0000
 42
1.0000
  0
VERTEX
  8
21
 10
83.8051
 20
3.9549
 30
0.0000
  0
VERTEX
  8
21
 10
83.3051
 20
3.4549
 30
0.0000
 42
1.0000
  0
SEQEND
  8
0
  0
POLYLINE
  8
21
 66
1
 10
0.0000
 20
0.0000
 30
0.0000
 40
0.0000
 41
0.0000
 70
1
  0
VERTEX
  8
21
 10
83.8500
 20
3.9735
 30
0.0000
  0
VERTEX
  8
21
 10
83.3500
 20
3.9735
 30
0.0000
 42
1.0000
  0
VERTEX
  8
21
 10
83.3500
 20
3.8465
 30
0.0000
  0
VERTEX
  8
21
 10
83.8500
 20
3.8465
 30
0.0000
 42
1.0000
  0
SEQEND
  8
0
  0
POLYLINE
  8
21
 66
1
 10
0.0000
 20
0.0000
 30
0.0000
 40
0.0000
 41
0.0000
 70
1
  0
VERTEX
  8
21
 10
83.3051
 20
3.8651
 30
0.0000
  0
VERTEX
  8
21
 10
83.8051
 20
3.3651
 30
0.0000
 42
1.0000
  0
VERTEX
  8
21
 10
83.8949
 20
3.4549
 30
0.0000
  0
VERTEX
  8
21
 10
83.3949
 20
3.9549
 30
0.0000
 42
1.0000
  0
SEQEND
  8
0
  0
POLYLINE
  8
21
 66
1
 10
0.0000
 20
0.0000
 30
0.0000
 40
0.0000
 41
0.0000
 70
1
  0
VERTEX
  8
21
 10
83.9135
 20
3.4100
 30
0.0000
  0
VERTEX
  8
21
 10
83.9135
 20
3.9100
 30
0.0000
 42
1.0000
  0
VERTEX
  8
21
 10
83.7865
 20
3.9100
 30
0.0000
  0
VERTEX
  8
21
 10
83.7865
 20
3.4100
 30
0.0000
 42
1.0000
  0
SEQEND
  8
0
  0
INSERT
  8
17
  2
SQUAREP
 10
82.2802
 20
4.1100
 30
0.0000
 41
1.6510
 42
1.6510
 43
1.0000
 50
0.0000
  0
INSERT
  8
17
  2
SQUAREP
 10
82.2802
 20
4.1100
 30
0.0000
 41
1.6510
 42
1.6510
 43
1.0000
 50
0.0000
  0
INSERT
  8
17
  2
ROUNDP
 10
84.8198
 20
4.1100
 30
0.0000
 41
1.6510
 42
1.6510
 43
1.0000
 50
0.0000
  0
INSERT
  8
17
  2
ROUNDP
 10
84.8198
 20
4.1100
 30
0.0000
 41
1.6510
 42
1.6510
 43
1.0000
 50
0.0000
  0
LINE
  8
21
 10
75.4300
 20
3.1100
 30
0.0000
 11
75.4300
 21
2.1100
 31
0.0000
  0
LINE
  8
21
 10
75.4300
 20
2.1100
 30
0.0000
 11
75.9300
 21
2.6100
 31
0.0000
  0
LINE
  8
21
 10
75.9300
 20
2.6100
 30
0.0000
 11
75.4300
 21
3.1100
 31
0.0000
  0
POLYLINE
  8
21
 66
1
 10
0.0000
 20
0.0000
 30
0.0000
 40
0.0000
 41
0.0000
 70
1
  0
VERTEX
  8
21
 10
77.7917
 20
5.9686
 30
0.0000
 42
1.0000
  0
VERTEX
  8
21
 10
77.8783
 20
6.0614
 30
0.0000
 42
2.3012
  0
VERTEX
  8
21
 10
77.8783
 20
2.1586
 30
0.0000
 42
1.0000
  0
VERTEX
  8
21
 10
77.7917
 20
2.2514
 30
0.0000
 42
-2.3012
  0
SEQEND
  8
0
  0
POLYLINE
  8
21
 66
1
 10
0.0000
 20
0.0000
 30
0.0000
 40
0.0000
 41
0.0000
 70
1
  0
VERTEX
  8
21
 10
77.7715
 20
6.0150
 30
0.0000
  0
VERTEX
  8
21
 10
77.7715
 20
2.2050
 30
0.0000
 42
1.0000
  0
VERTEX
  8
21
 10
77.8985
 20
2.2050
 30
0.0000
  0
VERTEX
  8
21
 10
77.8985
 20
6.0150
 30
0.0000
 42
1.0000
  0
SEQEND
  8
0
  0
POLYLINE
  8
21
 66
1
 10
0.0000
 20
0.0000
 30
0.0000
 40
0.0000
 41
0.0000
 70
1
  0
VERTEX
  8
21
 10
75.0665
 20
3.1100
 30
0.0000
  0
VERTEX
  8
21
 10
75.0665
 20
2.6100
 30
0.0000
 42
1.0000
  0
VERTEX
  8
21
 10
75.1935
 20
2.6100
 30
0.0000
  0
VERTEX
  8
21
 10
75.1935
 20
3.1100
 30
0.0000
 42
1.0000
  0
SEQEND
  8
0
  0
POLYLINE
  8
21
 66
1
 10
0.0000
 20
0.0000
 30
0.0000
 40
0.0000
 41
0.0000
 70
1
  0
VERTEX
  8
21
 10
75.0665
 20
2.6100
 30
0.0000
  0
VERTEX
  8
21
 10
75.0665
 20
2.1100
 30
0.0000
 42
1.0000
  0
VERTEX
  8
21
 10
75.1935
 20
2.1100
 30
0.0000
  0
VERTEX
  8
21
 10
75.1935
 20
2.6100
 30
0.0000
 42
1.0000
  0
SEQEND
  8
0
  0
POLYLINE
  8
21
 66
1
 10
0.0000
 20
0.0000
 30
0.0000
 40
0.0000
 41
0.0000
 70
1
  0
VERTEX
  8
21
 10
75.8665
 20
3.1100
 30
0.0000
  0
VERTEX
  8
21
 10
75.8665
 20
2.6100
 30
0.0000
 42
1.0000
  0
VERTEX
  8
21
 10
75.9935
 20
2.6100
 30
0.0000
  0
VERTEX
  8
21
 10
75.9935
 20
3.1100
 30
0.0000
 42
1.0000
  0
SEQEND
  8
0
  0
POLYLINE
  8
21
 66
1
 10
0.0000
 20
0.0000
 30
0.0000
 40
0.0000
 41
0.0000
 70
1
  0
VERTEX
  8
21
 10
75.8665
 20
2.6100
 30
0.0000
  0
VERTEX
  8
21
 10
75.8665
 20
2.1100
 30
0.0000
 42
1.0000
  0
VERTEX
  8
21
 10
75.9935
 20
2.1100
 30
0.0000
  0
VERTEX
  8
21
 10
75.9935
 20
2.6100
 30
0.0000
 42
1.0000
  0
SEQEND
  8
0
  0
POLYLINE
  8
21
 66
1
 10
0.0000
 20
0.0000
 30
0.0000
 40
0.0000
 41
0.0000
 70
1
  0
VERTEX
  8
21
 10
75.9300
 20
2.5465
 30
0.0000
  0
VERTEX
  8
21
 10
76.9300
 20
2.5465
 30
0.0000
 42
1.0000
  0
VERTEX
  8
21
 10
76.9300
 20
2.6735
 30
0.0000
  0
VERTEX
  8
21
 10
75.9300
 20
2.6735
 30
0.0000
 42
1.0000
  0
SEQEND
  8
0
  0
POLYLINE
  8
21
 66
1
 10
0.0000
 20
0.0000
 30
0.0000
 40
0.0000
 41
0.0000
 70
1
  0
VERTEX
  8
21
 10
74.1300
 20
2.5465
 30
0.0000
  0
VERTEX
  8
21
 10
75.1300
 20
2.5465
 30
0.0000
 42
1.0000
  0
VERTEX
  8
21
 10
75.1300
 20
2.6735
 30
0.0000
  0
VERTEX
  8
21
 10
74.1300
 20
2.6735
 30
0.0000
 42
1.0000
  0
SEQEND
  8
0
  0
POLYLINE
  8
21
 66
1
 10
0.0000
 20
0.0000
 30
0.0000
 40
0.0000
 41
0.0000
 70
1
  0
VERTEX
  8
21
 10
75.7749
 20
3.3651
 30
0.0000
  0
VERTEX
  8
21
 10
76.2749
 20
3.8651
 30
0.0000
 42
1.0000
  0
VERTEX
  8
21
 10
76.1851
 20
3.9549
 30
0.0000
  0
VERTEX
  8
21
 10
75.6851
 20
3.4549
 30
0.0000
 42
1.0000
  0
SEQEND
  8
0
  0
POLYLINE
  8
21
 66
1
 10
0.0000
 20
0.0000
 30
0.0000
 40
0.0000
 41
0.0000
 70
1
  0
VERTEX
  8
21
 10
76.2300
 20
3.9735
 30
0.0000
  0
VERTEX
  8
21
 10
75.7300
 20
3.9735
 30
0.0000
 42
1.0000
  0
VERTEX
  8
21
 10
75.7300
 20
3.8465
 30
0.0000
  0
VERTEX
  8
21
 10
76.2300
 20
3.8465
 30
0.0000
 42
1.0000
  0
SEQEND
  8
0
  0
POLYLINE
  8
21
 66
1
 10
0.0000
 20
0.0000
 30
0.0000
 40
0.0000
 41
0.0000
 70
1
  0
VERTEX
  8
21
 10
75.6851
 20
3.8651
 30
0.0000
  0
VERTEX
  8
21
 10
76.1851
 20
3.3651
 30
0.0000
 42
1.0000
  0
VERTEX
  8
21
 10
76.2749
 20
3.4549
 30
0.0000
  0
VERTEX
  8
21
 10
75.7749
 20
3.9549
 30
0.0000
 42
1.0000
  0
SEQEND
  8
0
  0
POLYLINE
  8
21
 66
1
 10
0.0000
 20
0.0000
 30
0.0000
 40
0.0000
 41
0.0000
 70
1
  0
VERTEX
  8
21
 10
76.2935
 20
3.4100
 30
0.0000
  0
VERTEX
  8
21
 10
76.2935
 20
3.9100
 30
0.0000
 42
1.0000
  0
VERTEX
  8
21
 10
76.1665
 20
3.9100
 30
0.0000
  0
VERTEX
  8
21
 10
76.1665
 20
3.4100
 30
0.0000
 42
1.0000
  0
SEQEND
  8
0
  0
INSERT
  8
17
  2
SQUAREP
 10
74.6602
 20
4.1100
 30
0.0000
 41
1.6510
 42
1.6510
 43
1.0000
 50
0.0000
  0
INSERT
  8
17
  2
SQUAREP
 10
74.6602
 20
4.1100
 30
0.0000
 41
1.6510
 42
1.6510
 43
1.0000
 50
0.0000
  0
INSERT
  8
17
  2
ROUNDP
 10
77.1998
 20
4.1100
 30
0.0000
 41
1.6510
 42
1.6510
 43
1.0000
 50
0.0000
  0
INSERT
  8
17
  2
ROUNDP
 10
77.1998
 20
4.1100
 30
0.0000
 41
1.6510
 42
1.6510
 43
1.0000
 50
0.0000
  0
LINE
  8
21
 10
67.8100
 20
3.1100
 30
0.0000
 11
67.8100
 21
2.1100
 31
0.0000
  0
LINE
  8
21
 10
67.8100
 20
2.1100
 30
0.0000
 11
68.3100
 21
2.6100
 31
0.0000
  0
LINE
  8
21
 10
68.3100
 20
2.6100
 30
0.0000
 11
67.8100
 21
3.1100
 31
0.0000
  0
POLYLINE
  8
21
 66
1
 10
0.0000
 20
0.0000
 30
0.0000
 40
0.0000
 41
0.0000
 70
1
  0
VERTEX
  8
21
 10
70.1717
 20
5.9686
 30
0.0000
 42
1.0000
  0
VERTEX
  8
21
 10
70.2583
 20
6.0614
 30
0.0000
 42
2.3012
  0
VERTEX
  8
21
 10
70.2583
 20
2.1586
 30
0.0000
 42
1.0000
  0
VERTEX
  8
21
 10
70.1717
 20
2.2514
 30
0.0000
 42
-2.3012
  0
SEQEND
  8
0
  0
POLYLINE
  8
21
 66
1
 10
0.0000
 20
0.0000
 30
0.0000
 40
0.0000
 41
0.0000
 70
1
  0
VERTEX
  8
21
 10
70.1515
 20
6.0150
 30
0.0000
  0
VERTEX
  8
21
 10
70.1515
 20
2.2050
 30
0.0000
 42
1.0000
  0
VERTEX
  8
21
 10
70.2785
 20
2.2050
 30
0.0000
  0
VERTEX
  8
21
 10
70.2785
 20
6.0150
 30
0.0000
 42
1.0000
  0
SEQEND
  8
0
  0
POLYLINE
  8
21
 66
1
 10
0.0000
 20
0.0000
 30
0.0000
 40
0.0000
 41
0.0000
 70
1
  0
VERTEX
  8
21
 10
67.4465
 20
3.1100
 30
0.0000
  0
VERTEX
  8
21
 10
67.4465
 20
2.6100
 30
0.0000
 42
1.0000
  0
VERTEX
  8
21
 10
67.5735
 20
2.6100
 30
0.0000
  0
VERTEX
  8
21
 10
67.5735
 20
3.1100
 30
0.0000
 42
1.0000
  0
SEQEND
  8
0
  0
POLYLINE
  8
21
 66
1
 10
0.0000
 20
0.0000
 30
0.0000
 40
0.0000
 41
0.0000
 70
1
  0
VERTEX
  8
21
 10
67.4465
 20
2.6100
 30
0.0000
  0
VERTEX
  8
21
 10
67.4465
 20
2.1100
 30
0.0000
 42
1.0000
  0
VERTEX
  8
21
 10
67.5735
 20
2.1100
 30
0.0000
  0
VERTEX
  8
21
 10
67.5735
 20
2.6100
 30
0.0000
 42
1.0000
  0
SEQEND
  8
0
  0
POLYLINE
  8
21
 66
1
 10
0.0000
 20
0.0000
 30
0.0000
 40
0.0000
 41
0.0000
 70
1
  0
VERTEX
  8
21
 10
68.2465
 20
3.1100
 30
0.0000
  0
VERTEX
  8
21
 10
68.2465
 20
2.6100
 30
0.0000
 42
1.0000
  0
VERTEX
  8
21
 10
68.3735
 20
2.6100
 30
0.0000
  0
VERTEX
  8
21
 10
68.3735
 20
3.1100
 30
0.0000
 42
1.0000
  0
SEQEND
  8
0
  0
POLYLINE
  8
21
 66
1
 10
0.0000
 20
0.0000
 30
0.0000
 40
0.0000
 41
0.0000
 70
1
  0
VERTEX
  8
21
 10
68.2465
 20
2.6100
 30
0.0000
  0
VERTEX
  8
21
 10
68.2465
 20
2.1100
 30
0.0000
 42
1.0000
  0
VERTEX
  8
21
 10
68.3735
 20
2.1100
 30
0.0000
  0
VERTEX
  8
21
 10
68.3735
 20
2.6100
 30
0.0000
 42
1.0000
  0
SEQEND
  8
0
  0
POLYLINE
  8
21
 66
1
 10
0.0000
 20
0.0000
 30
0.0000
 40
0.0000
 41
0.0000
 70
1
  0
VERTEX
  8
21
 10
68.3100
 20
2.5465
 30
0.0000
  0
VERTEX
  8
21
 10
69.3100
 20
2.5465
 30
0.0000
 42
1.0000
  0
VERTEX
  8
21
 10
69.3100
 20
2.6735
 30
0.0000
  0
VERTEX
  8
21
 10
68.3100
 20
2.6735
 30
0.0000
 42
1.0000
  0
SEQEND
  8
0
  0
POLYLINE
  8
21
 66
1
 10
0.0000
 20
0.0000
 30
0.0000
 40
0.0000
 41
0.0000
 70
1
  0
VERTEX
  8
21
 10
66.5100
 20
2.5465
 30
0.0000
  0
VERTEX
  8
21
 10
67.5100
 20
2.5465
 30
0.0000
 42
1.0000
  0
VERTEX
  8
21
 10
67.5100
 20
2.6735
 30
0.0000
  0
VERTEX
  8
21
 10
66.5100
 20
2.6735
 30
0.0000
 42
1.0000
  0
SEQEND
  8
0
  0
POLYLINE
  8
21
 66
1
 10
0.0000
 20
0.0000
 30
0.0000
 40
0.0000
 41
0.0000
 70
1
  0
VERTEX
  8
21
 10
68.1549
 20
3.3651
 30
0.0000
  0
VERTEX
  8
21
 10
68.6549
 20
3.8651
 30
0.0000
 42
1.0000
  0
VERTEX
  8
21
 10
68.5651
 20
3.9549
 30
0.0000
  0
VERTEX
  8
21
 10
68.0651
 20
3.4549
 30
0.0000
 42
1.0000
  0
SEQEND
  8
0
  0
POLYLINE
  8
21
 66
1
 10
0.0000
 20
0.0000
 30
0.0000
 40
0.0000
 41
0.0000
 70
1
  0
VERTEX
  8
21
 10
68.6100
 20
3.9735
 30
0.0000
  0
VERTEX
  8
21
 10
68.1100
 20
3.9735
 30
0.0000
 42
1.0000
  0
VERTEX
  8
21
 10
68.1100
 20
3.8465
 30
0.0000
  0
VERTEX
  8
21
 10
68.6100
 20
3.8465
 30
0.0000
 42
1.0000
  0
SEQEND
  8
0
  0
POLYLINE
  8
21
 66
1
 10
0.0000
 20
0.0000
 30
0.0000
 40
0.0000
 41
0.0000
 70
1
  0
VERTEX
  8
21
 10
68.0651
 20
3.8651
 30
0.0000
  0
VERTEX
  8
21
 10
68.5651
 20
3.3651
 30
0.0000
 42
1.0000
  0
VERTEX
  8
21
 10
68.6549
 20
3.4549
 30
0.0000
  0
VERTEX
  8
21
 10
68.1549
 20
3.9549
 30
0.0000
 42
1.0000
  0
SEQEND
  8
0
  0
POLYLINE
  8
21
 66
1
 10
0.0000
 20
0.0000
 30
0.0000
 40
0.0000
 41
0.0000
 70
1
  0
VERTEX
  8
21
 10
68.6735
 20
3.4100
 30
0.0000
  0
VERTEX
  8
21
 10
68.6735
 20
3.9100
 30
0.0000
 42
1.0000
  0
VERTEX
  8
21
 10
68.5465
 20
3.9100
 30
0.0000
  0
VERTEX
  8
21
 10
68.5465
 20
3.4100
 30
0.0000
 42
1.0000
  0
SEQEND
  8
0
  0
INSERT
  8
17
  2
SQUAREP
 10
67.0402
 20
4.1100
 30
0.0000
 41
1.6510
 42
1.6510
 43
1.0000
 50
0.0000
  0
INSERT
  8
17
  2
SQUAREP
 10
67.0402
 20
4.1100
 30
0.0000
 41
1.6510
 42
1.6510
 43
1.0000
 50
0.0000
  0
INSERT
  8
17
  2
ROUNDP
 10
69.5798
 20
4.1100
 30
0.0000
 41
1.6510
 42
1.6510
 43
1.0000
 50
0.0000
  0
INSERT
  8
17
  2
ROUNDP
 10
69.5798
 20
4.1100
 30
0.0000
 41
1.6510
 42
1.6510
 43
1.0000
 50
0.0000
  0
POLYLINE
  8
21
 66
1
 10
0.0000
 20
0.0000
 30
0.0000
 40
0.0000
 41
0.0000
 70
1
  0
VERTEX
  8
21
 10
75.7100
 20
48.4176
 30
0.0000
  0
VERTEX
  8
21
 10
89.2100
 20
48.4176
 30
0.0000
 42
1.0000
  0
VERTEX
  8
21
 10
89.2100
 20
48.7224
 30
0.0000
  0
VERTEX
  8
21
 10
75.7100
 20
48.7224
 30
0.0000
 42
1.0000
  0
SEQEND
  8
0
  0
POLYLINE
  8
21
 66
1
 10
0.0000
 20
0.0000
 30
0.0000
 40
0.0000
 41
0.0000
 70
1
  0
VERTEX
  8
21
 10
89.3624
 20
48.5700
 30
0.0000
  0
VERTEX
  8
21
 10
89.3624
 20
67.0700
 30
0.0000
 42
1.0000
  0
VERTEX
  8
21
 10
89.0576
 20
67.0700
 30
0.0000
  0
VERTEX
  8
21
 10
89.0576
 20
48.5700
 30
0.0000
 42
1.0000
  0
SEQEND
  8
0
  0
POLYLINE
  8
21
 66
1
 10
0.0000
 20
0.0000
 30
0.0000
 40
0.0000
 41
0.0000
 70
1
  0
VERTEX
  8
21
 10
89.2100
 20
67.2224
 30
0.0000
  0
VERTEX
  8
21
 10
75.7100
 20
67.2224
 30
0.0000
 42
1.0000
  0
VERTEX
  8
21
 10
75.7100
 20
66.9176
 30
0.0000
  0
VERTEX
  8
21
 10
89.2100
 20
66.9176
 30
0.0000
 42
1.0000
  0
SEQEND
  8
0
  0
POLYLINE
  8
21
 66
1
 10
0.0000
 20
0.0000
 30
0.0000
 40
0.0000
 41
0.0000
 70
1
  0
VERTEX
  8
21
 10
75.5576
 20
67.0700
 30
0.0000
  0
VERTEX
  8
21
 10
75.5576
 20
48.5700
 30
0.0000
 42
1.0000
  0
VERTEX
  8
21
 10
75.8624
 20
48.5700
 30
0.0000
  0
VERTEX
  8
21
 10
75.8624
 20
67.0700
 30
0.0000
 42
1.0000
  0
SEQEND
  8
0
  0
POLYLINE
  8
21
 66
1
 10
0.0000
 20
0.0000
 30
0.0000
 40
0.0000
 41
0.0000
 70
1
  0
VERTEX
  8
21
 10
76.3878
 20
65.4589
 30
0.0000
  0
VERTEX
  8
21
 10
76.3878
 20
66.4820
 30
0.0000
 42
1.0000
  0
VERTEX
  8
21
 10
76.2100
 20
66.4820
 30
0.0000
  0
VERTEX
  8
21
 10
76.2100
 20
65.4589
 30
0.0000
 42
1.0000
  0
SEQEND
  8
0
  0
POLYLINE
  8
21
 66
1
 10
0.0000
 20
0.0000
 30
0.0000
 40
0.0000
 41
0.0000
 70
1
  0
VERTEX
  8
21
 10
76.2989
 20
66.3931
 30
0.0000
  0
VERTEX
  8
21
 10
76.8104
 20
66.3931
 30
0.0000
 42
1.0000
  0
VERTEX
  8
21
 10
76.8104
 20
66.5709
 30
0.0000
  0
VERTEX
  8
21
 10
76.2989
 20
66.5709
 30
0.0000
 42
1.0000
  0
SEQEND
  8
0
  0
POLYLINE
  8
21
 66
1
 10
0.0000
 20
0.0000
 30
0.0000
 40
0.0000
 41
0.0000
 70
1
  0
VERTEX
  8
21
 10
76.7476
 20
66.4191
 30
0.0000
  0
VERTEX
  8
21
 10
76.9181
 20
66.2486
 30
0.0000
 42
1.0000
  0
VERTEX
  8
21
 10
77.0438
 20
66.3743
 30
0.0000
  0
VERTEX
  8
21
 10
76.8733
 20
66.5448
 30
0.0000
 42
1.0000
  0
SEQEND
  8
0
  0
POLYLINE
  8
21
 66
1
 10
0.0000
 20
0.0000
 30
0.0000
 40
0.0000
 41
0.0000
 70
1
  0
VERTEX
  8
21
 10
76.8920
 20
66.3115
 30
0.0000
  0
VERTEX
  8
21
 10
76.8920
 20
66.1409
 30
0.0000
 42
1.0000
  0
VERTEX
  8
21
 10
77.0698
 20
66.1409
 30
0.0000
  0
VERTEX
  8
21
 10
77.0698
 20
66.3115
 30
0.0000
 42
1.0000
  0
SEQEND
  8
0
  0
POLYLINE
  8
21
 66
1
 10
0.0000
 20
0.0000
 30
0.0000
 40
0.0000
 41
0.0000
 70
1
  0
VERTEX
  8
21
 10
76.9181
 20
66.2038
 30
0.0000
  0
VERTEX
  8
21
 10
76.7476
 20
66.0333
 30
0.0000
 42
1.0000
  0
VERTEX
  8
21
 10
76.8733
 20
65.9076
 30
0.0000
  0
VERTEX
  8
21
 10
77.0438
 20
66.0781
 30
0.0000
 42
1.0000
  0
SEQEND
  8
0
  0
POLYLINE
  8
21
 66
1
 10
0.0000
 20
0.0000
 30
0.0000
 40
0.0000
 41
0.0000
 70
1
  0
VERTEX
  8
21
 10
76.7476
 20
65.9076
 30
0.0000
  0
VERTEX
  8
21
 10
76.9181
 20
65.7371
 30
0.0000
 42
1.0000
  0
VERTEX
  8
21
 10
77.0438
 20
65.8628
 30
0.0000
  0
VERTEX
  8
21
 10
76.8733
 20
66.0333
 30
0.0000
 42
1.0000
  0
SEQEND
  8
0
  0
POLYLINE
  8
21
 66
1
 10
0.0000
 20
0.0000
 30
0.0000
 40
0.0000
 41
0.0000
 70
1
  0
VERTEX
  8
21
 10
76.8920
 20
65.7999
 30
0.0000
  0
VERTEX
  8
21
 10
76.8920
 20
65.6294
 30
0.0000
 42
1.0000
  0
VERTEX
  8
21
 10
77.0698
 20
65.6294
 30
0.0000
  0
VERTEX
  8
21
 10
77.0698
 20
65.7999
 30
0.0000
 42
1.0000
  0
SEQEND
  8
0
  0
POLYLINE
  8
21
 66
1
 10
0.0000
 20
0.0000
 30
0.0000
 40
0.0000
 41
0.0000
 70
1
  0
VERTEX
  8
21
 10
76.9181
 20
65.6923
 30
0.0000
  0
VERTEX
  8
21
 10
76.7476
 20
65.5218
 30
0.0000
 42
1.0000
  0
VERTEX
  8
21
 10
76.8733
 20
65.3960
 30
0.0000
  0
VERTEX
  8
21
 10
77.0438
 20
65.5665
 30
0.0000
 42
1.0000
  0
SEQEND
  8
0
  0
POLYLINE
  8
21
 66
1
 10
0.0000
 20
0.0000
 30
0.0000
 40
0.0000
 41
0.0000
 70
1
  0
VERTEX
  8
21
 10
76.8104
 20
65.5478
 30
0.0000
  0
VERTEX
  8
21
 10
76.2989
 20
65.5478
 30
0.0000
 42
1.0000
  0
VERTEX
  8
21
 10
76.2989
 20
65.3700
 30
0.0000
  0
VERTEX
  8
21
 10
76.8104
 20
65.3700
 30
0.0000
 42
1.0000
  0
SEQEND
  8
0
  0
POLYLINE
  8
21
 66
1
 10
0.0000
 20
0.0000
 30
0.0000
 40
0.0000
 41
0.0000
 70
1
  0
VERTEX
  8
21
 10
76.2989
 20
65.8815
 30
0.0000
  0
VERTEX
  8
21
 10
76.8104
 20
65.8815
 30
0.0000
 42
1.0000
  0
VERTEX
  8
21
 10
76.8104
 20
66.0593
 30
0.0000
  0
VERTEX
  8
21
 10
76.2989
 20
66.0593
 30
0.0000
 42
1.0000
  0
SEQEND
  8
0
  0
POLYLINE
  8
21
 66
1
 10
0.0000
 20
0.0000
 30
0.0000
 40
0.0000
 41
0.0000
 70
1
  0
VERTEX
  8
21
 10
77.4038
 20
66.3931
 30
0.0000
  0
VERTEX
  8
21
 10
77.5744
 20
66.3931
 30
0.0000
 42
1.0000
  0
VERTEX
  8
21
 10
77.5744
 20
66.5709
 30
0.0000
  0
VERTEX
  8
21
 10
77.4038
 20
66.5709
 30
0.0000
 42
1.0000
  0
SEQEND
  8
0
  0
POLYLINE
  8
21
 66
1
 10
0.0000
 20
0.0000
 30
0.0000
 40
0.0000
 41
0.0000
 70
1
  0
VERTEX
  8
21
 10
77.4855
 20
66.4820
 30
0.0000
  0
VERTEX
  8
21
 10
77.4855
 20
65.4589
 30
0.0000
 42
1.0000
  0
VERTEX
  8
21
 10
77.6633
 20
65.4589
 30
0.0000
  0
VERTEX
  8
21
 10
77.6633
 20
66.4820
 30
0.0000
 42
1.0000
  0
SEQEND
  8
0
  0
POLYLINE
  8
21
 66
1
 10
0.0000
 20
0.0000
 30
0.0000
 40
0.0000
 41
0.0000
 70
1
  0
VERTEX
  8
21
 10
77.4038
 20
65.3700
 30
0.0000
  0
VERTEX
  8
21
 10
77.7449
 20
65.3700
 30
0.0000
 42
1.0000
  0
VERTEX
  8
21
 10
77.7449
 20
65.5478
 30
0.0000
  0
VERTEX
  8
21
 10
77.4038
 20
65.5478
 30
0.0000
 42
1.0000
  0
SEQEND
  8
0
  0
POLYLINE
  8
21
 66
1
 10
0.0000
 20
0.0000
 30
0.0000
 40
0.0000
 41
0.0000
 70
1
  0
VERTEX
  8
21
 10
78.0516
 20
66.1409
 30
0.0000
  0
VERTEX
  8
21
 10
78.0516
 20
65.6294
 30
0.0000
 42
1.0000
  0
VERTEX
  8
21
 10
78.2294
 20
65.6294
 30
0.0000
  0
VERTEX
  8
21
 10
78.2294
 20
66.1409
 30
0.0000
 42
1.0000
  0
SEQEND
  8
0
  0
POLYLINE
  8
21
 66
1
 10
0.0000
 20
0.0000
 30
0.0000
 40
0.0000
 41
0.0000
 70
1
  0
VERTEX
  8
21
 10
78.0776
 20
65.5665
 30
0.0000
  0
VERTEX
  8
21
 10
78.2481
 20
65.3960
 30
0.0000
 42
1.0000
  0
VERTEX
  8
21
 10
78.3738
 20
65.5218
 30
0.0000
  0
VERTEX
  8
21
 10
78.2033
 20
65.6923
 30
0.0000
 42
1.0000
  0
SEQEND
  8
0
  0
POLYLINE
  8
21
 66
1
 10
0.0000
 20
0.0000
 30
0.0000
 40
0.0000
 41
0.0000
 70
1
  0
VERTEX
  8
21
 10
78.3110
 20
65.3700
 30
0.0000
  0
VERTEX
  8
21
 10
78.8225
 20
65.3700
 30
0.0000
 42
1.0000
  0
VERTEX
  8
21
 10
78.8225
 20
65.5478
 30
0.0000
  0
VERTEX
  8
21
 10
78.3110
 20
65.5478
 30
0.0000
 42
1.0000
  0
SEQEND
  8
0
  0
POLYLINE
  8
21
 66
1
 10
0.0000
 20
0.0000
 30
0.0000
 40
0.0000
 41
0.0000
 70
1
  0
VERTEX
  8
21
 10
78.9114
 20
65.4589
 30
0.0000
  0
VERTEX
  8
21
 10
78.9114
 20
66.1409
 30
0.0000
 42
1.0000
  0
VERTEX
  8
21
 10
78.7336
 20
66.1409
 30
0.0000
  0
VERTEX
  8
21
 10
78.7336
 20
65.4589
 30
0.0000
 42
1.0000
  0
SEQEND
  8
0
  0
POLYLINE
  8
21
 66
1
 10
0.0000
 20
0.0000
 30
0.0000
 40
0.0000
 41
0.0000
 70
1
  0
VERTEX
  8
21
 10
79.7570
 20
65.5478
 30
0.0000
  0
VERTEX
  8
21
 10
79.4159
 20
65.5478
 30
0.0000
 42
1.0000
  0
VERTEX
  8
21
 10
79.4159
 20
65.3700
 30
0.0000
  0
VERTEX
  8
21
 10
79.7570
 20
65.3700
 30
0.0000
 42
1.0000
  0
SEQEND
  8
0
  0
POLYLINE
  8
21
 66
1
 10
0.0000
 20
0.0000
 30
0.0000
 40
0.0000
 41
0.0000
 70
1
  0
VERTEX
  8
21
 10
79.4788
 20
65.5218
 30
0.0000
  0
VERTEX
  8
21
 10
79.3083
 20
65.6923
 30
0.0000
 42
1.0000
  0
VERTEX
  8
21
 10
79.1826
 20
65.5665
 30
0.0000
  0
VERTEX
  8
21
 10
79.3531
 20
65.3960
 30
0.0000
 42
1.0000
  0
SEQEND
  8
0
  0
POLYLINE
  8
21
 66
1
 10
0.0000
 20
0.0000
 30
0.0000
 40
0.0000
 41
0.0000
 70
1
  0
VERTEX
  8
21
 10
79.3343
 20
65.6294
 30
0.0000
  0
VERTEX
  8
21
 10
79.3343
 20
65.9704
 30
0.0000
 42
1.0000
  0
VERTEX
  8
21
 10
79.1565
 20
65.9704
 30
0.0000
  0
VERTEX
  8
21
 10
79.1565
 20
65.6294
 30
0.0000
 42
1.0000
  0
SEQEND
  8
0
  0
POLYLINE
  8
21
 66
1
 10
0.0000
 20
0.0000
 30
0.0000
 40
0.0000
 41
0.0000
 70
1
  0
VERTEX
  8
21
 10
79.3083
 20
65.9076
 30
0.0000
  0
VERTEX
  8
21
 10
79.4788
 20
66.0781
 30
0.0000
 42
1.0000
  0
VERTEX
  8
21
 10
79.3531
 20
66.2038
 30
0.0000
  0
VERTEX
  8
21
 10
79.1826
 20
66.0333
 30
0.0000
 42
1.0000
  0
SEQEND
  8
0
  0
POLYLINE
  8
21
 66
1
 10
0.0000
 20
0.0000
 30
0.0000
 40
0.0000
 41
0.0000
 70
1
  0
VERTEX
  8
21
 10
79.4159
 20
66.0520
 30
0.0000
  0
VERTEX
  8
21
 10
79.7570
 20
66.0520
 30
0.0000
 42
1.0000
  0
VERTEX
  8
21
 10
79.7570
 20
66.2298
 30
0.0000
  0
VERTEX
  8
21
 10
79.4159
 20
66.2298
 30
0.0000
 42
1.0000
  0
SEQEND
  8
0
  0
POLYLINE
  8
21
 66
1
 10
0.0000
 20
0.0000
 30
0.0000
 40
0.0000
 41
0.0000
 70
1
  0
VERTEX
  8
21
 10
79.6941
 20
66.0781
 30
0.0000
  0
VERTEX
  8
21
 10
79.8646
 20
65.9076
 30
0.0000
 42
1.0000
  0
VERTEX
  8
21
 10
79.9903
 20
66.0333
 30
0.0000
  0
VERTEX
  8
21
 10
79.8198
 20
66.2038
 30
0.0000
 42
1.0000
  0
SEQEND
  8
0
  0
POLYLINE
  8
21
 66
1
 10
0.0000
 20
0.0000
 30
0.0000
 40
0.0000
 41
0.0000
 70
1
  0
VERTEX
  8
21
 10
79.8386
 20
65.9704
 30
0.0000
  0
VERTEX
  8
21
 10
79.8386
 20
65.7999
 30
0.0000
 42
1.0000
  0
VERTEX
  8
21
 10
80.0164
 20
65.7999
 30
0.0000
  0
VERTEX
  8
21
 10
80.0164
 20
65.9704
 30
0.0000
 42
1.0000
  0
SEQEND
  8
0
  0
POLYLINE
  8
21
 66
1
 10
0.0000
 20
0.0000
 30
0.0000
 40
0.0000
 41
0.0000
 70
1
  0
VERTEX
  8
21
 10
79.9275
 20
65.8888
 30
0.0000
  0
VERTEX
  8
21
 10
79.2454
 20
65.8888
 30
0.0000
 42
1.0000
  0
VERTEX
  8
21
 10
79.2454
 20
65.7110
 30
0.0000
  0
VERTEX
  8
21
 10
79.9275
 20
65.7110
 30
0.0000
 42
1.0000
  0
SEQEND
  8
0
  0
POLYLINE
  8
21
 66
1
 10
0.0000
 20
0.0000
 30
0.0000
 40
0.0000
 41
0.0000
 70
1
  0
VERTEX
  8
21
 10
80.4320
 20
66.3115
 30
0.0000
  0
VERTEX
  8
21
 10
80.4320
 20
65.6294
 30
0.0000
 42
1.0000
  0
VERTEX
  8
21
 10
80.6098
 20
65.6294
 30
0.0000
  0
VERTEX
  8
21
 10
80.6098
 20
66.3115
 30
0.0000
 42
1.0000
  0
SEQEND
  8
0
  0
POLYLINE
  8
21
 66
1
 10
0.0000
 20
0.0000
 30
0.0000
 40
0.0000
 41
0.0000
 70
1
  0
VERTEX
  8
21
 10
80.4580
 20
65.5665
 30
0.0000
  0
VERTEX
  8
21
 10
80.6285
 20
65.3960
 30
0.0000
 42
1.0000
  0
VERTEX
  8
21
 10
80.7542
 20
65.5218
 30
0.0000
  0
VERTEX
  8
21
 10
80.5837
 20
65.6923
 30
0.0000
 42
1.0000
  0
SEQEND
  8
0
  0
POLYLINE
  8
21
 66
1
 10
0.0000
 20
0.0000
 30
0.0000
 40
0.0000
 41
0.0000
 70
1
  0
VERTEX
  8
21
 10
80.3504
 20
66.0520
 30
0.0000
  0
VERTEX
  8
21
 10
80.6914
 20
66.0520
 30
0.0000
 42
1.0000
  0
VERTEX
  8
21
 10
80.6914
 20
66.2298
 30
0.0000
  0
VERTEX
  8
21
 10
80.3504
 20
66.2298
 30
0.0000
 42
1.0000
  0
SEQEND
  8
0
  0
POLYLINE
  8
21
 66
1
 10
0.0000
 20
0.0000
 30
0.0000
 40
0.0000
 41
0.0000
 70
1
  0
VERTEX
  8
21
 10
81.2575
 20
65.3700
 30
0.0000
  0
VERTEX
  8
21
 10
81.5985
 20
65.3700
 30
0.0000
 42
1.0000
  0
VERTEX
  8
21
 10
81.5985
 20
65.5478
 30
0.0000
  0
VERTEX
  8
21
 10
81.2575
 20
65.5478
 30
0.0000
 42
1.0000
  0
SEQEND
  8
0
  0
POLYLINE
  8
21
 66
1
 10
0.0000
 20
0.0000
 30
0.0000
 40
0.0000
 41
0.0000
 70
1
  0
VERTEX
  8
21
 10
81.6614
 20
65.3960
 30
0.0000
  0
VERTEX
  8
21
 10
81.8319
 20
65.5665
 30
0.0000
 42
1.0000
  0
VERTEX
  8
21
 10
81.7062
 20
65.6923
 30
0.0000
  0
VERTEX
  8
21
 10
81.5357
 20
65.5218
 30
0.0000
 42
1.0000
  0
SEQEND
  8
0
  0
POLYLINE
  8
21
 66
1
 10
0.0000
 20
0.0000
 30
0.0000
 40
0.0000
 41
0.0000
 70
1
  0
VERTEX
  8
21
 10
81.8579
 20
65.6294
 30
0.0000
  0
VERTEX
  8
21
 10
81.8579
 20
65.9704
 30
0.0000
 42
1.0000
  0
VERTEX
  8
21
 10
81.6801
 20
65.9704
 30
0.0000
  0
VERTEX
  8
21
 10
81.6801
 20
65.6294
 30
0.0000
 42
1.0000
  0
SEQEND
  8
0
  0
POLYLINE
  8
21
 66
1
 10
0.0000
 20
0.0000
 30
0.0000
 40
0.0000
 41
0.0000
 70
1
  0
VERTEX
  8
21
 10
81.8319
 20
66.0333
 30
0.0000
  0
VERTEX
  8
21
 10
81.6614
 20
66.2038
 30
0.0000
 42
1.0000
  0
VERTEX
  8
21
 10
81.5357
 20
66.0781
 30
0.0000
  0
VERTEX
  8
21
 10
81.7062
 20
65.9076
 30
0.0000
 42
1.0000
  0
SEQEND
  8
0
  0
POLYLINE
  8
21
 66
1
 10
0.0000
 20
0.0000
 30
0.0000
 40
0.0000
 41
0.0000
 70
1
  0
VERTEX
  8
21
 10
81.5985
 20
66.2298
 30
0.0000
  0
VERTEX
  8
21
 10
81.2575
 20
66.2298
 30
0.0000
 42
1.0000
  0
VERTEX
  8
21
 10
81.2575
 20
66.0520
 30
0.0000
  0
VERTEX
  8
21
 10
81.5985
 20
66.0520
 30
0.0000
 42
1.0000
  0
SEQEND
  8
0
  0
POLYLINE
  8
21
 66
1
 10
0.0000
 20
0.0000
 30
0.0000
 40
0.0000
 41
0.0000
 70
1
  0
VERTEX
  8
21
 10
81.1946
 20
66.2038
 30
0.0000
  0
VERTEX
  8
21
 10
81.0241
 20
66.0333
 30
0.0000
 42
1.0000
  0
VERTEX
  8
21
 10
81.1498
 20
65.9076
 30
0.0000
  0
VERTEX
  8
21
 10
81.3204
 20
66.0781
 30
0.0000
 42
1.0000
  0
SEQEND
  8
0
  0
POLYLINE
  8
21
 66
1
 10
0.0000
 20
0.0000
 30
0.0000
 40
0.0000
 41
0.0000
 70
1
  0
VERTEX
  8
21
 10
80.9981
 20
65.9704
 30
0.0000
  0
VERTEX
  8
21
 10
80.9981
 20
65.6294
 30
0.0000
 42
1.0000
  0
VERTEX
  8
21
 10
81.1759
 20
65.6294
 30
0.0000
  0
VERTEX
  8
21
 10
81.1759
 20
65.9704
 30
0.0000
 42
1.0000
  0
SEQEND
  8
0
  0
POLYLINE
  8
21
 66
1
 10
0.0000
 20
0.0000
 30
0.0000
 40
0.0000
 41
0.0000
 70
1
  0
VERTEX
  8
21
 10
81.0241
 20
65.5665
 30
0.0000
  0
VERTEX
  8
21
 10
81.1946
 20
65.3960
 30
0.0000
 42
1.0000
  0
VERTEX
  8
21
 10
81.3204
 20
65.5218
 30
0.0000
  0
VERTEX
  8
21
 10
81.1498
 20
65.6923
 30
0.0000
 42
1.0000
  0
SEQEND
  8
0
  0
POLYLINE
  8
21
 66
1
 10
0.0000
 20
0.0000
 30
0.0000
 40
0.0000
 41
0.0000
 70
1
  0
VERTEX
  8
21
 10
82.3624
 20
65.3700
 30
0.0000
  0
VERTEX
  8
21
 10
82.7035
 20
65.3700
 30
0.0000
 42
1.0000
  0
VERTEX
  8
21
 10
82.7035
 20
65.5478
 30
0.0000
  0
VERTEX
  8
21
 10
82.3624
 20
65.5478
 30
0.0000
 42
1.0000
  0
SEQEND
  8
0
  0
POLYLINE
  8
21
 66
1
 10
0.0000
 20
0.0000
 30
0.0000
 40
0.0000
 41
0.0000
 70
1
  0
VERTEX
  8
21
 10
82.7663
 20
65.3960
 30
0.0000
  0
VERTEX
  8
21
 10
82.9368
 20
65.5665
 30
0.0000
 42
1.0000
  0
VERTEX
  8
21
 10
82.8111
 20
65.6923
 30
0.0000
  0
VERTEX
  8
21
 10
82.6406
 20
65.5218
 30
0.0000
 42
1.0000
  0
SEQEND
  8
0
  0
POLYLINE
  8
21
 66
1
 10
0.0000
 20
0.0000
 30
0.0000
 40
0.0000
 41
0.0000
 70
1
  0
VERTEX
  8
21
 10
82.9629
 20
65.6294
 30
0.0000
  0
VERTEX
  8
21
 10
82.9629
 20
65.9704
 30
0.0000
 42
1.0000
  0
VERTEX
  8
21
 10
82.7851
 20
65.9704
 30
0.0000
  0
VERTEX
  8
21
 10
82.7851
 20
65.6294
 30
0.0000
 42
1.0000
  0
SEQEND
  8
0
  0
POLYLINE
  8
21
 66
1
 10
0.0000
 20
0.0000
 30
0.0000
 40
0.0000
 41
0.0000
 70
1
  0
VERTEX
  8
21
 10
82.9368
 20
66.0333
 30
0.0000
  0
VERTEX
  8
21
 10
82.7663
 20
66.2038
 30
0.0000
 42
1.0000
  0
VERTEX
  8
21
 10
82.6406
 20
66.0781
 30
0.0000
  0
VERTEX
  8
21
 10
82.8111
 20
65.9076
 30
0.0000
 42
1.0000
  0
SEQEND
  8
0
  0
POLYLINE
  8
21
 66
1
 10
0.0000
 20
0.0000
 30
0.0000
 40
0.0000
 41
0.0000
 70
1
  0
VERTEX
  8
21
 10
82.7035
 20
66.2298
 30
0.0000
  0
VERTEX
  8
21
 10
82.3624
 20
66.2298
 30
0.0000
 42
1.0000
  0
VERTEX
  8
21
 10
82.3624
 20
66.0520
 30
0.0000
  0
VERTEX
  8
21
 10
82.7035
 20
66.0520
 30
0.0000
 42
1.0000
  0
SEQEND
  8
0
  0
POLYLINE
  8
21
 66
1
 10
0.0000
 20
0.0000
 30
0.0000
 40
0.0000
 41
0.0000
 70
1
  0
VERTEX
  8
21
 10
82.2996
 20
66.2038
 30
0.0000
  0
VERTEX
  8
21
 10
82.1291
 20
66.0333
 30
0.0000
 42
1.0000
  0
VERTEX
  8
21
 10
82.2548
 20
65.9076
 30
0.0000
  0
VERTEX
  8
21
 10
82.4253
 20
66.0781
 30
0.0000
 42
1.0000
  0
SEQEND
  8
0
  0
POLYLINE
  8
21
 66
1
 10
0.0000
 20
0.0000
 30
0.0000
 40
0.0000
 41
0.0000
 70
1
  0
VERTEX
  8
21
 10
82.1030
 20
65.9704
 30
0.0000
  0
VERTEX
  8
21
 10
82.1030
 20
65.6294
 30
0.0000
 42
1.0000
  0
VERTEX
  8
21
 10
82.2808
 20
65.6294
 30
0.0000
  0
VERTEX
  8
21
 10
82.2808
 20
65.9704
 30
0.0000
 42
1.0000
  0
SEQEND
  8
0
  0
POLYLINE
  8
21
 66
1
 10
0.0000
 20
0.0000
 30
0.0000
 40
0.0000
 41
0.0000
 70
1
  0
VERTEX
  8
21
 10
82.1291
 20
65.5665
 30
0.0000
  0
VERTEX
  8
21
 10
82.2996
 20
65.3960
 30
0.0000
 42
1.0000
  0
VERTEX
  8
21
 10
82.4253
 20
65.5218
 30
0.0000
  0
VERTEX
  8
21
 10
82.2548
 20
65.6923
 30
0.0000
 42
1.0000
  0
SEQEND
  8
0
  0
POLYLINE
  8
21
 66
1
 10
0.0000
 20
0.0000
 30
0.0000
 40
0.0000
 41
0.0000
 70
1
  0
VERTEX
  8
21
 10
83.3785
 20
66.3115
 30
0.0000
  0
VERTEX
  8
21
 10
83.3785
 20
65.6294
 30
0.0000
 42
1.0000
  0
VERTEX
  8
21
 10
83.5563
 20
65.6294
 30
0.0000
  0
VERTEX
  8
21
 10
83.5563
 20
66.3115
 30
0.0000
 42
1.0000
  0
SEQEND
  8
0
  0
POLYLINE
  8
21
 66
1
 10
0.0000
 20
0.0000
 30
0.0000
 40
0.0000
 41
0.0000
 70
1
  0
VERTEX
  8
21
 10
83.4045
 20
65.5665
 30
0.0000
  0
VERTEX
  8
21
 10
83.5750
 20
65.3960
 30
0.0000
 42
1.0000
  0
VERTEX
  8
21
 10
83.7008
 20
65.5218
 30
0.0000
  0
VERTEX
  8
21
 10
83.5302
 20
65.6923
 30
0.0000
 42
1.0000
  0
SEQEND
  8
0
  0
POLYLINE
  8
21
 66
1
 10
0.0000
 20
0.0000
 30
0.0000
 40
0.0000
 41
0.0000
 70
1
  0
VERTEX
  8
21
 10
83.2969
 20
66.0520
 30
0.0000
  0
VERTEX
  8
21
 10
83.6379
 20
66.0520
 30
0.0000
 42
1.0000
  0
VERTEX
  8
21
 10
83.6379
 20
66.2298
 30
0.0000
  0
VERTEX
  8
21
 10
83.2969
 20
66.2298
 30
0.0000
 42
1.0000
  0
SEQEND
  8
0
  0
POLYLINE
  8
21
 66
1
 10
0.0000
 20
0.0000
 30
0.0000
 40
0.0000
 41
0.0000
 70
1
  0
VERTEX
  8
21
 10
83.9446
 20
66.4820
 30
0.0000
  0
VERTEX
  8
21
 10
83.9446
 20
65.4589
 30
0.0000
 42
1.0000
  0
VERTEX
  8
21
 10
84.1224
 20
65.4589
 30
0.0000
  0
VERTEX
  8
21
 10
84.1224
 20
66.4820
 30
0.0000
 42
1.0000
  0
SEQEND
  8
0
  0
POLYLINE
  8
21
 66
1
 10
0.0000
 20
0.0000
 30
0.0000
 40
0.0000
 41
0.0000
 70
1
  0
VERTEX
  8
21
 10
84.0964
 20
65.9076
 30
0.0000
  0
VERTEX
  8
21
 10
84.2669
 20
66.0781
 30
0.0000
 42
1.0000
  0
VERTEX
  8
21
 10
84.1412
 20
66.2038
 30
0.0000
  0
VERTEX
  8
21
 10
83.9706
 20
66.0333
 30
0.0000
 42
1.0000
  0
SEQEND
  8
0
  0
POLYLINE
  8
21
 66
1
 10
0.0000
 20
0.0000
 30
0.0000
 40
0.0000
 41
0.0000
 70
1
  0
VERTEX
  8
21
 10
84.2040
 20
66.0520
 30
0.0000
  0
VERTEX
  8
21
 10
84.5450
 20
66.0520
 30
0.0000
 42
1.0000
  0
VERTEX
  8
21
 10
84.5450
 20
66.2298
 30
0.0000
  0
VERTEX
  8
21
 10
84.2040
 20
66.2298
 30
0.0000
 42
1.0000
  0
SEQEND
  8
0
  0
POLYLINE
  8
21
 66
1
 10
0.0000
 20
0.0000
 30
0.0000
 40
0.0000
 41
0.0000
 70
1
  0
VERTEX
  8
21
 10
84.4822
 20
66.0781
 30
0.0000
  0
VERTEX
  8
21
 10
84.6527
 20
65.9076
 30
0.0000
 42
1.0000
  0
VERTEX
  8
21
 10
84.7784
 20
66.0333
 30
0.0000
  0
VERTEX
  8
21
 10
84.6079
 20
66.2038
 30
0.0000
 42
1.0000
  0
SEQEND
  8
0
  0
POLYLINE
  8
21
 66
1
 10
0.0000
 20
0.0000
 30
0.0000
 40
0.0000
 41
0.0000
 70
1
  0
VERTEX
  8
21
 10
84.6267
 20
65.9704
 30
0.0000
  0
VERTEX
  8
21
 10
84.6267
 20
65.4589
 30
0.0000
 42
1.0000
  0
VERTEX
  8
21
 10
84.8045
 20
65.4589
 30
0.0000
  0
VERTEX
  8
21
 10
84.8045
 20
65.9704
 30
0.0000
 42
1.0000
  0
SEQEND
  8
0
  0
POLYLINE
  8
21
 66
1
 10
0.0000
 20
0.0000
 30
0.0000
 40
0.0000
 41
0.0000
 70
1
  0
VERTEX
  8
21
 10
86.8438
 20
65.4589
 30
0.0000
  0
VERTEX
  8
21
 10
86.8438
 20
66.4820
 30
0.0000
 42
1.0000
  0
VERTEX
  8
21
 10
86.6660
 20
66.4820
 30
0.0000
  0
VERTEX
  8
21
 10
86.6660
 20
65.4589
 30
0.0000
 42
1.0000
  0
SEQEND
  8
0
  0
POLYLINE
  8
21
 66
1
 10
0.0000
 20
0.0000
 30
0.0000
 40
0.0000
 41
0.0000
 70
1
  0
VERTEX
  8
21
 10
86.6921
 20
66.5448
 30
0.0000
  0
VERTEX
  8
21
 10
86.1805
 20
66.0333
 30
0.0000
 42
1.0000
  0
VERTEX
  8
21
 10
86.3063
 20
65.9076
 30
0.0000
  0
VERTEX
  8
21
 10
86.8178
 20
66.4191
 30
0.0000
 42
1.0000
  0
SEQEND
  8
0
  0
POLYLINE
  8
21
 66
1
 10
0.0000
 20
0.0000
 30
0.0000
 40
0.0000
 41
0.0000
 70
1
  0
VERTEX
  8
21
 10
86.2434
 20
65.8815
 30
0.0000
  0
VERTEX
  8
21
 10
86.9254
 20
65.8815
 30
0.0000
 42
1.0000
  0
VERTEX
  8
21
 10
86.9254
 20
66.0593
 30
0.0000
  0
VERTEX
  8
21
 10
86.2434
 20
66.0593
 30
0.0000
 42
1.0000
  0
SEQEND
  8
0
  0
POLYLINE
  8
21
 66
1
 10
0.0000
 20
0.0000
 30
0.0000
 40
0.0000
 41
0.0000
 70
1
  0
VERTEX
  8
21
 10
87.4372
 20
65.4589
 30
0.0000
  0
VERTEX
  8
21
 10
87.4372
 20
65.6294
 30
0.0000
 42
1.0000
  0
VERTEX
  8
21
 10
87.2594
 20
65.6294
 30
0.0000
  0
VERTEX
  8
21
 10
87.2594
 20
65.4589
 30
0.0000
 42
1.0000
  0
SEQEND
  8
0
  0
POLYLINE
  8
21
 66
1
 10
0.0000
 20
0.0000
 30
0.0000
 40
0.0000
 41
0.0000
 70
1
  0
VERTEX
  8
21
 10
87.3483
 20
65.5405
 30
0.0000
  0
VERTEX
  8
21
 10
87.5188
 20
65.5405
 30
0.0000
 42
1.0000
  0
VERTEX
  8
21
 10
87.5188
 20
65.7183
 30
0.0000
  0
VERTEX
  8
21
 10
87.3483
 20
65.7183
 30
0.0000
 42
1.0000
  0
SEQEND
  8
0
  0
POLYLINE
  8
21
 66
1
 10
0.0000
 20
0.0000
 30
0.0000
 40
0.0000
 41
0.0000
 70
1
  0
VERTEX
  8
21
 10
87.4299
 20
65.6294
 30
0.0000
  0
VERTEX
  8
21
 10
87.4299
 20
65.4589
 30
0.0000
 42
1.0000
  0
VERTEX
  8
21
 10
87.6077
 20
65.4589
 30
0.0000
  0
VERTEX
  8
21
 10
87.6077
 20
65.6294
 30
0.0000
 42
1.0000
  0
SEQEND
  8
0
  0
POLYLINE
  8
21
 66
1
 10
0.0000
 20
0.0000
 30
0.0000
 40
0.0000
 41
0.0000
 70
1
  0
VERTEX
  8
21
 10
87.5188
 20
65.5478
 30
0.0000
  0
VERTEX
  8
21
 10
87.3483
 20
65.5478
 30
0.0000
 42
1.0000
  0
VERTEX
  8
21
 10
87.3483
 20
65.3700
 30
0.0000
  0
VERTEX
  8
21
 10
87.5188
 20
65.3700
 30
0.0000
 42
1.0000
  0
SEQEND
  8
0
  0
POLYLINE
  8
21
 66
1
 10
0.0000
 20
0.0000
 30
0.0000
 40
0.0000
 41
0.0000
 70
1
  0
VERTEX
  8
21
 10
87.9897
 20
65.6294
 30
0.0000
  0
VERTEX
  8
21
 10
87.9897
 20
66.3115
 30
0.0000
 42
1.0000
  0
VERTEX
  8
21
 10
87.8119
 20
66.3115
 30
0.0000
  0
VERTEX
  8
21
 10
87.8119
 20
65.6294
 30
0.0000
 42
1.0000
  0
SEQEND
  8
0
  0
POLYLINE
  8
21
 66
1
 10
0.0000
 20
0.0000
 30
0.0000
 40
0.0000
 41
0.0000
 70
1
  0
VERTEX
  8
21
 10
87.9637
 20
66.2486
 30
0.0000
  0
VERTEX
  8
21
 10
88.1342
 20
66.4191
 30
0.0000
 42
1.0000
  0
VERTEX
  8
21
 10
88.0085
 20
66.5448
 30
0.0000
  0
VERTEX
  8
21
 10
87.8379
 20
66.3743
 30
0.0000
 42
1.0000
  0
SEQEND
  8
0
  0
POLYLINE
  8
21
 66
1
 10
0.0000
 20
0.0000
 30
0.0000
 40
0.0000
 41
0.0000
 70
1
  0
VERTEX
  8
21
 10
88.0713
 20
66.3931
 30
0.0000
  0
VERTEX
  8
21
 10
88.4123
 20
66.3931
 30
0.0000
 42
1.0000
  0
VERTEX
  8
21
 10
88.4123
 20
66.5709
 30
0.0000
  0
VERTEX
  8
21
 10
88.0713
 20
66.5709
 30
0.0000
 42
1.0000
  0
SEQEND
  8
0
  0
POLYLINE
  8
21
 66
1
 10
0.0000
 20
0.0000
 30
0.0000
 40
0.0000
 41
0.0000
 70
1
  0
VERTEX
  8
21
 10
88.3495
 20
66.4191
 30
0.0000
  0
VERTEX
  8
21
 10
88.5200
 20
66.2486
 30
0.0000
 42
1.0000
  0
VERTEX
  8
21
 10
88.6457
 20
66.3743
 30
0.0000
  0
VERTEX
  8
21
 10
88.4752
 20
66.5448
 30
0.0000
 42
1.0000
  0
SEQEND
  8
0
  0
POLYLINE
  8
21
 66
1
 10
0.0000
 20
0.0000
 30
0.0000
 40
0.0000
 41
0.0000
 70
1
  0
VERTEX
  8
21
 10
88.4940
 20
66.3115
 30
0.0000
  0
VERTEX
  8
21
 10
88.4940
 20
65.6294
 30
0.0000
 42
1.0000
  0
VERTEX
  8
21
 10
88.6718
 20
65.6294
 30
0.0000
  0
VERTEX
  8
21
 10
88.6718
 20
66.3115
 30
0.0000
 42
1.0000
  0
SEQEND
  8
0
  0
POLYLINE
  8
21
 66
1
 10
0.0000
 20
0.0000
 30
0.0000
 40
0.0000
 41
0.0000
 70
1
  0
VERTEX
  8
21
 10
88.5200
 20
65.6923
 30
0.0000
  0
VERTEX
  8
21
 10
88.3495
 20
65.5218
 30
0.0000
 42
1.0000
  0
VERTEX
  8
21
 10
88.4752
 20
65.3960
 30
0.0000
  0
VERTEX
  8
21
 10
88.6457
 20
65.5665
 30
0.0000
 42
1.0000
  0
SEQEND
  8
0
  0
POLYLINE
  8
21
 66
1
 10
0.0000
 20
0.0000
 30
0.0000
 40
0.0000
 41
0.0000
 70
1
  0
VERTEX
  8
21
 10
88.4123
 20
65.5478
 30
0.0000
  0
VERTEX
  8
21
 10
88.0713
 20
65.5478
 30
0.0000
 42
1.0000
  0
VERTEX
  8
21
 10
88.0713
 20
65.3700
 30
0.0000
  0
VERTEX
  8
21
 10
88.4123
 20
65.3700
 30
0.0000
 42
1.0000
  0
SEQEND
  8
0
  0
POLYLINE
  8
21
 66
1
 10
0.0000
 20
0.0000
 30
0.0000
 40
0.0000
 41
0.0000
 70
1
  0
VERTEX
  8
21
 10
88.1342
 20
65.5218
 30
0.0000
  0
VERTEX
  8
21
 10
87.9637
 20
65.6923
 30
0.0000
 42
1.0000
  0
VERTEX
  8
21
 10
87.8379
 20
65.5665
 30
0.0000
  0
VERTEX
  8
21
 10
88.0085
 20
65.3960
 30
0.0000
 42
1.0000
  0
SEQEND
  8
0
  0
POLYLINE
  8
21
 66
1
 10
0.0000
 20
0.0000
 30
0.0000
 40
0.0000
 41
0.0000
 70
1
  0
VERTEX
  8
21
 10
87.9637
 20
65.5665
 30
0.0000
  0
VERTEX
  8
21
 10
88.6457
 20
66.2486
 30
0.0000
 42
1.0000
  0
VERTEX
  8
21
 10
88.5200
 20
66.3743
 30
0.0000
  0
VERTEX
  8
21
 10
87.8379
 20
65.6923
 30
0.0000
 42
1.0000
  0
SEQEND
  8
0
  0
POLYLINE
  8
21
 66
1
 10
0.0000
 20
0.0000
 30
0.0000
 40
0.0000
 41
0.0000
 70
1
  0
VERTEX
  8
21
 10
77.3618
 20
49.7486
 30
0.0000
  0
VERTEX
  8
21
 10
77.5323
 20
49.9191
 30
0.0000
 42
1.0000
  0
VERTEX
  8
21
 10
77.4065
 20
50.0448
 30
0.0000
  0
VERTEX
  8
21
 10
77.2360
 20
49.8743
 30
0.0000
 42
1.0000
  0
SEQEND
  8
0
  0
POLYLINE
  8
21
 66
1
 10
0.0000
 20
0.0000
 30
0.0000
 40
0.0000
 41
0.0000
 70
1
  0
VERTEX
  8
21
 10
77.4694
 20
49.8931
 30
0.0000
  0
VERTEX
  8
21
 10
77.8104
 20
49.8931
 30
0.0000
 42
1.0000
  0
VERTEX
  8
21
 10
77.8104
 20
50.0709
 30
0.0000
  0
VERTEX
  8
21
 10
77.4694
 20
50.0709
 30
0.0000
 42
1.0000
  0
SEQEND
  8
0
  0
POLYLINE
  8
21
 66
1
 10
0.0000
 20
0.0000
 30
0.0000
 40
0.0000
 41
0.0000
 70
1
  0
VERTEX
  8
21
 10
77.7476
 20
49.9191
 30
0.0000
  0
VERTEX
  8
21
 10
77.9181
 20
49.7486
 30
0.0000
 42
1.0000
  0
VERTEX
  8
21
 10
78.0438
 20
49.8743
 30
0.0000
  0
VERTEX
  8
21
 10
77.8733
 20
50.0448
 30
0.0000
 42
1.0000
  0
SEQEND
  8
0
  0
POLYLINE
  8
21
 66
1
 10
0.0000
 20
0.0000
 30
0.0000
 40
0.0000
 41
0.0000
 70
1
  0
VERTEX
  8
21
 10
77.8920
 20
49.8115
 30
0.0000
  0
VERTEX
  8
21
 10
77.8920
 20
49.6409
 30
0.0000
 42
1.0000
  0
VERTEX
  8
21
 10
78.0698
 20
49.6409
 30
0.0000
  0
VERTEX
  8
21
 10
78.0698
 20
49.8115
 30
0.0000
 42
1.0000
  0
SEQEND
  8
0
  0
POLYLINE
  8
21
 66
1
 10
0.0000
 20
0.0000
 30
0.0000
 40
0.0000
 41
0.0000
 70
1
  0
VERTEX
  8
21
 10
77.9181
 20
49.7038
 30
0.0000
  0
VERTEX
  8
21
 10
77.7476
 20
49.5333
 30
0.0000
 42
1.0000
  0
VERTEX
  8
21
 10
77.8733
 20
49.4076
 30
0.0000
  0
VERTEX
  8
21
 10
78.0438
 20
49.5781
 30
0.0000
 42
1.0000
  0
SEQEND
  8
0
  0
POLYLINE
  8
21
 66
1
 10
0.0000
 20
0.0000
 30
0.0000
 40
0.0000
 41
0.0000
 70
1
  0
VERTEX
  8
21
 10
77.7476
 20
49.4076
 30
0.0000
  0
VERTEX
  8
21
 10
77.9181
 20
49.2371
 30
0.0000
 42
1.0000
  0
VERTEX
  8
21
 10
78.0438
 20
49.3628
 30
0.0000
  0
VERTEX
  8
21
 10
77.8733
 20
49.5333
 30
0.0000
 42
1.0000
  0
SEQEND
  8
0
  0
POLYLINE
  8
21
 66
1
 10
0.0000
 20
0.0000
 30
0.0000
 40
0.0000
 41
0.0000
 70
1
  0
VERTEX
  8
21
 10
77.8920
 20
49.2999
 30
0.0000
  0
VERTEX
  8
21
 10
77.8920
 20
49.1294
 30
0.0000
 42
1.0000
  0
VERTEX
  8
21
 10
78.0698
 20
49.1294
 30
0.0000
  0
VERTEX
  8
21
 10
78.0698
 20
49.2999
 30
0.0000
 42
1.0000
  0
SEQEND
  8
0
  0
POLYLINE
  8
21
 66
1
 10
0.0000
 20
0.0000
 30
0.0000
 40
0.0000
 41
0.0000
 70
1
  0
VERTEX
  8
21
 10
77.9181
 20
49.1923
 30
0.0000
  0
VERTEX
  8
21
 10
77.7476
 20
49.0218
 30
0.0000
 42
1.0000
  0
VERTEX
  8
21
 10
77.8733
 20
48.8960
 30
0.0000
  0
VERTEX
  8
21
 10
78.0438
 20
49.0665
 30
0.0000
 42
1.0000
  0
SEQEND
  8
0
  0
POLYLINE
  8
21
 66
1
 10
0.0000
 20
0.0000
 30
0.0000
 40
0.0000
 41
0.0000
 70
1
  0
VERTEX
  8
21
 10
77.8104
 20
49.0478
 30
0.0000
  0
VERTEX
  8
21
 10
77.4694
 20
49.0478
 30
0.0000
 42
1.0000
  0
VERTEX
  8
21
 10
77.4694
 20
48.8700
 30
0.0000
  0
VERTEX
  8
21
 10
77.8104
 20
48.8700
 30
0.0000
 42
1.0000
  0
SEQEND
  8
0
  0
POLYLINE
  8
21
 66
1
 10
0.0000
 20
0.0000
 30
0.0000
 40
0.0000
 41
0.0000
 70
1
  0
VERTEX
  8
21
 10
77.5323
 20
49.0218
 30
0.0000
  0
VERTEX
  8
21
 10
77.3618
 20
49.1923
 30
0.0000
 42
1.0000
  0
VERTEX
  8
21
 10
77.2360
 20
49.0665
 30
0.0000
  0
VERTEX
  8
21
 10
77.4065
 20
48.8960
 30
0.0000
 42
1.0000
  0
SEQEND
  8
0
  0
POLYLINE
  8
21
 66
1
 10
0.0000
 20
0.0000
 30
0.0000
 40
0.0000
 41
0.0000
 70
1
  0
VERTEX
  8
21
 10
77.3878
 20
49.1294
 30
0.0000
  0
VERTEX
  8
21
 10
77.3878
 20
49.2999
 30
0.0000
 42
1.0000
  0
VERTEX
  8
21
 10
77.2100
 20
49.2999
 30
0.0000
  0
VERTEX
  8
21
 10
77.2100
 20
49.1294
 30
0.0000
 42
1.0000
  0
SEQEND
  8
0
  0
POLYLINE
  8
21
 66
1
 10
0.0000
 20
0.0000
 30
0.0000
 40
0.0000
 41
0.0000
 70
1
  0
VERTEX
  8
21
 10
77.3618
 20
49.2371
 30
0.0000
  0
VERTEX
  8
21
 10
77.5323
 20
49.4076
 30
0.0000
 42
1.0000
  0
VERTEX
  8
21
 10
77.4065
 20
49.5333
 30
0.0000
  0
VERTEX
  8
21
 10
77.2360
 20
49.3628
 30
0.0000
 42
1.0000
  0
SEQEND
  8
0
  0
POLYLINE
  8
21
 66
1
 10
0.0000
 20
0.0000
 30
0.0000
 40
0.0000
 41
0.0000
 70
1
  0
VERTEX
  8
21
 10
77.5323
 20
49.5333
 30
0.0000
  0
VERTEX
  8
21
 10
77.3618
 20
49.7038
 30
0.0000
 42
1.0000
  0
VERTEX
  8
21
 10
77.2360
 20
49.5781
 30
0.0000
  0
VERTEX
  8
21
 10
77.4065
 20
49.4076
 30
0.0000
 42
1.0000
  0
SEQEND
  8
0
  0
POLYLINE
  8
21
 66
1
 10
0.0000
 20
0.0000
 30
0.0000
 40
0.0000
 41
0.0000
 70
1
  0
VERTEX
  8
21
 10
77.3878
 20
49.6409
 30
0.0000
  0
VERTEX
  8
21
 10
77.3878
 20
49.8115
 30
0.0000
 42
1.0000
  0
VERTEX
  8
21
 10
77.2100
 20
49.8115
 30
0.0000
  0
VERTEX
  8
21
 10
77.2100
 20
49.6409
 30
0.0000
 42
1.0000
  0
SEQEND
  8
0
  0
POLYLINE
  8
21
 66
1
 10
0.0000
 20
0.0000
 30
0.0000
 40
0.0000
 41
0.0000
 70
1
  0
VERTEX
  8
21
 10
77.4694
 20
49.3815
 30
0.0000
  0
VERTEX
  8
21
 10
77.8104
 20
49.3815
 30
0.0000
 42
1.0000
  0
VERTEX
  8
21
 10
77.8104
 20
49.5593
 30
0.0000
  0
VERTEX
  8
21
 10
77.4694
 20
49.5593
 30
0.0000
 42
1.0000
  0
SEQEND
  8
0
  0
POLYLINE
  8
21
 66
1
 10
0.0000
 20
0.0000
 30
0.0000
 40
0.0000
 41
0.0000
 70
1
  0
VERTEX
  8
21
 10
86.7360
 20
49.0665
 30
0.0000
  0
VERTEX
  8
21
 10
86.9065
 20
48.8960
 30
0.0000
 42
1.0000
  0
VERTEX
  8
21
 10
87.0323
 20
49.0218
 30
0.0000
  0
VERTEX
  8
21
 10
86.8618
 20
49.1923
 30
0.0000
 42
1.0000
  0
SEQEND
  8
0
  0
POLYLINE
  8
21
 66
1
 10
0.0000
 20
0.0000
 30
0.0000
 40
0.0000
 41
0.0000
 70
1
  0
VERTEX
  8
21
 10
86.9694
 20
48.8700
 30
0.0000
  0
VERTEX
  8
21
 10
87.3104
 20
48.8700
 30
0.0000
 42
1.0000
  0
VERTEX
  8
21
 10
87.3104
 20
49.0478
 30
0.0000
  0
VERTEX
  8
21
 10
86.9694
 20
49.0478
 30
0.0000
 42
1.0000
  0
SEQEND
  8
0
  0
POLYLINE
  8
21
 66
1
 10
0.0000
 20
0.0000
 30
0.0000
 40
0.0000
 41
0.0000
 70
1
  0
VERTEX
  8
21
 10
87.3733
 20
48.8960
 30
0.0000
  0
VERTEX
  8
21
 10
87.5438
 20
49.0665
 30
0.0000
 42
1.0000
  0
VERTEX
  8
21
 10
87.4181
 20
49.1923
 30
0.0000
  0
VERTEX
  8
21
 10
87.2476
 20
49.0218
 30
0.0000
 42
1.0000
  0
SEQEND
  8
0
  0
POLYLINE
  8
21
 66
1
 10
0.0000
 20
0.0000
 30
0.0000
 40
0.0000
 41
0.0000
 70
1
  0
VERTEX
  8
21
 10
87.5698
 20
49.1294
 30
0.0000
  0
VERTEX
  8
21
 10
87.5698
 20
49.8115
 30
0.0000
 42
1.0000
  0
VERTEX
  8
21
 10
87.3920
 20
49.8115
 30
0.0000
  0
VERTEX
  8
21
 10
87.3920
 20
49.1294
 30
0.0000
 42
1.0000
  0
SEQEND
  8
0
  0
POLYLINE
  8
21
 66
1
 10
0.0000
 20
0.0000
 30
0.0000
 40
0.0000
 41
0.0000
 70
1
  0
VERTEX
  8
21
 10
87.5438
 20
49.8743
 30
0.0000
  0
VERTEX
  8
21
 10
87.3733
 20
50.0448
 30
0.0000
 42
1.0000
  0
VERTEX
  8
21
 10
87.2476
 20
49.9191
 30
0.0000
  0
VERTEX
  8
21
 10
87.4181
 20
49.7486
 30
0.0000
 42
1.0000
  0
SEQEND
  8
0
  0
POLYLINE
  8
21
 66
1
 10
0.0000
 20
0.0000
 30
0.0000
 40
0.0000
 41
0.0000
 70
1
  0
VERTEX
  8
21
 10
87.3104
 20
50.0709
 30
0.0000
  0
VERTEX
  8
21
 10
86.9694
 20
50.0709
 30
0.0000
 42
1.0000
  0
VERTEX
  8
21
 10
86.9694
 20
49.8931
 30
0.0000
  0
VERTEX
  8
21
 10
87.3104
 20
49.8931
 30
0.0000
 42
1.0000
  0
SEQEND
  8
0
  0
POLYLINE
  8
21
 66
1
 10
0.0000
 20
0.0000
 30
0.0000
 40
0.0000
 41
0.0000
 70
1
  0
VERTEX
  8
21
 10
86.9065
 20
50.0448
 30
0.0000
  0
VERTEX
  8
21
 10
86.7360
 20
49.8743
 30
0.0000
 42
1.0000
  0
VERTEX
  8
21
 10
86.8618
 20
49.7486
 30
0.0000
  0
VERTEX
  8
21
 10
87.0323
 20
49.9191
 30
0.0000
 42
1.0000
  0
SEQEND
  8
0
  0
POLYLINE
  8
21
 66
1
 10
0.0000
 20
0.0000
 30
0.0000
 40
0.0000
 41
0.0000
 70
1
  0
VERTEX
  8
21
 10
86.7100
 20
49.8115
 30
0.0000
  0
VERTEX
  8
21
 10
86.7100
 20
49.6409
 30
0.0000
 42
1.0000
  0
VERTEX
  8
21
 10
86.8878
 20
49.6409
 30
0.0000
  0
VERTEX
  8
21
 10
86.8878
 20
49.8115
 30
0.0000
 42
1.0000
  0
SEQEND
  8
0
  0
POLYLINE
  8
21
 66
1
 10
0.0000
 20
0.0000
 30
0.0000
 40
0.0000
 41
0.0000
 70
1
  0
VERTEX
  8
21
 10
86.7360
 20
49.5781
 30
0.0000
  0
VERTEX
  8
21
 10
86.9065
 20
49.4076
 30
0.0000
 42
1.0000
  0
VERTEX
  8
21
 10
87.0323
 20
49.5333
 30
0.0000
  0
VERTEX
  8
21
 10
86.8618
 20
49.7038
 30
0.0000
 42
1.0000
  0
SEQEND
  8
0
  0
POLYLINE
  8
21
 66
1
 10
0.0000
 20
0.0000
 30
0.0000
 40
0.0000
 41
0.0000
 70
1
  0
VERTEX
  8
21
 10
86.9694
 20
49.3815
 30
0.0000
  0
VERTEX
  8
21
 10
87.4809
 20
49.3815
 30
0.0000
 42
1.0000
  0
VERTEX
  8
21
 10
87.4809
 20
49.5593
 30
0.0000
  0
VERTEX
  8
21
 10
86.9694
 20
49.5593
 30
0.0000
 42
1.0000
  0
SEQEND
  8
0
  0
POLYLINE
  8
21
 66
1
 10
0.0000
 20
0.0000
 30
0.0000
 40
0.0000
 41
0.0000
 70
1
  0
VERTEX
  8
21
 10
85.8618
 20
60.0781
 30
0.0000
  0
VERTEX
  8
21
 10
86.2028
 20
60.4191
 30
0.0000
 42
1.0000
  0
VERTEX
  8
21
 10
86.0771
 20
60.5448
 30
0.0000
  0
VERTEX
  8
21
 10
85.7360
 20
60.2038
 30
0.0000
 42
1.0000
  0
SEQEND
  8
0
  0
POLYLINE
  8
21
 66
1
 10
0.0000
 20
0.0000
 30
0.0000
 40
0.0000
 41
0.0000
 70
1
  0
VERTEX
  8
21
 10
86.0510
 20
60.4820
 30
0.0000
  0
VERTEX
  8
21
 10
86.0510
 20
59.4589
 30
0.0000
 42
1.0000
  0
VERTEX
  8
21
 10
86.2288
 20
59.4589
 30
0.0000
  0
VERTEX
  8
21
 10
86.2288
 20
60.4820
 30
0.0000
 42
1.0000
  0
SEQEND
  8
0
  0
POLYLINE
  8
21
 66
1
 10
0.0000
 20
0.0000
 30
0.0000
 40
0.0000
 41
0.0000
 70
1
  0
VERTEX
  8
21
 10
85.7989
 20
59.3700
 30
0.0000
  0
VERTEX
  8
21
 10
86.4809
 20
59.3700
 30
0.0000
 42
1.0000
  0
VERTEX
  8
21
 10
86.4809
 20
59.5478
 30
0.0000
  0
VERTEX
  8
21
 10
85.7989
 20
59.5478
 30
0.0000
 42
1.0000
  0
SEQEND
  8
0
  0
POLYLINE
  8
21
 66
1
 10
0.0000
 20
0.0000
 30
0.0000
 40
0.0000
 41
0.0000
 70
1
  0
VERTEX
  8
21
 10
87.5461
 20
60.5615
 30
0.0000
  0
VERTEX
  8
21
 10
87.2051
 20
60.3910
 30
0.0000
 42
1.0000
  0
VERTEX
  8
21
 10
87.2846
 20
60.2319
 30
0.0000
  0
VERTEX
  8
21
 10
87.6256
 20
60.4025
 30
0.0000
 42
1.0000
  0
SEQEND
  8
0
  0
POLYLINE
  8
21
 66
1
 10
0.0000
 20
0.0000
 30
0.0000
 40
0.0000
 41
0.0000
 70
1
  0
VERTEX
  8
21
 10
87.1820
 20
60.3743
 30
0.0000
  0
VERTEX
  8
21
 10
86.8410
 20
60.0333
 30
0.0000
 42
1.0000
  0
VERTEX
  8
21
 10
86.9667
 20
59.9076
 30
0.0000
  0
VERTEX
  8
21
 10
87.3077
 20
60.2486
 30
0.0000
 42
1.0000
  0
SEQEND
  8
0
  0
POLYLINE
  8
21
 66
1
 10
0.0000
 20
0.0000
 30
0.0000
 40
0.0000
 41
0.0000
 70
1
  0
VERTEX
  8
21
 10
86.8149
 20
59.9704
 30
0.0000
  0
VERTEX
  8
21
 10
86.8149
 20
59.6294
 30
0.0000
 42
1.0000
  0
VERTEX
  8
21
 10
86.9927
 20
59.6294
 30
0.0000
  0
VERTEX
  8
21
 10
86.9927
 20
59.9704
 30
0.0000
 42
1.0000
  0
SEQEND
  8
0
  0
POLYLINE
  8
21
 66
1
 10
0.0000
 20
0.0000
 30
0.0000
 40
0.0000
 41
0.0000
 70
1
  0
VERTEX
  8
21
 10
86.8410
 20
59.5665
 30
0.0000
  0
VERTEX
  8
21
 10
87.0115
 20
59.3960
 30
0.0000
 42
1.0000
  0
VERTEX
  8
21
 10
87.1372
 20
59.5218
 30
0.0000
  0
VERTEX
  8
21
 10
86.9667
 20
59.6923
 30
0.0000
 42
1.0000
  0
SEQEND
  8
0
  0
POLYLINE
  8
21
 66
1
 10
0.0000
 20
0.0000
 30
0.0000
 40
0.0000
 41
0.0000
 70
1
  0
VERTEX
  8
21
 10
87.0744
 20
59.3700
 30
0.0000
  0
VERTEX
  8
21
 10
87.4154
 20
59.3700
 30
0.0000
 42
1.0000
  0
VERTEX
  8
21
 10
87.4154
 20
59.5478
 30
0.0000
  0
VERTEX
  8
21
 10
87.0744
 20
59.5478
 30
0.0000
 42
1.0000
  0
SEQEND
  8
0
  0
POLYLINE
  8
21
 66
1
 10
0.0000
 20
0.0000
 30
0.0000
 40
0.0000
 41
0.0000
 70
1
  0
VERTEX
  8
21
 10
87.4782
 20
59.3960
 30
0.0000
  0
VERTEX
  8
21
 10
87.6488
 20
59.5665
 30
0.0000
 42
1.0000
  0
VERTEX
  8
21
 10
87.5230
 20
59.6923
 30
0.0000
  0
VERTEX
  8
21
 10
87.3525
 20
59.5218
 30
0.0000
 42
1.0000
  0
SEQEND
  8
0
  0
POLYLINE
  8
21
 66
1
 10
0.0000
 20
0.0000
 30
0.0000
 40
0.0000
 41
0.0000
 70
1
  0
VERTEX
  8
21
 10
87.6748
 20
59.6294
 30
0.0000
  0
VERTEX
  8
21
 10
87.6748
 20
59.7999
 30
0.0000
 42
1.0000
  0
VERTEX
  8
21
 10
87.4970
 20
59.7999
 30
0.0000
  0
VERTEX
  8
21
 10
87.4970
 20
59.6294
 30
0.0000
 42
1.0000
  0
SEQEND
  8
0
  0
POLYLINE
  8
21
 66
1
 10
0.0000
 20
0.0000
 30
0.0000
 40
0.0000
 41
0.0000
 70
1
  0
VERTEX
  8
21
 10
87.6488
 20
59.8628
 30
0.0000
  0
VERTEX
  8
21
 10
87.4782
 20
60.0333
 30
0.0000
 42
1.0000
  0
VERTEX
  8
21
 10
87.3525
 20
59.9076
 30
0.0000
  0
VERTEX
  8
21
 10
87.5230
 20
59.7371
 30
0.0000
 42
1.0000
  0
SEQEND
  8
0
  0
POLYLINE
  8
21
 66
1
 10
0.0000
 20
0.0000
 30
0.0000
 40
0.0000
 41
0.0000
 70
1
  0
VERTEX
  8
21
 10
87.4154
 20
60.0593
 30
0.0000
  0
VERTEX
  8
21
 10
86.9038
 20
60.0593
 30
0.0000
 42
1.0000
  0
VERTEX
  8
21
 10
86.9038
 20
59.8815
 30
0.0000
  0
VERTEX
  8
21
 10
87.4154
 20
59.8815
 30
0.0000
 42
1.0000
  0
SEQEND
  8
0
  0
POLYLINE
  8
21
 66
1
 10
0.0000
 20
0.0000
 30
0.0000
 40
0.0000
 41
0.0000
 70
1
  0
VERTEX
  8
21
 10
77.3618
 20
60.0781
 30
0.0000
  0
VERTEX
  8
21
 10
77.7028
 20
60.4191
 30
0.0000
 42
1.0000
  0
VERTEX
  8
21
 10
77.5771
 20
60.5448
 30
0.0000
  0
VERTEX
  8
21
 10
77.2360
 20
60.2038
 30
0.0000
 42
1.0000
  0
SEQEND
  8
0
  0
POLYLINE
  8
21
 66
1
 10
0.0000
 20
0.0000
 30
0.0000
 40
0.0000
 41
0.0000
 70
1
  0
VERTEX
  8
21
 10
77.5510
 20
60.4820
 30
0.0000
  0
VERTEX
  8
21
 10
77.5510
 20
59.4589
 30
0.0000
 42
1.0000
  0
VERTEX
  8
21
 10
77.7288
 20
59.4589
 30
0.0000
  0
VERTEX
  8
21
 10
77.7288
 20
60.4820
 30
0.0000
 42
1.0000
  0
SEQEND
  8
0
  0
POLYLINE
  8
21
 66
1
 10
0.0000
 20
0.0000
 30
0.0000
 40
0.0000
 41
0.0000
 70
1
  0
VERTEX
  8
21
 10
77.2989
 20
59.3700
 30
0.0000
  0
VERTEX
  8
21
 10
77.9809
 20
59.3700
 30
0.0000
 42
1.0000
  0
VERTEX
  8
21
 10
77.9809
 20
59.5478
 30
0.0000
  0
VERTEX
  8
21
 10
77.2989
 20
59.5478
 30
0.0000
 42
1.0000
  0
SEQEND
  8
0
  0
POLYLINE
  8
21
 66
1
 10
0.0000
 20
0.0000
 30
0.0000
 40
0.0000
 41
0.0000
 70
1
  0
VERTEX
  8
21
 10
10.9680
 20
44.6946
 30
0.0000
  0
VERTEX
  8
21
 10
7.4120
 20
44.6946
 30
0.0000
 42
1.0000
  0
VERTEX
  8
21
 10
7.4120
 20
44.4914
 30
0.0000
  0
VERTEX
  8
21
 10
10.9680
 20
44.4914
 30
0.0000
 42
1.0000
  0
SEQEND
  8
0
  0
POLYLINE
  8
21
 66
1
 10
0.0000
 20
0.0000
 30
0.0000
 40
0.0000
 41
0.0000
 70
1
  0
VERTEX
  8
21
 10
7.5136
 20
44.5930
 30
0.0000
  0
VERTEX
  8
21
 10
7.5136
 20
51.1470
 30
0.0000
 42
1.0000
  0
VERTEX
  8
21
 10
7.3104
 20
51.1470
 30
0.0000
  0
VERTEX
  8
21
 10
7.3104
 20
44.5930
 30
0.0000
 42
1.0000
  0
SEQEND
  8
0
  0
POLYLINE
  8
21
 66
1
 10
0.0000
 20
0.0000
 30
0.0000
 40
0.0000
 41
0.0000
 70
1
  0
VERTEX
  8
21
 10
7.4120
 20
51.0454
 30
0.0000
  0
VERTEX
  8
21
 10
10.9680
 20
51.0454
 30
0.0000
 42
1.0000
  0
VERTEX
  8
21
 10
10.9680
 20
51.2486
 30
0.0000
  0
VERTEX
  8
21
 10
7.4120
 20
51.2486
 30
0.0000
 42
1.0000
  0
SEQEND
  8
0
  0
POLYLINE
  8
21
 66
1
 10
0.0000
 20
0.0000
 30
0.0000
 40
0.0000
 41
0.0000
 70
1
  0
VERTEX
  8
21
 10
10.8664
 20
51.1470
 30
0.0000
  0
VERTEX
  8
21
 10
10.8664
 20
44.5930
 30
0.0000
 42
1.0000
  0
VERTEX
  8
21
 10
11.0696
 20
44.5930
 30
0.0000
  0
VERTEX
  8
21
 10
11.0696
 20
51.1470
 30
0.0000
 42
1.0000
  0
SEQEND
  8
0
  0
POLYLINE
  8
21
 66
1
 10
0.0000
 20
0.0000
 30
0.0000
 40
0.0000
 41
0.0000
 70
1
  0
VERTEX
  8
21
 10
72.9946
 20
25.0662
 30
0.0000
  0
VERTEX
  8
21
 10
73.8404
 20
25.0662
 30
0.0000
 42
1.0000
  0
VERTEX
  8
21
 10
73.8404
 20
25.2186
 30
0.0000
  0
VERTEX
  8
21
 10
72.9946
 20
25.2186
 30
0.0000
 42
1.0000
  0
SEQEND
  8
0
  0
POLYLINE
  8
21
 66
1
 10
0.0000
 20
0.0000
 30
0.0000
 40
0.0000
 41
0.0000
 70
1
  0
VERTEX
  8
21
 10
73.7642
 20
25.1424
 30
0.0000
  0
VERTEX
  8
21
 10
73.7642
 20
24.3776
 30
0.0000
 42
1.0000
  0
VERTEX
  8
21
 10
73.9166
 20
24.3776
 30
0.0000
  0
VERTEX
  8
21
 10
73.9166
 20
25.1424
 30
0.0000
 42
1.0000
  0
SEQEND
  8
0
  0
POLYLINE
  8
21
 66
1
 10
0.0000
 20
0.0000
 30
0.0000
 40
0.0000
 41
0.0000
 70
1
  0
VERTEX
  8
21
 10
73.8404
 20
22.3738
 30
0.0000
  0
VERTEX
  8
21
 10
72.9946
 20
22.3738
 30
0.0000
 42
1.0000
  0
VERTEX
  8
21
 10
72.9946
 20
22.2214
 30
0.0000
  0
VERTEX
  8
21
 10
73.8404
 20
22.2214
 30
0.0000
 42
1.0000
  0
SEQEND
  8
0
  0
POLYLINE
  8
21
 66
1
 10
0.0000
 20
0.0000
 30
0.0000
 40
0.0000
 41
0.0000
 70
1
  0
VERTEX
  8
21
 10
73.7642
 20
23.0874
 30
0.0000
  0
VERTEX
  8
21
 10
73.7642
 20
22.2976
 30
0.0000
 42
1.0000
  0
VERTEX
  8
21
 10
73.9166
 20
22.2976
 30
0.0000
  0
VERTEX
  8
21
 10
73.9166
 20
23.0874
 30
0.0000
 42
1.0000
  0
SEQEND
  8
0
  0
POLYLINE
  8
21
 66
1
 10
0.0000
 20
0.0000
 30
0.0000
 40
0.0000
 41
0.0000
 70
1
  0
VERTEX
  8
21
 10
10.9680
 20
19.4546
 30
0.0000
  0
VERTEX
  8
21
 10
7.4120
 20
19.4546
 30
0.0000
 42
1.0000
  0
VERTEX
  8
21
 10
7.4120
 20
19.2514
 30
0.0000
  0
VERTEX
  8
21
 10
10.9680
 20
19.2514
 30
0.0000
 42
1.0000
  0
SEQEND
  8
0
  0
POLYLINE
  8
21
 66
1
 10
0.0000
 20
0.0000
 30
0.0000
 40
0.0000
 41
0.0000
 70
1
  0
VERTEX
  8
21
 10
7.5136
 20
19.3530
 30
0.0000
  0
VERTEX
  8
21
 10
7.5136
 20
25.9070
 30
0.0000
 42
1.0000
  0
VERTEX
  8
21
 10
7.3104
 20
25.9070
 30
0.0000
  0
VERTEX
  8
21
 10
7.3104
 20
19.3530
 30
0.0000
 42
1.0000
  0
SEQEND
  8
0
  0
POLYLINE
  8
21
 66
1
 10
0.0000
 20
0.0000
 30
0.0000
 40
0.0000
 41
0.0000
 70
1
  0
VERTEX
  8
21
 10
7.4120
 20
25.8054
 30
0.0000
  0
VERTEX
  8
21
 10
10.9680
 20
25.8054
 30
0.0000
 42
1.0000
  0
VERTEX
  8
21
 10
10.9680
 20
26.0086
 30
0.0000
  0
VERTEX
  8
21
 10
7.4120
 20
26.0086
 30
0.0000
 42
1.0000
  0
SEQEND
  8
0
  0
POLYLINE
  8
21
 66
1
 10
0.0000
 20
0.0000
 30
0.0000
 40
0.0000
 41
0.0000
 70
1
  0
VERTEX
  8
21
 10
10.8664
 20
25.9070
 30
0.0000
  0
VERTEX
  8
21
 10
10.8664
 20
19.3530
 30
0.0000
 42
1.0000
  0
VERTEX
  8
21
 10
11.0696
 20
19.3530
 30
0.0000
  0
VERTEX
  8
21
 10
11.0696
 20
25.9070
 30
0.0000
 42
1.0000
  0
SEQEND
  8
0
  0
POLYLINE
  8
21
 66
1
 10
0.0000
 20
0.0000
 30
0.0000
 40
0.0000
 41
0.0000
 70
1
  0
VERTEX
  8
21
 10
65.1017
 20
37.3347
 30
0.0000
  0
VERTEX
  8
21
 10
64.2531
 20
36.4862
 30
0.0000
 42
1.0000
  0
VERTEX
  8
21
 10
64.3429
 20
36.3964
 30
0.0000
  0
VERTEX
  8
21
 10
65.1915
 20
37.2449
 30
0.0000
 42
1.0000
  0
SEQEND
  8
0
  0
POLYLINE
  8
21
 66
1
 10
0.0000
 20
0.0000
 30
0.0000
 40
0.0000
 41
0.0000
 70
1
  0
VERTEX
  8
21
 10
64.2980
 20
36.5048
 30
0.0000
  0
VERTEX
  8
21
 10
63.7323
 20
36.5048
 30
0.0000
 42
1.0000
  0
VERTEX
  8
21
 10
63.7323
 20
36.3778
 30
0.0000
  0
VERTEX
  8
21
 10
64.2980
 20
36.3778
 30
0.0000
 42
1.0000
  0
SEQEND
  8
0
  0
POLYLINE
  8
21
 66
1
 10
0.0000
 20
0.0000
 30
0.0000
 40
0.0000
 41
0.0000
 70
1
  0
VERTEX
  8
21
 10
63.6874
 20
36.4862
 30
0.0000
  0
VERTEX
  8
21
 10
63.2632
 20
36.0619
 30
0.0000
 42
1.0000
  0
VERTEX
  8
21
 10
63.3530
 20
35.9721
 30
0.0000
  0
VERTEX
  8
21
 10
63.7772
 20
36.3964
 30
0.0000
 42
1.0000
  0
SEQEND
  8
0
  0
POLYLINE
  8
21
 66
1
 10
0.0000
 20
0.0000
 30
0.0000
 40
0.0000
 41
0.0000
 70
1
  0
VERTEX
  8
21
 10
63.2446
 20
36.0170
 30
0.0000
  0
VERTEX
  8
21
 10
63.2446
 20
35.4514
 30
0.0000
 42
1.0000
  0
VERTEX
  8
21
 10
63.3716
 20
35.4514
 30
0.0000
  0
VERTEX
  8
21
 10
63.3716
 20
36.0170
 30
0.0000
 42
1.0000
  0
SEQEND
  8
0
  0
POLYLINE
  8
21
 66
1
 10
0.0000
 20
0.0000
 30
0.0000
 40
0.0000
 41
0.0000
 70
1
  0
VERTEX
  8
21
 10
63.2632
 20
35.4963
 30
0.0000
  0
VERTEX
  8
21
 10
62.4146
 20
34.6477
 30
0.0000
 42
1.0000
  0
VERTEX
  8
21
 10
62.5044
 20
34.5579
 30
0.0000
  0
VERTEX
  8
21
 10
63.3530
 20
35.4065
 30
0.0000
 42
1.0000
  0
SEQEND
  8
0
  0
POLYLINE
  8
21
 66
1
 10
0.0000
 20
0.0000
 30
0.0000
 40
0.0000
 41
0.0000
 70
1
  0
VERTEX
  8
21
 10
62.4595
 20
34.6663
 30
0.0000
  0
VERTEX
  8
21
 10
61.6110
 20
34.6663
 30
0.0000
 42
1.0000
  0
VERTEX
  8
21
 10
61.6110
 20
34.5393
 30
0.0000
  0
VERTEX
  8
21
 10
62.4595
 20
34.5393
 30
0.0000
 42
1.0000
  0
SEQEND
  8
0
  0
POLYLINE
  8
21
 66
1
 10
0.0000
 20
0.0000
 30
0.0000
 40
0.0000
 41
0.0000
 70
1
  0
VERTEX
  8
21
 10
61.6559
 20
34.6477
 30
0.0000
  0
VERTEX
  8
21
 10
60.8074
 20
35.4963
 30
0.0000
 42
1.0000
  0
VERTEX
  8
21
 10
60.7176
 20
35.4065
 30
0.0000
  0
VERTEX
  8
21
 10
61.5661
 20
34.5579
 30
0.0000
 42
1.0000
  0
SEQEND
  8
0
  0
POLYLINE
  8
21
 66
1
 10
0.0000
 20
0.0000
 30
0.0000
 40
0.0000
 41
0.0000
 70
1
  0
VERTEX
  8
21
 10
60.8260
 20
35.4514
 30
0.0000
  0
VERTEX
  8
21
 10
60.8260
 20
36.2999
 30
0.0000
 42
1.0000
  0
VERTEX
  8
21
 10
60.6990
 20
36.2999
 30
0.0000
  0
VERTEX
  8
21
 10
60.6990
 20
35.4514
 30
0.0000
 42
1.0000
  0
SEQEND
  8
0
  0
POLYLINE
  8
21
 66
1
 10
0.0000
 20
0.0000
 30
0.0000
 40
0.0000
 41
0.0000
 70
1
  0
VERTEX
  8
21
 10
60.8074
 20
36.2550
 30
0.0000
  0
VERTEX
  8
21
 10
61.6559
 20
37.1035
 30
0.0000
 42
1.0000
  0
VERTEX
  8
21
 10
61.5661
 20
37.1933
 30
0.0000
  0
VERTEX
  8
21
 10
60.7176
 20
36.3448
 30
0.0000
 42
1.0000
  0
SEQEND
  8
0
  0
POLYLINE
  8
21
 66
1
 10
0.0000
 20
0.0000
 30
0.0000
 40
0.0000
 41
0.0000
 70
1
  0
VERTEX
  8
21
 10
61.6110
 20
37.0849
 30
0.0000
  0
VERTEX
  8
21
 10
62.1767
 20
37.0849
 30
0.0000
 42
1.0000
  0
VERTEX
  8
21
 10
62.1767
 20
37.2119
 30
0.0000
  0
VERTEX
  8
21
 10
61.6110
 20
37.2119
 30
0.0000
 42
1.0000
  0
SEQEND
  8
0
  0
POLYLINE
  8
21
 66
1
 10
0.0000
 20
0.0000
 30
0.0000
 40
0.0000
 41
0.0000
 70
1
  0
VERTEX
  8
21
 10
62.2216
 20
37.1035
 30
0.0000
  0
VERTEX
  8
21
 10
62.6459
 20
37.5278
 30
0.0000
 42
1.0000
  0
VERTEX
  8
21
 10
62.5561
 20
37.6176
 30
0.0000
  0
VERTEX
  8
21
 10
62.1318
 20
37.1933
 30
0.0000
 42
1.0000
  0
SEQEND
  8
0
  0
POLYLINE
  8
21
 66
1
 10
0.0000
 20
0.0000
 30
0.0000
 40
0.0000
 41
0.0000
 70
1
  0
VERTEX
  8
21
 10
62.6645
 20
37.5727
 30
0.0000
  0
VERTEX
  8
21
 10
62.6645
 20
38.1384
 30
0.0000
 42
1.0000
  0
VERTEX
  8
21
 10
62.5375
 20
38.1384
 30
0.0000
  0
VERTEX
  8
21
 10
62.5375
 20
37.5727
 30
0.0000
 42
1.0000
  0
SEQEND
  8
0
  0
POLYLINE
  8
21
 66
1
 10
0.0000
 20
0.0000
 30
0.0000
 40
0.0000
 41
0.0000
 70
1
  0
VERTEX
  8
21
 10
62.6459
 20
38.0935
 30
0.0000
  0
VERTEX
  8
21
 10
63.4944
 20
38.9420
 30
0.0000
 42
1.0000
  0
VERTEX
  8
21
 10
63.4046
 20
39.0318
 30
0.0000
  0
VERTEX
  8
21
 10
62.5561
 20
38.1833
 30
0.0000
 42
1.0000
  0
SEQEND
  8
0
  0
POLYLINE
  8
21
 66
1
 10
0.0000
 20
0.0000
 30
0.0000
 40
0.0000
 41
0.0000
 70
1
  0
VERTEX
  8
21
 10
63.4495
 20
38.9234
 30
0.0000
  0
VERTEX
  8
21
 10
64.2980
 20
38.9234
 30
0.0000
 42
1.0000
  0
VERTEX
  8
21
 10
64.2980
 20
39.0504
 30
0.0000
  0
VERTEX
  8
21
 10
63.4495
 20
39.0504
 30
0.0000
 42
1.0000
  0
SEQEND
  8
0
  0
POLYLINE
  8
21
 66
1
 10
0.0000
 20
0.0000
 30
0.0000
 40
0.0000
 41
0.0000
 70
1
  0
VERTEX
  8
21
 10
64.2531
 20
38.9420
 30
0.0000
  0
VERTEX
  8
21
 10
65.1017
 20
38.0935
 30
0.0000
 42
1.0000
  0
VERTEX
  8
21
 10
65.1915
 20
38.1833
 30
0.0000
  0
VERTEX
  8
21
 10
64.3429
 20
39.0318
 30
0.0000
 42
1.0000
  0
SEQEND
  8
0
  0
POLYLINE
  8
21
 66
1
 10
0.0000
 20
0.0000
 30
0.0000
 40
0.0000
 41
0.0000
 70
1
  0
VERTEX
  8
21
 10
65.0831
 20
38.1384
 30
0.0000
  0
VERTEX
  8
21
 10
65.0831
 20
37.2898
 30
0.0000
 42
1.0000
  0
VERTEX
  8
21
 10
65.2101
 20
37.2898
 30
0.0000
  0
VERTEX
  8
21
 10
65.2101
 20
38.1384
 30
0.0000
 42
1.0000
  0
SEQEND
  8
0
  0
INSERT
  8
17
  2
OCTAGONP
 10
62.0353
 20
35.8756
 30
0.0000
 41
1.5240
 42
1.5240
 43
1.0000
 50
225.0000
  0
INSERT
  8
17
  2
OCTAGONP
 10
62.0353
 20
35.8756
 30
0.0000
 41
1.5240
 42
1.5240
 43
1.0000
 50
225.0000
  0
INSERT
  8
17
  2
OCTAGONP
 10
63.8313
 20
37.6717
 30
0.0000
 41
1.5240
 42
1.5240
 43
1.0000
 50
225.0000
  0
INSERT
  8
17
  2
OCTAGONP
 10
63.8313
 20
37.6717
 30
0.0000
 41
1.5240
 42
1.5240
 43
1.0000
 50
225.0000
  0
INSERT
  8
18
  2
ROUNDV
 10
9.2000
 20
47.8000
 30
0.0000
 41
1.2700
 42
1.2700
 43
1.0000
 50
0.0000
  0
INSERT
  8
18
  2
ROUNDV
 10
9.2000
 20
22.6000
 30
0.0000
 41
1.2700
 42
1.2700
 43
1.0000
 50
0.0000
  0
INSERT
  8
18
  2
ROUNDV
 10
17.4000
 20
52.2000
 30
0.0000
 41
1.2700
 42
1.2700
 43
1.0000
 50
0.0000
  0
INSERT
  8
18
  2
ROUNDV
 10
56.2000
 20
43.6000
 30
0.0000
 41
1.2700
 42
1.2700
 43
1.0000
 50
0.0000
  0
INSERT
  8
18
  2
ROUNDV
 10
95.4000
 20
28.6000
 30
0.0000
 41
1.2700
 42
1.2700
 43
1.0000
 50
0.0000
  0
INSERT
  8
18
  2
ROUNDV
 10
16.8000
 20
7.0000
 30
0.0000
 41
1.2700
 42
1.2700
 43
1.0000
 50
0.0000
  0
INSERT
  8
18
  2
ROUNDV
 10
12.4000
 20
41.0000
 30
0.0000
 41
1.2700
 42
1.2700
 43
1.0000
 50
0.0000
  0
INSERT
  8
18
  2
ROUNDV
 10
21.0000
 20
43.2000
 30
0.0000
 41
1.2700
 42
1.2700
 43
1.0000
 50
0.0000
  0
INSERT
  8
18
  2
ROUNDV
 10
12.8000
 20
35.6000
 30
0.0000
 41
1.2700
 42
1.2700
 43
1.0000
 50
0.0000
  0
INSERT
  8
18
  2
ROUNDV
 10
20.6000
 20
29.6000
 30
0.0000
 41
1.2700
 42
1.2700
 43
1.0000
 50
0.0000
  0
INSERT
  8
18
  2
ROUNDV
 10
56.4000
 20
40.8000
 30
0.0000
 41
1.2700
 42
1.2700
 43
1.0000
 50
0.0000
  0
INSERT
  8
18
  2
ROUNDV
 10
18.6000
 20
9.4000
 30
0.0000
 41
1.2700
 42
1.2700
 43
1.0000
 50
0.0000
  0
INSERT
  8
18
  2
ROUNDV
 10
91.8000
 20
54.8000
 30
0.0000
 41
1.2700
 42
1.2700
 43
1.0000
 50
0.0000
  0
INSERT
  8
18
  2
ROUNDV
 10
48.0000
 20
36.6000
 30
0.0000
 41
1.2700
 42
1.2700
 43
1.0000
 50
0.0000
  0
INSERT
  8
18
  2
ROUNDV
 10
30.4000
 20
54.2000
 30
0.0000
 41
1.2700
 42
1.2700
 43
1.0000
 50
0.0000
  0
INSERT
  8
18
  2
ROUNDV
 10
8.2000
 20
31.4000
 30
0.0000
 41
1.2700
 42
1.2700
 43
1.0000
 50
0.0000
  0
INSERT
  8
18
  2
ROUNDV
 10
12.4000
 20
38.4000
 30
0.0000
 41
1.2700
 42
1.2700
 43
1.0000
 50
0.0000
  0
INSERT
  8
18
  2
ROUNDV
 10
7.6000
 20
64.6000
 30
0.0000
 41
1.2700
 42
1.2700
 43
1.0000
 50
0.0000
  0
INSERT
  8
18
  2
ROUNDV
 10
50.4000
 20
64.6000
 30
0.0000
 41
1.2700
 42
1.2700
 43
1.0000
 50
0.0000
  0
INSERT
  8
18
  2
ROUNDV
 10
54.8000
 20
32.2000
 30
0.0000
 41
1.2700
 42
1.2700
 43
1.0000
 50
0.0000
  0
INSERT
  8
18
  2
ROUNDV
 10
60.6000
 20
37.2000
 30
0.0000
 41
1.2700
 42
1.2700
 43
1.0000
 50
0.0000
  0
INSERT
  8
18
  2
ROUNDV
 10
59.2000
 20
56.6000
 30
0.0000
 41
1.2700
 42
1.2700
 43
1.0000
 50
0.0000
  0
INSERT
  8
18
  2
ROUNDV
 10
39.0000
 20
55.8000
 30
0.0000
 41
1.2700
 42
1.2700
 43
1.0000
 50
0.0000
  0
INSERT
  8
18
  2
ROUNDV
 10
39.0000
 20
54.0000
 30
0.0000
 41
1.2700
 42
1.2700
 43
1.0000
 50
0.0000
  0
INSERT
  8
18
  2
ROUNDV
 10
39.0000
 20
52.2000
 30
0.0000
 41
1.2700
 42
1.2700
 43
1.0000
 50
0.0000
  0
INSERT
  8
18
  2
ROUNDV
 10
39.0000
 20
50.4000
 30
0.0000
 41
1.2700
 42
1.2700
 43
1.0000
 50
0.0000
  0
INSERT
  8
18
  2
ROUNDV
 10
34.6000
 20
41.6000
 30
0.0000
 41
1.2700
 42
1.2700
 43
1.0000
 50
0.0000
  0
INSERT
  8
18
  2
ROUNDV
 10
32.4000
 20
39.8000
 30
0.0000
 41
1.2700
 42
1.2700
 43
1.0000
 50
0.0000
  0
INSERT
  8
18
  2
ROUNDV
 10
35.6000
 20
38.6000
 30
0.0000
 41
1.2700
 42
1.2700
 43
1.0000
 50
0.0000
  0
INSERT
  8
18
  2
ROUNDV
 10
62.2000
 20
52.6000
 30
0.0000
 41
1.2700
 42
1.2700
 43
1.0000
 50
0.0000
  0
INSERT
  8
18
  2
ROUNDV
 10
66.8000
 20
55.6000
 30
0.0000
 41
1.2700
 42
1.2700
 43
1.0000
 50
0.0000
  0
INSERT
  8
18
  2
ROUNDV
 10
69.2000
 20
55.6000
 30
0.0000
 41
1.2700
 42
1.2700
 43
1.0000
 50
0.0000
  0
INSERT
  8
18
  2
ROUNDV
 10
85.0000
 20
25.8000
 30
0.0000
 41
1.2700
 42
1.2700
 43
1.0000
 50
0.0000
  0
INSERT
  8
18
  2
ROUNDV
 10
78.6000
 20
9.2000
 30
0.0000
 41
1.2700
 42
1.2700
 43
1.0000
 50
0.0000
  0
INSERT
  8
18
  2
ROUNDV
 10
86.4000
 20
8.0000
 30
0.0000
 41
1.2700
 42
1.2700
 43
1.0000
 50
0.0000
  0
INSERT
  8
18
  2
ROUNDV
 10
44.2000
 20
42.4000
 30
0.0000
 41
1.2700
 42
1.2700
 43
1.0000
 50
0.0000
  0
INSERT
  8
18
  2
ROUNDV
 10
44.2000
 20
44.4000
 30
0.0000
 41
1.2700
 42
1.2700
 43
1.0000
 50
0.0000
  0
INSERT
  8
18
  2
ROUNDV
 10
53.6000
 20
39.0000
 30
0.0000
 41
1.2700
 42
1.2700
 43
1.0000
 50
0.0000
  0
INSERT
  8
18
  2
ROUNDV
 10
13.6000
 20
3.0000
 30
0.0000
 41
1.2700
 42
1.2700
 43
1.0000
 50
0.0000
  0
INSERT
  8
18
  2
ROUNDV
 10
13.6000
 20
9.4000
 30
0.0000
 41
1.2700
 42
1.2700
 43
1.0000
 50
0.0000
  0
INSERT
  8
18
  2
ROUNDV
 10
50.6000
 20
25.8000
 30
0.0000
 41
1.2700
 42
1.2700
 43
1.0000
 50
0.0000
  0
INSERT
  8
18
  2
ROUNDV
 10
53.0000
 20
25.8000
 30
0.0000
 41
1.2700
 42
1.2700
 43
1.0000
 50
0.0000
  0
INSERT
  8
18
  2
ROUNDV
 10
22.8000
 20
17.0000
 30
0.0000
 41
1.2700
 42
1.2700
 43
1.0000
 50
0.0000
  0
INSERT
  8
18
  2
ROUNDV
 10
47.4000
 20
29.4000
 30
0.0000
 41
1.2700
 42
1.2700
 43
1.0000
 50
0.0000
  0
INSERT
  8
18
  2
ROUNDV
 10
45.0000
 20
28.2000
 30
0.0000
 41
1.2700
 42
1.2700
 43
1.0000
 50
0.0000
  0
ENDSEC
  0
EOF
