  0
SECTION
  2
HEADER
  9
$ACADVER
  1
AC1009
  9
$FILLMODE
 70
0
  9
$EXTMIN
 10
-0.1549
 20
-0.1524
 30
0.0000
  9
$EXTMAX
 10
98.1524
 20
73.1784
 30
0.0000
  0
ENDSEC
  0
SECTION
  2
TABLES
  0
TABLE
  2
LTYPE
 70
1
  0
LTYPE
  2
CONTINUOUS
 70
64
  3
Solid line
 72
65
 73
0
 40
0
  0
ENDTAB
  0
TABLE
  2
LAYER
 70
255
  0
LAYER
  2
17
 70
64
 62
82
  6
CONTINUOUS
  0
LAYER
  2
18
 70
64
 62
82
  6
CONTINUOUS
  0
LAYER
  2
20
 70
64
 62
7
  6
CONTINUOUS
  0
LAYER
  2
44
 70
64
 62
253
  6
CONTINUOUS
  0
ENDTAB
  0
ENDSEC
  0
SECTION
  2
BLOCKS
  0
BLOCK
  8
0
  2
RECT
 70
64
 10
0.0000
 20
0.0000
 30
0.0000
  3
RECT
  0
SOLID
  8
0
 10
-0.5000
 20
-0.5000
 30
0.0000
 11
0.5000
 21
-0.5000
 31
0.0000
 12
-0.5000
 22
0.5000
 32
0.0000
 13
0.5000
 23
0.5000
 33
0.0000
  0
ENDBLK
  8
0
  0
BLOCK
  8
0
  2
PIE
 70
64
 10
0.0000
 20
0.0000
 30
0.0000
  3
PIE
  0
CIRCLE
  8
0
 10
0.0000
 20
0.0000
 30
0.0000
 40
0.5000
  0
ENDBLK
  8
0
  0
BLOCK
  8
0
  2
OCTAGONP
 70
64
 10
0.0000
 20
0.0000
 30
0.0000
  3
OCTAGONP
  0
POLYLINE
  8
0
 66
1
 10
0.0000
 20
0.0000
 30
0.0000
 40
0.0000
 41
0.0000
 70
1
  0
VERTEX
  8
0
 10
-0.5000
 20
-0.2071
 30
0.0000
  0
VERTEX
  8
0
 10
-0.5000
 20
0.2071
 30
0.0000
  0
VERTEX
  8
0
 10
-0.2071
 20
0.5000
 30
0.0000
  0
VERTEX
  8
0
 10
0.2071
 20
0.5000
 30
0.0000
  0
VERTEX
  8
0
 10
0.5000
 20
0.2071
 30
0.0000
  0
VERTEX
  8
0
 10
0.5000
 20
-0.2071
 30
0.0000
  0
VERTEX
  8
0
 10
0.2071
 20
-0.5000
 30
0.0000
  0
VERTEX
  8
0
 10
-0.2071
 20
-0.5000
 30
0.0000
  0
SEQEND
  8
0
  0
ENDBLK
  8
0
  0
BLOCK
  8
0
  2
SQUAREP
 70
64
 10
0.0000
 20
0.0000
 30
0.0000
  3
SQUAREP
  0
SOLID
  8
0
 10
-0.5000
 20
-0.5000
 30
0.0000
 11
0.5000
 21
-0.5000
 31
0.0000
 12
-0.5000
 22
0.5000
 32
0.0000
 13
0.5000
 23
0.5000
 33
0.0000
  0
ENDBLK
  8
0
  0
BLOCK
  8
0
  2
ROUNDP
 70
64
 10
0.0000
 20
0.0000
 30
0.0000
  3
ROUNDP
  0
CIRCLE
  8
0
 10
0.0000
 20
0.0000
 30
0.0000
 40
0.5000
  0
ENDBLK
  8
0
  0
BLOCK
  8
0
  2
ANNULUSP
 70
64
 10
0.0000
 20
0.0000
 30
0.0000
  3
ANNULUSP
  0
CIRCLE
  8
0
 10
0.0000
 20
0.0000
 30
0.0000
 40
0.5000
  0
ENDBLK
  8
0
  0
BLOCK
  8
0
  2
THERMALP
 70
64
 10
0.0000
 20
0.0000
 30
0.0000
  3
THERMALP
  0
POLYLINE
  8
0
 66
1
 10
0.0000
 20
0.0000
 30
0.0000
 40
0.0000
 41
0.0000
 70
1
  0
VERTEX
  8
0
 10
-0.2379
 20
0.4000
 30
0.0000
  0
VERTEX
  8
0
 10
0.2379
 20
0.4000
 30
0.0000
 42
1.0000
  0
VERTEX
  8
0
 10
0.2379
 20
0.5000
 30
0.0000
  0
VERTEX
  8
0
 10
-0.2379
 20
0.5000
 30
0.0000
 42
1.0000
  0
SEQEND
  8
0
  0
POLYLINE
  8
0
 66
1
 10
0.0000
 20
0.0000
 30
0.0000
 40
0.0000
 41
0.0000
 70
1
  0
VERTEX
  8
0
 10
0.4000
 20
0.2379
 30
0.0000
  0
VERTEX
  8
0
 10
0.4000
 20
-0.2379
 30
0.0000
 42
1.0000
  0
VERTEX
  8
0
 10
0.5000
 20
-0.2379
 30
0.0000
  0
VERTEX
  8
0
 10
0.5000
 20
0.2379
 30
0.0000
 42
1.0000
  0
SEQEND
  8
0
  0
POLYLINE
  8
0
 66
1
 10
0.0000
 20
0.0000
 30
0.0000
 40
0.0000
 41
0.0000
 70
1
  0
VERTEX
  8
0
 10
0.2379
 20
-0.4000
 30
0.0000
  0
VERTEX
  8
0
 10
-0.2379
 20
-0.4000
 30
0.0000
 42
1.0000
  0
VERTEX
  8
0
 10
-0.2379
 20
-0.5000
 30
0.0000
  0
VERTEX
  8
0
 10
0.2379
 20
-0.5000
 30
0.0000
 42
1.0000
  0
SEQEND
  8
0
  0
POLYLINE
  8
0
 66
1
 10
0.0000
 20
0.0000
 30
0.0000
 40
0.0000
 41
0.0000
 70
1
  0
VERTEX
  8
0
 10
-0.4000
 20
-0.2379
 30
0.0000
  0
VERTEX
  8
0
 10
-0.4000
 20
0.2379
 30
0.0000
 42
1.0000
  0
VERTEX
  8
0
 10
-0.5000
 20
0.2379
 30
0.0000
  0
VERTEX
  8
0
 10
-0.5000
 20
-0.2379
 30
0.0000
 42
1.0000
  0
SEQEND
  8
0
  0
ENDBLK
  8
0
  0
BLOCK
  8
0
  2
OCTAGONV
 70
64
 10
0.0000
 20
0.0000
 30
0.0000
  3
OCTAGONV
  0
POLYLINE
  8
0
 66
1
 10
0.0000
 20
0.0000
 30
0.0000
 40
0.0000
 41
0.0000
 70
1
  0
VERTEX
  8
0
 10
-0.5000
 20
-0.2071
 30
0.0000
  0
VERTEX
  8
0
 10
-0.5000
 20
0.2071
 30
0.0000
  0
VERTEX
  8
0
 10
-0.2071
 20
0.5000
 30
0.0000
  0
VERTEX
  8
0
 10
0.2071
 20
0.5000
 30
0.0000
  0
VERTEX
  8
0
 10
0.5000
 20
0.2071
 30
0.0000
  0
VERTEX
  8
0
 10
0.5000
 20
-0.2071
 30
0.0000
  0
VERTEX
  8
0
 10
0.2071
 20
-0.5000
 30
0.0000
  0
VERTEX
  8
0
 10
-0.2071
 20
-0.5000
 30
0.0000
  0
SEQEND
  8
0
  0
ENDBLK
  8
0
  0
BLOCK
  8
0
  2
SQUAREV
 70
64
 10
0.0000
 20
0.0000
 30
0.0000
  3
SQUAREV
  0
SOLID
  8
0
 10
-0.5000
 20
-0.5000
 30
0.0000
 11
0.5000
 21
-0.5000
 31
0.0000
 12
-0.5000
 22
0.5000
 32
0.0000
 13
0.5000
 23
0.5000
 33
0.0000
  0
ENDBLK
  8
0
  0
BLOCK
  8
0
  2
ROUNDV
 70
64
 10
0.0000
 20
0.0000
 30
0.0000
  3
ROUNDV
  0
CIRCLE
  8
0
 10
0.0000
 20
0.0000
 30
0.0000
 40
0.5000
  0
ENDBLK
  8
0
  0
BLOCK
  8
0
  2
ANNULUSV
 70
64
 10
0.0000
 20
0.0000
 30
0.0000
  3
ANNULUSV
  0
CIRCLE
  8
0
 10
0.0000
 20
0.0000
 30
0.0000
 40
0.5000
  0
ENDBLK
  8
0
  0
BLOCK
  8
0
  2
THERMALV
 70
64
 10
0.0000
 20
0.0000
 30
0.0000
  3
THERMALV
  0
POLYLINE
  8
0
 66
1
 10
0.0000
 20
0.0000
 30
0.0000
 40
0.0000
 41
0.0000
 70
1
  0
VERTEX
  8
0
 10
-0.2379
 20
0.4000
 30
0.0000
  0
VERTEX
  8
0
 10
0.2379
 20
0.4000
 30
0.0000
 42
1.0000
  0
VERTEX
  8
0
 10
0.2379
 20
0.5000
 30
0.0000
  0
VERTEX
  8
0
 10
-0.2379
 20
0.5000
 30
0.0000
 42
1.0000
  0
SEQEND
  8
0
  0
POLYLINE
  8
0
 66
1
 10
0.0000
 20
0.0000
 30
0.0000
 40
0.0000
 41
0.0000
 70
1
  0
VERTEX
  8
0
 10
0.4000
 20
0.2379
 30
0.0000
  0
VERTEX
  8
0
 10
0.4000
 20
-0.2379
 30
0.0000
 42
1.0000
  0
VERTEX
  8
0
 10
0.5000
 20
-0.2379
 30
0.0000
  0
VERTEX
  8
0
 10
0.5000
 20
0.2379
 30
0.0000
 42
1.0000
  0
SEQEND
  8
0
  0
POLYLINE
  8
0
 66
1
 10
0.0000
 20
0.0000
 30
0.0000
 40
0.0000
 41
0.0000
 70
1
  0
VERTEX
  8
0
 10
0.2379
 20
-0.4000
 30
0.0000
  0
VERTEX
  8
0
 10
-0.2379
 20
-0.4000
 30
0.0000
 42
1.0000
  0
VERTEX
  8
0
 10
-0.2379
 20
-0.5000
 30
0.0000
  0
VERTEX
  8
0
 10
0.2379
 20
-0.5000
 30
0.0000
 42
1.0000
  0
SEQEND
  8
0
  0
POLYLINE
  8
0
 66
1
 10
0.0000
 20
0.0000
 30
0.0000
 40
0.0000
 41
0.0000
 70
1
  0
VERTEX
  8
0
 10
-0.4000
 20
-0.2379
 30
0.0000
  0
VERTEX
  8
0
 10
-0.4000
 20
0.2379
 30
0.0000
 42
1.0000
  0
VERTEX
  8
0
 10
-0.5000
 20
0.2379
 30
0.0000
  0
VERTEX
  8
0
 10
-0.5000
 20
-0.2379
 30
0.0000
 42
1.0000
  0
SEQEND
  8
0
  0
ENDBLK
  8
0
  0
BLOCK
  8
0
  2
OFFSETP100
 70
64
 10
0.0000
 20
0.0000
 30
0.0000
  3
OFFSETP100
  0
POLYLINE
  8
0
 66
1
 10
0.0000
 20
0.0000
 30
0.0000
 40
0.0000
 41
0.0000
 70
1
  0
VERTEX
  8
0
 10
0.0000
 20
-0.5000
 30
0.0000
  0
VERTEX
  8
0
 10
1.0000
 20
-0.5000
 30
0.0000
 42
1.0000
  0
VERTEX
  8
0
 10
1.0000
 20
0.5000
 30
0.0000
  0
VERTEX
  8
0
 10
0.0000
 20
0.5000
 30
0.0000
 42
1.0000
  0
SEQEND
  8
0
  0
ENDBLK
  8
0
  0
BLOCK
  8
0
  2
LONGP100
 70
64
 10
0.0000
 20
0.0000
 30
0.0000
  3
LONGP100
  0
POLYLINE
  8
0
 66
1
 10
0.0000
 20
0.0000
 30
0.0000
 40
0.0000
 41
0.0000
 70
1
  0
VERTEX
  8
0
 10
-0.5000
 20
-0.5000
 30
0.0000
  0
VERTEX
  8
0
 10
0.5000
 20
-0.5000
 30
0.0000
 42
1.0000
  0
VERTEX
  8
0
 10
0.5000
 20
0.5000
 30
0.0000
  0
VERTEX
  8
0
 10
-0.5000
 20
0.5000
 30
0.0000
 42
1.0000
  0
SEQEND
  8
0
  0
ENDBLK
  8
0
  0
ENDSEC
  0
SECTION
  2
ENTITIES
  0
POLYLINE
  8
20
 66
1
 10
0.0000
 20
0.0000
 30
0.0000
 40
0.0000
 41
0.0000
 70
1
  0
VERTEX
  8
20
 10
0.0000
 20
67.0476
 30
0.0000
  0
VERTEX
  8
20
 10
98.0000
 20
67.0476
 30
0.0000
 42
1.0000
  0
VERTEX
  8
20
 10
98.0000
 20
67.3524
 30
0.0000
  0
VERTEX
  8
20
 10
0.0000
 20
67.3524
 30
0.0000
 42
1.0000
  0
SEQEND
  8
0
  0
POLYLINE
  8
20
 66
1
 10
0.0000
 20
0.0000
 30
0.0000
 40
0.0000
 41
0.0000
 70
1
  0
VERTEX
  8
20
 10
97.8476
 20
67.2000
 30
0.0000
  0
VERTEX
  8
20
 10
97.8476
 20
6.2000
 30
0.0000
 42
1.0000
  0
VERTEX
  8
20
 10
98.1524
 20
6.2000
 30
0.0000
  0
VERTEX
  8
20
 10
98.1524
 20
67.2000
 30
0.0000
 42
1.0000
  0
SEQEND
  8
0
  0
POLYLINE
  8
20
 66
1
 10
0.0000
 20
0.0000
 30
0.0000
 40
0.0000
 41
0.0000
 70
1
  0
VERTEX
  8
20
 10
91.8000
 20
0.1524
 30
0.0000
 42
1.0000
  0
VERTEX
  8
20
 10
91.8000
 20
-0.1524
 30
0.0000
 42
0.4142
  0
VERTEX
  8
20
 10
98.1524
 20
6.2000
 30
0.0000
 42
1.0000
  0
VERTEX
  8
20
 10
97.8476
 20
6.2000
 30
0.0000
 42
-0.4142
  0
SEQEND
  8
0
  0
POLYLINE
  8
20
 66
1
 10
0.0000
 20
0.0000
 30
0.0000
 40
0.0000
 41
0.0000
 70
1
  0
VERTEX
  8
20
 10
0.1524
 20
6.2000
 30
0.0000
 42
1.0000
  0
VERTEX
  8
20
 10
-0.1524
 20
6.2000
 30
0.0000
 42
0.4142
  0
VERTEX
  8
20
 10
6.2000
 20
-0.1524
 30
0.0000
 42
1.0000
  0
VERTEX
  8
20
 10
6.2000
 20
0.1524
 30
0.0000
 42
-0.4142
  0
SEQEND
  8
0
  0
POLYLINE
  8
20
 66
1
 10
0.0000
 20
0.0000
 30
0.0000
 40
0.0000
 41
0.0000
 70
1
  0
VERTEX
  8
20
 10
6.2000
 20
-0.1524
 30
0.0000
  0
VERTEX
  8
20
 10
91.8000
 20
-0.1524
 30
0.0000
 42
1.0000
  0
VERTEX
  8
20
 10
91.8000
 20
0.1524
 30
0.0000
  0
VERTEX
  8
20
 10
6.2000
 20
0.1524
 30
0.0000
 42
1.0000
  0
SEQEND
  8
0
  0
POLYLINE
  8
20
 66
1
 10
0.0000
 20
0.0000
 30
0.0000
 40
0.0000
 41
0.0000
 70
1
  0
VERTEX
  8
20
 10
0.1524
 20
6.2000
 30
0.0000
  0
VERTEX
  8
20
 10
0.1524
 20
67.2000
 30
0.0000
 42
1.0000
  0
VERTEX
  8
20
 10
-0.1524
 20
67.2000
 30
0.0000
  0
VERTEX
  8
20
 10
-0.1524
 20
6.2000
 30
0.0000
 42
1.0000
  0
SEQEND
  8
0
  0
INSERT
  8
17
  2
OFFSETP100
 10
67.5700
 20
18.9400
 30
0.0000
 41
1.5080
 42
1.5080
 43
1.0000
 50
0.0000
  0
INSERT
  8
17
  2
OFFSETP100
 10
67.5700
 20
18.9400
 30
0.0000
 41
1.5080
 42
1.5080
 43
1.0000
 50
0.0000
  0
CIRCLE
  8
44
 10
67.5700
 20
18.9400
 30
0.0000
 40
0.5000
  0
INSERT
  8
17
  2
LONGP100
 10
88.5700
 20
18.9400
 30
0.0000
 41
1.5080
 42
1.5080
 43
1.0000
 50
0.0000
  0
INSERT
  8
17
  2
LONGP100
 10
88.5700
 20
18.9400
 30
0.0000
 41
1.5080
 42
1.5080
 43
1.0000
 50
0.0000
  0
CIRCLE
  8
44
 10
88.5700
 20
18.9400
 30
0.0000
 40
0.5000
  0
INSERT
  8
17
  2
LONGP100
 10
9.9924
 20
64.6271
 30
0.0000
 41
1.7780
 42
1.7780
 43
1.0000
 50
270.0000
  0
INSERT
  8
17
  2
LONGP100
 10
9.9924
 20
64.6271
 30
0.0000
 41
1.7780
 42
1.7780
 43
1.0000
 50
270.0000
  0
CIRCLE
  8
44
 10
9.9924
 20
64.6271
 30
0.0000
 40
0.5080
  0
INSERT
  8
17
  2
LONGP100
 10
12.5324
 20
64.6271
 30
0.0000
 41
1.7780
 42
1.7780
 43
1.0000
 50
270.0000
  0
INSERT
  8
17
  2
LONGP100
 10
12.5324
 20
64.6271
 30
0.0000
 41
1.7780
 42
1.7780
 43
1.0000
 50
270.0000
  0
CIRCLE
  8
44
 10
12.5324
 20
64.6271
 30
0.0000
 40
0.5080
  0
INSERT
  8
17
  2
LONGP100
 10
15.0724
 20
64.6271
 30
0.0000
 41
1.7780
 42
1.7780
 43
1.0000
 50
270.0000
  0
INSERT
  8
17
  2
LONGP100
 10
15.0724
 20
64.6271
 30
0.0000
 41
1.7780
 42
1.7780
 43
1.0000
 50
270.0000
  0
CIRCLE
  8
44
 10
15.0724
 20
64.6271
 30
0.0000
 40
0.5080
  0
INSERT
  8
17
  2
LONGP100
 10
17.6124
 20
64.6271
 30
0.0000
 41
1.7780
 42
1.7780
 43
1.0000
 50
270.0000
  0
INSERT
  8
17
  2
LONGP100
 10
17.6124
 20
64.6271
 30
0.0000
 41
1.7780
 42
1.7780
 43
1.0000
 50
270.0000
  0
CIRCLE
  8
44
 10
17.6124
 20
64.6271
 30
0.0000
 40
0.5080
  0
INSERT
  8
17
  2
LONGP100
 10
20.1524
 20
64.6271
 30
0.0000
 41
1.7780
 42
1.7780
 43
1.0000
 50
270.0000
  0
INSERT
  8
17
  2
LONGP100
 10
20.1524
 20
64.6271
 30
0.0000
 41
1.7780
 42
1.7780
 43
1.0000
 50
270.0000
  0
CIRCLE
  8
44
 10
20.1524
 20
64.6271
 30
0.0000
 40
0.5080
  0
INSERT
  8
17
  2
LONGP100
 10
22.6924
 20
64.6271
 30
0.0000
 41
1.7780
 42
1.7780
 43
1.0000
 50
270.0000
  0
INSERT
  8
17
  2
LONGP100
 10
22.6924
 20
64.6271
 30
0.0000
 41
1.7780
 42
1.7780
 43
1.0000
 50
270.0000
  0
CIRCLE
  8
44
 10
22.6924
 20
64.6271
 30
0.0000
 40
0.5080
  0
INSERT
  8
17
  2
LONGP100
 10
25.2324
 20
64.6271
 30
0.0000
 41
1.7780
 42
1.7780
 43
1.0000
 50
270.0000
  0
INSERT
  8
17
  2
LONGP100
 10
25.2324
 20
64.6271
 30
0.0000
 41
1.7780
 42
1.7780
 43
1.0000
 50
270.0000
  0
CIRCLE
  8
44
 10
25.2324
 20
64.6271
 30
0.0000
 40
0.5080
  0
INSERT
  8
17
  2
LONGP100
 10
27.7724
 20
64.6271
 30
0.0000
 41
1.7780
 42
1.7780
 43
1.0000
 50
270.0000
  0
INSERT
  8
17
  2
LONGP100
 10
27.7724
 20
64.6271
 30
0.0000
 41
1.7780
 42
1.7780
 43
1.0000
 50
270.0000
  0
CIRCLE
  8
44
 10
27.7724
 20
64.6271
 30
0.0000
 40
0.5080
  0
INSERT
  8
17
  2
LONGP100
 10
30.3124
 20
64.6271
 30
0.0000
 41
1.7780
 42
1.7780
 43
1.0000
 50
270.0000
  0
INSERT
  8
17
  2
LONGP100
 10
30.3124
 20
64.6271
 30
0.0000
 41
1.7780
 42
1.7780
 43
1.0000
 50
270.0000
  0
CIRCLE
  8
44
 10
30.3124
 20
64.6271
 30
0.0000
 40
0.5080
  0
INSERT
  8
17
  2
LONGP100
 10
32.8524
 20
64.6271
 30
0.0000
 41
1.7780
 42
1.7780
 43
1.0000
 50
270.0000
  0
INSERT
  8
17
  2
LONGP100
 10
32.8524
 20
64.6271
 30
0.0000
 41
1.7780
 42
1.7780
 43
1.0000
 50
270.0000
  0
CIRCLE
  8
44
 10
32.8524
 20
64.6271
 30
0.0000
 40
0.5080
  0
INSERT
  8
17
  2
LONGP100
 10
35.3924
 20
64.6271
 30
0.0000
 41
1.7780
 42
1.7780
 43
1.0000
 50
270.0000
  0
INSERT
  8
17
  2
LONGP100
 10
35.3924
 20
64.6271
 30
0.0000
 41
1.7780
 42
1.7780
 43
1.0000
 50
270.0000
  0
CIRCLE
  8
44
 10
35.3924
 20
64.6271
 30
0.0000
 40
0.5080
  0
INSERT
  8
17
  2
LONGP100
 10
37.9324
 20
64.6271
 30
0.0000
 41
1.7780
 42
1.7780
 43
1.0000
 50
270.0000
  0
INSERT
  8
17
  2
LONGP100
 10
37.9324
 20
64.6271
 30
0.0000
 41
1.7780
 42
1.7780
 43
1.0000
 50
270.0000
  0
CIRCLE
  8
44
 10
37.9324
 20
64.6271
 30
0.0000
 40
0.5080
  0
INSERT
  8
17
  2
LONGP100
 10
40.4724
 20
64.6271
 30
0.0000
 41
1.7780
 42
1.7780
 43
1.0000
 50
270.0000
  0
INSERT
  8
17
  2
LONGP100
 10
40.4724
 20
64.6271
 30
0.0000
 41
1.7780
 42
1.7780
 43
1.0000
 50
270.0000
  0
CIRCLE
  8
44
 10
40.4724
 20
64.6271
 30
0.0000
 40
0.5080
  0
INSERT
  8
17
  2
LONGP100
 10
43.0124
 20
64.6271
 30
0.0000
 41
1.7780
 42
1.7780
 43
1.0000
 50
270.0000
  0
INSERT
  8
17
  2
LONGP100
 10
43.0124
 20
64.6271
 30
0.0000
 41
1.7780
 42
1.7780
 43
1.0000
 50
270.0000
  0
CIRCLE
  8
44
 10
43.0124
 20
64.6271
 30
0.0000
 40
0.5080
  0
INSERT
  8
17
  2
LONGP100
 10
45.5524
 20
64.6271
 30
0.0000
 41
1.7780
 42
1.7780
 43
1.0000
 50
270.0000
  0
INSERT
  8
17
  2
LONGP100
 10
45.5524
 20
64.6271
 30
0.0000
 41
1.7780
 42
1.7780
 43
1.0000
 50
270.0000
  0
CIRCLE
  8
44
 10
45.5524
 20
64.6271
 30
0.0000
 40
0.5080
  0
INSERT
  8
17
  2
LONGP100
 10
48.0924
 20
64.6271
 30
0.0000
 41
1.7780
 42
1.7780
 43
1.0000
 50
270.0000
  0
INSERT
  8
17
  2
LONGP100
 10
48.0924
 20
64.6271
 30
0.0000
 41
1.7780
 42
1.7780
 43
1.0000
 50
270.0000
  0
CIRCLE
  8
44
 10
48.0924
 20
64.6271
 30
0.0000
 40
0.5080
  0
INSERT
  8
17
  2
ROUNDP
 10
2.4951
 20
64.6171
 30
0.0000
 41
3.8100
 42
3.8100
 43
1.0000
 50
0.0000
  0
INSERT
  8
17
  2
ROUNDP
 10
2.4951
 20
64.6171
 30
0.0000
 41
3.8100
 42
3.8100
 43
1.0000
 50
0.0000
  0
CIRCLE
  8
44
 10
2.4951
 20
64.6171
 30
0.0000
 40
1.2700
  0
INSERT
  8
17
  2
ROUNDP
 10
2.5051
 20
9.6271
 30
0.0000
 41
3.8100
 42
3.8100
 43
1.0000
 50
0.0000
  0
INSERT
  8
17
  2
ROUNDP
 10
2.5051
 20
9.6271
 30
0.0000
 41
3.8100
 42
3.8100
 43
1.0000
 50
0.0000
  0
CIRCLE
  8
44
 10
2.5051
 20
9.6271
 30
0.0000
 40
1.2700
  0
INSERT
  8
17
  2
ROUNDP
 10
95.5151
 20
9.6271
 30
0.0000
 41
3.8100
 42
3.8100
 43
1.0000
 50
0.0000
  0
INSERT
  8
17
  2
ROUNDP
 10
95.5151
 20
9.6271
 30
0.0000
 41
3.8100
 42
3.8100
 43
1.0000
 50
0.0000
  0
CIRCLE
  8
44
 10
95.5151
 20
9.6271
 30
0.0000
 40
1.2700
  0
INSERT
  8
17
  2
ROUNDP
 10
95.5051
 20
64.6271
 30
0.0000
 41
3.8100
 42
3.8100
 43
1.0000
 50
0.0000
  0
INSERT
  8
17
  2
ROUNDP
 10
95.5051
 20
64.6271
 30
0.0000
 41
3.8100
 42
3.8100
 43
1.0000
 50
0.0000
  0
CIRCLE
  8
44
 10
95.5051
 20
64.6271
 30
0.0000
 40
1.2700
  0
INSERT
  8
17
  2
SQUAREP
 10
6.9200
 20
38.9200
 30
0.0000
 41
1.6510
 42
1.6510
 43
1.0000
 50
0.0000
  0
INSERT
  8
17
  2
SQUAREP
 10
6.9200
 20
38.9200
 30
0.0000
 41
1.6510
 42
1.6510
 43
1.0000
 50
0.0000
  0
CIRCLE
  8
44
 10
6.9200
 20
38.9200
 30
0.0000
 40
0.4445
  0
INSERT
  8
17
  2
ROUNDP
 10
6.9200
 20
36.3800
 30
0.0000
 41
1.6510
 42
1.6510
 43
1.0000
 50
0.0000
  0
INSERT
  8
17
  2
ROUNDP
 10
6.9200
 20
36.3800
 30
0.0000
 41
1.6510
 42
1.6510
 43
1.0000
 50
0.0000
  0
CIRCLE
  8
44
 10
6.9200
 20
36.3800
 30
0.0000
 40
0.4445
  0
INSERT
  8
17
  2
ROUNDP
 10
6.9200
 20
33.8400
 30
0.0000
 41
1.6510
 42
1.6510
 43
1.0000
 50
0.0000
  0
INSERT
  8
17
  2
ROUNDP
 10
6.9200
 20
33.8400
 30
0.0000
 41
1.6510
 42
1.6510
 43
1.0000
 50
0.0000
  0
CIRCLE
  8
44
 10
6.9200
 20
33.8400
 30
0.0000
 40
0.4445
  0
INSERT
  8
17
  2
ROUNDP
 10
9.4600
 20
33.8400
 30
0.0000
 41
1.6510
 42
1.6510
 43
1.0000
 50
0.0000
  0
INSERT
  8
17
  2
ROUNDP
 10
9.4600
 20
33.8400
 30
0.0000
 41
1.6510
 42
1.6510
 43
1.0000
 50
0.0000
  0
CIRCLE
  8
44
 10
9.4600
 20
33.8400
 30
0.0000
 40
0.4445
  0
INSERT
  8
17
  2
ROUNDP
 10
9.4600
 20
36.3800
 30
0.0000
 41
1.6510
 42
1.6510
 43
1.0000
 50
0.0000
  0
INSERT
  8
17
  2
ROUNDP
 10
9.4600
 20
36.3800
 30
0.0000
 41
1.6510
 42
1.6510
 43
1.0000
 50
0.0000
  0
CIRCLE
  8
44
 10
9.4600
 20
36.3800
 30
0.0000
 40
0.4445
  0
INSERT
  8
17
  2
ROUNDP
 10
9.4600
 20
38.9200
 30
0.0000
 41
1.6510
 42
1.6510
 43
1.0000
 50
0.0000
  0
INSERT
  8
17
  2
ROUNDP
 10
9.4600
 20
38.9200
 30
0.0000
 41
1.6510
 42
1.6510
 43
1.0000
 50
0.0000
  0
CIRCLE
  8
44
 10
9.4600
 20
38.9200
 30
0.0000
 40
0.4445
  0
INSERT
  8
17
  2
OCTAGONP
 10
61.6400
 20
57.9000
 30
0.0000
 41
1.5240
 42
1.5240
 43
1.0000
 50
270.0000
  0
INSERT
  8
17
  2
OCTAGONP
 10
61.6400
 20
57.9000
 30
0.0000
 41
1.5240
 42
1.5240
 43
1.0000
 50
270.0000
  0
CIRCLE
  8
44
 10
61.6400
 20
57.9000
 30
0.0000
 40
0.5080
  0
INSERT
  8
17
  2
OCTAGONP
 10
64.1800
 20
57.9000
 30
0.0000
 41
1.5240
 42
1.5240
 43
1.0000
 50
270.0000
  0
INSERT
  8
17
  2
OCTAGONP
 10
64.1800
 20
57.9000
 30
0.0000
 41
1.5240
 42
1.5240
 43
1.0000
 50
270.0000
  0
CIRCLE
  8
44
 10
64.1800
 20
57.9000
 30
0.0000
 40
0.5080
  0
INSERT
  8
17
  2
OCTAGONP
 10
61.6400
 20
55.3600
 30
0.0000
 41
1.5240
 42
1.5240
 43
1.0000
 50
270.0000
  0
INSERT
  8
17
  2
OCTAGONP
 10
61.6400
 20
55.3600
 30
0.0000
 41
1.5240
 42
1.5240
 43
1.0000
 50
270.0000
  0
CIRCLE
  8
44
 10
61.6400
 20
55.3600
 30
0.0000
 40
0.5080
  0
INSERT
  8
17
  2
OCTAGONP
 10
64.1800
 20
55.3600
 30
0.0000
 41
1.5240
 42
1.5240
 43
1.0000
 50
270.0000
  0
INSERT
  8
17
  2
OCTAGONP
 10
64.1800
 20
55.3600
 30
0.0000
 41
1.5240
 42
1.5240
 43
1.0000
 50
270.0000
  0
CIRCLE
  8
44
 10
64.1800
 20
55.3600
 30
0.0000
 40
0.5080
  0
INSERT
  8
17
  2
LONGP100
 10
94.0000
 20
41.6800
 30
0.0000
 41
1.5240
 42
1.5240
 43
1.0000
 50
0.0000
  0
INSERT
  8
17
  2
LONGP100
 10
94.0000
 20
41.6800
 30
0.0000
 41
1.5240
 42
1.5240
 43
1.0000
 50
0.0000
  0
CIRCLE
  8
44
 10
94.0000
 20
41.6800
 30
0.0000
 40
0.5080
  0
INSERT
  8
17
  2
LONGP100
 10
94.0000
 20
39.1400
 30
0.0000
 41
1.5240
 42
1.5240
 43
1.0000
 50
0.0000
  0
INSERT
  8
17
  2
LONGP100
 10
94.0000
 20
39.1400
 30
0.0000
 41
1.5240
 42
1.5240
 43
1.0000
 50
0.0000
  0
CIRCLE
  8
44
 10
94.0000
 20
39.1400
 30
0.0000
 40
0.5080
  0
INSERT
  8
17
  2
LONGP100
 10
94.0000
 20
36.6000
 30
0.0000
 41
1.5240
 42
1.5240
 43
1.0000
 50
0.0000
  0
INSERT
  8
17
  2
LONGP100
 10
94.0000
 20
36.6000
 30
0.0000
 41
1.5240
 42
1.5240
 43
1.0000
 50
0.0000
  0
CIRCLE
  8
44
 10
94.0000
 20
36.6000
 30
0.0000
 40
0.5080
  0
INSERT
  8
17
  2
LONGP100
 10
94.0000
 20
34.0600
 30
0.0000
 41
1.5240
 42
1.5240
 43
1.0000
 50
0.0000
  0
INSERT
  8
17
  2
LONGP100
 10
94.0000
 20
34.0600
 30
0.0000
 41
1.5240
 42
1.5240
 43
1.0000
 50
0.0000
  0
CIRCLE
  8
44
 10
94.0000
 20
34.0600
 30
0.0000
 40
0.5080
  0
INSERT
  8
17
  2
LONGP100
 10
94.0000
 20
31.5200
 30
0.0000
 41
1.5240
 42
1.5240
 43
1.0000
 50
0.0000
  0
INSERT
  8
17
  2
LONGP100
 10
94.0000
 20
31.5200
 30
0.0000
 41
1.5240
 42
1.5240
 43
1.0000
 50
0.0000
  0
CIRCLE
  8
44
 10
94.0000
 20
31.5200
 30
0.0000
 40
0.5080
  0
INSERT
  8
17
  2
SQUAREP
 10
89.9002
 20
4.1100
 30
0.0000
 41
1.6510
 42
1.6510
 43
1.0000
 50
0.0000
  0
INSERT
  8
17
  2
SQUAREP
 10
89.9002
 20
4.1100
 30
0.0000
 41
1.6510
 42
1.6510
 43
1.0000
 50
0.0000
  0
CIRCLE
  8
44
 10
89.9002
 20
4.1100
 30
0.0000
 40
0.4445
  0
INSERT
  8
17
  2
ROUNDP
 10
92.4398
 20
4.1100
 30
0.0000
 41
1.6510
 42
1.6510
 43
1.0000
 50
0.0000
  0
INSERT
  8
17
  2
ROUNDP
 10
92.4398
 20
4.1100
 30
0.0000
 41
1.6510
 42
1.6510
 43
1.0000
 50
0.0000
  0
CIRCLE
  8
44
 10
92.4398
 20
4.1100
 30
0.0000
 40
0.4445
  0
INSERT
  8
17
  2
SQUAREP
 10
82.2802
 20
4.1100
 30
0.0000
 41
1.6510
 42
1.6510
 43
1.0000
 50
0.0000
  0
INSERT
  8
17
  2
SQUAREP
 10
82.2802
 20
4.1100
 30
0.0000
 41
1.6510
 42
1.6510
 43
1.0000
 50
0.0000
  0
CIRCLE
  8
44
 10
82.2802
 20
4.1100
 30
0.0000
 40
0.4445
  0
INSERT
  8
17
  2
ROUNDP
 10
84.8198
 20
4.1100
 30
0.0000
 41
1.6510
 42
1.6510
 43
1.0000
 50
0.0000
  0
INSERT
  8
17
  2
ROUNDP
 10
84.8198
 20
4.1100
 30
0.0000
 41
1.6510
 42
1.6510
 43
1.0000
 50
0.0000
  0
CIRCLE
  8
44
 10
84.8198
 20
4.1100
 30
0.0000
 40
0.4445
  0
INSERT
  8
17
  2
SQUAREP
 10
74.6602
 20
4.1100
 30
0.0000
 41
1.6510
 42
1.6510
 43
1.0000
 50
0.0000
  0
INSERT
  8
17
  2
SQUAREP
 10
74.6602
 20
4.1100
 30
0.0000
 41
1.6510
 42
1.6510
 43
1.0000
 50
0.0000
  0
CIRCLE
  8
44
 10
74.6602
 20
4.1100
 30
0.0000
 40
0.4445
  0
INSERT
  8
17
  2
ROUNDP
 10
77.1998
 20
4.1100
 30
0.0000
 41
1.6510
 42
1.6510
 43
1.0000
 50
0.0000
  0
INSERT
  8
17
  2
ROUNDP
 10
77.1998
 20
4.1100
 30
0.0000
 41
1.6510
 42
1.6510
 43
1.0000
 50
0.0000
  0
CIRCLE
  8
44
 10
77.1998
 20
4.1100
 30
0.0000
 40
0.4445
  0
INSERT
  8
17
  2
SQUAREP
 10
67.0402
 20
4.1100
 30
0.0000
 41
1.6510
 42
1.6510
 43
1.0000
 50
0.0000
  0
INSERT
  8
17
  2
SQUAREP
 10
67.0402
 20
4.1100
 30
0.0000
 41
1.6510
 42
1.6510
 43
1.0000
 50
0.0000
  0
CIRCLE
  8
44
 10
67.0402
 20
4.1100
 30
0.0000
 40
0.4445
  0
INSERT
  8
17
  2
ROUNDP
 10
69.5798
 20
4.1100
 30
0.0000
 41
1.6510
 42
1.6510
 43
1.0000
 50
0.0000
  0
INSERT
  8
17
  2
ROUNDP
 10
69.5798
 20
4.1100
 30
0.0000
 41
1.6510
 42
1.6510
 43
1.0000
 50
0.0000
  0
CIRCLE
  8
44
 10
69.5798
 20
4.1100
 30
0.0000
 40
0.4445
  0
INSERT
  8
17
  2
OCTAGONP
 10
62.0353
 20
35.8756
 30
0.0000
 41
1.5240
 42
1.5240
 43
1.0000
 50
225.0000
  0
INSERT
  8
17
  2
OCTAGONP
 10
62.0353
 20
35.8756
 30
0.0000
 41
1.5240
 42
1.5240
 43
1.0000
 50
225.0000
  0
CIRCLE
  8
44
 10
62.0353
 20
35.8756
 30
0.0000
 40
0.5080
  0
INSERT
  8
17
  2
OCTAGONP
 10
63.8313
 20
37.6717
 30
0.0000
 41
1.5240
 42
1.5240
 43
1.0000
 50
225.0000
  0
INSERT
  8
17
  2
OCTAGONP
 10
63.8313
 20
37.6717
 30
0.0000
 41
1.5240
 42
1.5240
 43
1.0000
 50
225.0000
  0
CIRCLE
  8
44
 10
63.8313
 20
37.6717
 30
0.0000
 40
0.5080
  0
INSERT
  8
18
  2
ROUNDV
 10
9.2000
 20
47.8000
 30
0.0000
 41
1.2700
 42
1.2700
 43
1.0000
 50
0.0000
  0
CIRCLE
  8
44
 10
9.2000
 20
47.8000
 30
0.0000
 40
0.2000
  0
INSERT
  8
18
  2
ROUNDV
 10
9.2000
 20
22.6000
 30
0.0000
 41
1.2700
 42
1.2700
 43
1.0000
 50
0.0000
  0
CIRCLE
  8
44
 10
9.2000
 20
22.6000
 30
0.0000
 40
0.2000
  0
INSERT
  8
18
  2
ROUNDV
 10
17.4000
 20
52.2000
 30
0.0000
 41
1.2700
 42
1.2700
 43
1.0000
 50
0.0000
  0
CIRCLE
  8
44
 10
17.4000
 20
52.2000
 30
0.0000
 40
0.2000
  0
INSERT
  8
18
  2
ROUNDV
 10
56.2000
 20
43.6000
 30
0.0000
 41
1.2700
 42
1.2700
 43
1.0000
 50
0.0000
  0
CIRCLE
  8
44
 10
56.2000
 20
43.6000
 30
0.0000
 40
0.2000
  0
INSERT
  8
18
  2
ROUNDV
 10
95.4000
 20
28.6000
 30
0.0000
 41
1.2700
 42
1.2700
 43
1.0000
 50
0.0000
  0
CIRCLE
  8
44
 10
95.4000
 20
28.6000
 30
0.0000
 40
0.2000
  0
INSERT
  8
18
  2
ROUNDV
 10
16.8000
 20
7.0000
 30
0.0000
 41
1.2700
 42
1.2700
 43
1.0000
 50
0.0000
  0
CIRCLE
  8
44
 10
16.8000
 20
7.0000
 30
0.0000
 40
0.2000
  0
INSERT
  8
18
  2
ROUNDV
 10
12.4000
 20
41.0000
 30
0.0000
 41
1.2700
 42
1.2700
 43
1.0000
 50
0.0000
  0
CIRCLE
  8
44
 10
12.4000
 20
41.0000
 30
0.0000
 40
0.2000
  0
INSERT
  8
18
  2
ROUNDV
 10
21.0000
 20
43.2000
 30
0.0000
 41
1.2700
 42
1.2700
 43
1.0000
 50
0.0000
  0
CIRCLE
  8
44
 10
21.0000
 20
43.2000
 30
0.0000
 40
0.2000
  0
INSERT
  8
18
  2
ROUNDV
 10
12.8000
 20
35.6000
 30
0.0000
 41
1.2700
 42
1.2700
 43
1.0000
 50
0.0000
  0
CIRCLE
  8
44
 10
12.8000
 20
35.6000
 30
0.0000
 40
0.2000
  0
INSERT
  8
18
  2
ROUNDV
 10
20.6000
 20
29.6000
 30
0.0000
 41
1.2700
 42
1.2700
 43
1.0000
 50
0.0000
  0
CIRCLE
  8
44
 10
20.6000
 20
29.6000
 30
0.0000
 40
0.2000
  0
INSERT
  8
18
  2
ROUNDV
 10
56.4000
 20
40.8000
 30
0.0000
 41
1.2700
 42
1.2700
 43
1.0000
 50
0.0000
  0
CIRCLE
  8
44
 10
56.4000
 20
40.8000
 30
0.0000
 40
0.2000
  0
INSERT
  8
18
  2
ROUNDV
 10
18.6000
 20
9.4000
 30
0.0000
 41
1.2700
 42
1.2700
 43
1.0000
 50
0.0000
  0
CIRCLE
  8
44
 10
18.6000
 20
9.4000
 30
0.0000
 40
0.2000
  0
INSERT
  8
18
  2
ROUNDV
 10
91.8000
 20
54.8000
 30
0.0000
 41
1.2700
 42
1.2700
 43
1.0000
 50
0.0000
  0
CIRCLE
  8
44
 10
91.8000
 20
54.8000
 30
0.0000
 40
0.2000
  0
INSERT
  8
18
  2
ROUNDV
 10
48.0000
 20
36.6000
 30
0.0000
 41
1.2700
 42
1.2700
 43
1.0000
 50
0.0000
  0
CIRCLE
  8
44
 10
48.0000
 20
36.6000
 30
0.0000
 40
0.2000
  0
INSERT
  8
18
  2
ROUNDV
 10
30.4000
 20
54.2000
 30
0.0000
 41
1.2700
 42
1.2700
 43
1.0000
 50
0.0000
  0
CIRCLE
  8
44
 10
30.4000
 20
54.2000
 30
0.0000
 40
0.2000
  0
INSERT
  8
18
  2
ROUNDV
 10
8.2000
 20
31.4000
 30
0.0000
 41
1.2700
 42
1.2700
 43
1.0000
 50
0.0000
  0
CIRCLE
  8
44
 10
8.2000
 20
31.4000
 30
0.0000
 40
0.2000
  0
INSERT
  8
18
  2
ROUNDV
 10
12.4000
 20
38.4000
 30
0.0000
 41
1.2700
 42
1.2700
 43
1.0000
 50
0.0000
  0
CIRCLE
  8
44
 10
12.4000
 20
38.4000
 30
0.0000
 40
0.2000
  0
INSERT
  8
18
  2
ROUNDV
 10
7.6000
 20
64.6000
 30
0.0000
 41
1.2700
 42
1.2700
 43
1.0000
 50
0.0000
  0
CIRCLE
  8
44
 10
7.6000
 20
64.6000
 30
0.0000
 40
0.2000
  0
INSERT
  8
18
  2
ROUNDV
 10
50.4000
 20
64.6000
 30
0.0000
 41
1.2700
 42
1.2700
 43
1.0000
 50
0.0000
  0
CIRCLE
  8
44
 10
50.4000
 20
64.6000
 30
0.0000
 40
0.2000
  0
INSERT
  8
18
  2
ROUNDV
 10
54.8000
 20
32.2000
 30
0.0000
 41
1.2700
 42
1.2700
 43
1.0000
 50
0.0000
  0
CIRCLE
  8
44
 10
54.8000
 20
32.2000
 30
0.0000
 40
0.2000
  0
INSERT
  8
18
  2
ROUNDV
 10
60.6000
 20
37.2000
 30
0.0000
 41
1.2700
 42
1.2700
 43
1.0000
 50
0.0000
  0
CIRCLE
  8
44
 10
60.6000
 20
37.2000
 30
0.0000
 40
0.2000
  0
INSERT
  8
18
  2
ROUNDV
 10
59.2000
 20
56.6000
 30
0.0000
 41
1.2700
 42
1.2700
 43
1.0000
 50
0.0000
  0
CIRCLE
  8
44
 10
59.2000
 20
56.6000
 30
0.0000
 40
0.2000
  0
INSERT
  8
18
  2
ROUNDV
 10
39.0000
 20
55.8000
 30
0.0000
 41
1.2700
 42
1.2700
 43
1.0000
 50
0.0000
  0
CIRCLE
  8
44
 10
39.0000
 20
55.8000
 30
0.0000
 40
0.2000
  0
INSERT
  8
18
  2
ROUNDV
 10
39.0000
 20
54.0000
 30
0.0000
 41
1.2700
 42
1.2700
 43
1.0000
 50
0.0000
  0
CIRCLE
  8
44
 10
39.0000
 20
54.0000
 30
0.0000
 40
0.2000
  0
INSERT
  8
18
  2
ROUNDV
 10
39.0000
 20
52.2000
 30
0.0000
 41
1.2700
 42
1.2700
 43
1.0000
 50
0.0000
  0
CIRCLE
  8
44
 10
39.0000
 20
52.2000
 30
0.0000
 40
0.2000
  0
INSERT
  8
18
  2
ROUNDV
 10
39.0000
 20
50.4000
 30
0.0000
 41
1.2700
 42
1.2700
 43
1.0000
 50
0.0000
  0
CIRCLE
  8
44
 10
39.0000
 20
50.4000
 30
0.0000
 40
0.2000
  0
INSERT
  8
18
  2
ROUNDV
 10
34.6000
 20
41.6000
 30
0.0000
 41
1.2700
 42
1.2700
 43
1.0000
 50
0.0000
  0
CIRCLE
  8
44
 10
34.6000
 20
41.6000
 30
0.0000
 40
0.2000
  0
INSERT
  8
18
  2
ROUNDV
 10
32.4000
 20
39.8000
 30
0.0000
 41
1.2700
 42
1.2700
 43
1.0000
 50
0.0000
  0
CIRCLE
  8
44
 10
32.4000
 20
39.8000
 30
0.0000
 40
0.2000
  0
INSERT
  8
18
  2
ROUNDV
 10
35.6000
 20
38.6000
 30
0.0000
 41
1.2700
 42
1.2700
 43
1.0000
 50
0.0000
  0
CIRCLE
  8
44
 10
35.6000
 20
38.6000
 30
0.0000
 40
0.2000
  0
INSERT
  8
18
  2
ROUNDV
 10
62.2000
 20
52.6000
 30
0.0000
 41
1.2700
 42
1.2700
 43
1.0000
 50
0.0000
  0
CIRCLE
  8
44
 10
62.2000
 20
52.6000
 30
0.0000
 40
0.2000
  0
INSERT
  8
18
  2
ROUNDV
 10
66.8000
 20
55.6000
 30
0.0000
 41
1.2700
 42
1.2700
 43
1.0000
 50
0.0000
  0
CIRCLE
  8
44
 10
66.8000
 20
55.6000
 30
0.0000
 40
0.2000
  0
INSERT
  8
18
  2
ROUNDV
 10
69.2000
 20
55.6000
 30
0.0000
 41
1.2700
 42
1.2700
 43
1.0000
 50
0.0000
  0
CIRCLE
  8
44
 10
69.2000
 20
55.6000
 30
0.0000
 40
0.2000
  0
INSERT
  8
18
  2
ROUNDV
 10
85.0000
 20
25.8000
 30
0.0000
 41
1.2700
 42
1.2700
 43
1.0000
 50
0.0000
  0
CIRCLE
  8
44
 10
85.0000
 20
25.8000
 30
0.0000
 40
0.2000
  0
INSERT
  8
18
  2
ROUNDV
 10
78.6000
 20
9.2000
 30
0.0000
 41
1.2700
 42
1.2700
 43
1.0000
 50
0.0000
  0
CIRCLE
  8
44
 10
78.6000
 20
9.2000
 30
0.0000
 40
0.2000
  0
INSERT
  8
18
  2
ROUNDV
 10
86.4000
 20
8.0000
 30
0.0000
 41
1.2700
 42
1.2700
 43
1.0000
 50
0.0000
  0
CIRCLE
  8
44
 10
86.4000
 20
8.0000
 30
0.0000
 40
0.2000
  0
INSERT
  8
18
  2
ROUNDV
 10
44.2000
 20
42.4000
 30
0.0000
 41
1.2700
 42
1.2700
 43
1.0000
 50
0.0000
  0
CIRCLE
  8
44
 10
44.2000
 20
42.4000
 30
0.0000
 40
0.2000
  0
INSERT
  8
18
  2
ROUNDV
 10
44.2000
 20
44.4000
 30
0.0000
 41
1.2700
 42
1.2700
 43
1.0000
 50
0.0000
  0
CIRCLE
  8
44
 10
44.2000
 20
44.4000
 30
0.0000
 40
0.2000
  0
INSERT
  8
18
  2
ROUNDV
 10
53.6000
 20
39.0000
 30
0.0000
 41
1.2700
 42
1.2700
 43
1.0000
 50
0.0000
  0
CIRCLE
  8
44
 10
53.6000
 20
39.0000
 30
0.0000
 40
0.2000
  0
INSERT
  8
18
  2
ROUNDV
 10
13.6000
 20
3.0000
 30
0.0000
 41
1.2700
 42
1.2700
 43
1.0000
 50
0.0000
  0
CIRCLE
  8
44
 10
13.6000
 20
3.0000
 30
0.0000
 40
0.2000
  0
INSERT
  8
18
  2
ROUNDV
 10
13.6000
 20
9.4000
 30
0.0000
 41
1.2700
 42
1.2700
 43
1.0000
 50
0.0000
  0
CIRCLE
  8
44
 10
13.6000
 20
9.4000
 30
0.0000
 40
0.2000
  0
INSERT
  8
18
  2
ROUNDV
 10
50.6000
 20
25.8000
 30
0.0000
 41
1.2700
 42
1.2700
 43
1.0000
 50
0.0000
  0
CIRCLE
  8
44
 10
50.6000
 20
25.8000
 30
0.0000
 40
0.2000
  0
INSERT
  8
18
  2
ROUNDV
 10
53.0000
 20
25.8000
 30
0.0000
 41
1.2700
 42
1.2700
 43
1.0000
 50
0.0000
  0
CIRCLE
  8
44
 10
53.0000
 20
25.8000
 30
0.0000
 40
0.2000
  0
INSERT
  8
18
  2
ROUNDV
 10
22.8000
 20
17.0000
 30
0.0000
 41
1.2700
 42
1.2700
 43
1.0000
 50
0.0000
  0
CIRCLE
  8
44
 10
22.8000
 20
17.0000
 30
0.0000
 40
0.2000
  0
INSERT
  8
18
  2
ROUNDV
 10
47.4000
 20
29.4000
 30
0.0000
 41
1.2700
 42
1.2700
 43
1.0000
 50
0.0000
  0
CIRCLE
  8
44
 10
47.4000
 20
29.4000
 30
0.0000
 40
0.2000
  0
INSERT
  8
18
  2
ROUNDV
 10
45.0000
 20
28.2000
 30
0.0000
 41
1.2700
 42
1.2700
 43
1.0000
 50
0.0000
  0
CIRCLE
  8
44
 10
45.0000
 20
28.2000
 30
0.0000
 40
0.2000
  0
ENDSEC
  0
EOF
